/* XPM */
static char *result[] = {
/* columns rows colors chars-per-pixel */
"50 50 228 2 ",
"   c #070707",
".  c #03080A",
"X  c #040A0B",
"o  c #0B0B0B",
"O  c gray12",
"+  c #091C21",
"@  c #272727",
"#  c #2D3234",
"$  c #24373C",
"%  c #393939",
"&  c gray27",
"*  c #5B6E73",
"=  c gray40",
"-  c #707577",
";  c #287C90",
":  c #287C91",
">  c #1E6ECE",
",  c #1E6FCE",
"<  c #1F6FCE",
"1  c #1F70CE",
"2  c #1F71CE",
"3  c #1F72CE",
"4  c #2073CD",
"5  c #2072CE",
"6  c #2073CE",
"7  c #2074CD",
"8  c #2174CD",
"9  c #2175CD",
"0  c #2176CD",
"q  c #2277CD",
"w  c #2278CD",
"e  c #2279CD",
"r  c #2379CD",
"t  c #237ACD",
"y  c #237BCD",
"u  c #237CCD",
"i  c #247DCC",
"p  c #247CCD",
"a  c #247DCD",
"s  c #247ECC",
"d  c #257ECC",
"f  c #257FCC",
"g  c #2D8196",
"h  c #3E92A7",
"j  c #3198B1",
"k  c #3198B2",
"l  c #339AB4",
"z  c #3AA1BA",
"x  c #2580CC",
"c  c #2580CD",
"v  c #2681CC",
"b  c #2682CC",
"n  c #2683CC",
"m  c #2783CC",
"M  c #2784CC",
"N  c #2785CC",
"B  c #2885CC",
"V  c #2886CC",
"C  c #2887CC",
"Z  c #2888CB",
"A  c #2988CB",
"S  c #2989CB",
"D  c #298ACB",
"F  c #2A8ACB",
"G  c #2A8BCB",
"H  c #2A8CCB",
"J  c #2B8DCB",
"K  c #2B8ECB",
"L  c #2B8FCB",
"P  c #2C8FCB",
"I  c #2888CC",
"U  c #2989CC",
"Y  c #298ACC",
"T  c #2A8BCC",
"R  c #2A8CCC",
"E  c #2C90CB",
"W  c #2C91CB",
"Q  c #2D91CB",
"!  c #2D92CA",
"~  c #2D93CA",
"^  c #2D94CA",
"/  c #2E94CA",
"(  c #2E95CA",
")  c #2E96CA",
"_  c #2F96CA",
"`  c #2F97CA",
"'  c #2E96CB",
"]  c #2D92CC",
"[  c #2F98CA",
"{  c #2F99CA",
"}  c #2F99CB",
"|  c #3099CA",
" . c #309ACA",
".. c #309BCA",
"X. c #319BCA",
"o. c #309BCB",
"O. c #319CC9",
"+. c #319DC9",
"@. c #329EC9",
"#. c #329FC9",
"$. c #319CCA",
"%. c #319DCA",
"&. c #319ECA",
"*. c #329FCA",
"=. c #35AAC7",
"-. c #32A0C9",
";. c #33A0C9",
":. c #33A1C9",
">. c #33A2C9",
",. c #32A1CA",
"<. c #33A2CA",
"1. c #34A3C9",
"2. c #34A5C9",
"3. c #35A5C9",
"4. c #35A6C8",
"5. c #35A7C8",
"6. c #35A7C9",
"7. c #34A5CA",
"8. c #35A8C9",
"9. c #36A8C8",
"0. c #36A9C8",
"q. c #36A8C9",
"w. c #36A9C9",
"e. c #35AAC8",
"r. c #36AAC8",
"t. c #37AAC8",
"y. c #36ABC8",
"u. c #37ABC8",
"i. c #36AAC9",
"p. c #36ABC9",
"a. c #37ABC9",
"s. c #36A9CA",
"d. c #37ACC9",
"f. c #37ACCA",
"g. c #37ACCB",
"h. c #38ABC8",
"j. c #38ACC8",
"k. c #39ACC8",
"l. c #39ACC9",
"z. c #3AACC9",
"x. c #38ACCA",
"c. c #38ADCA",
"v. c #38ADCB",
"b. c #38AECB",
"n. c #3CADC9",
"m. c #3EAECA",
"M. c #3FAECA",
"N. c #38AECC",
"B. c #40AFCA",
"V. c #40AFCB",
"C. c #41AFCB",
"Z. c #48AFC9",
"A. c #43B0CB",
"S. c #47B2CC",
"D. c #49B3CD",
"F. c #4AB3CD",
"G. c #4CB4CE",
"H. c #4DB4CE",
"J. c #4EB4CE",
"K. c #4EB5CE",
"L. c #50B5CF",
"P. c #54B7D0",
"I. c #56B8D0",
"U. c #57B9D1",
"Y. c #58B9D1",
"T. c #5BBAD2",
"R. c #5EBCD3",
"E. c #61B4C9",
"W. c #61BDD4",
"Q. c #65BED5",
"!. c #69C0D6",
"~. c #6BC1D6",
"^. c #6CC1D7",
"/. c #6EC1D6",
"(. c #6FC2D7",
"). c #70C3D8",
"_. c #7CC8DB",
"`. c gray55",
"'. c #A9A9A9",
"]. c #B1B1B1",
"[. c gray70",
"{. c #80CADC",
"}. c #86CCDE",
"|. c #92D1E1",
" X c #94D2E2",
".X c #95D3E2",
"XX c #9AD5E3",
"oX c #A1D8E5",
"OX c #A2D8E5",
"+X c #A9DBE7",
"@X c #B2DFEA",
"#X c #BBE3EC",
"$X c #BEE4ED",
"%X c #C3C3C3",
"&X c gray81",
"*X c #C1D4D9",
"=X c gray84",
"-X c #DDDDDD",
";X c #D9DEE0",
":X c #C1E5EE",
">X c #C3E6EE",
",X c #CDEAF1",
"<X c #CFEBF2",
"1X c #D0EBF2",
"2X c #D3EDF3",
"3X c #DCF0F4",
"4X c #DEF1F6",
"5X c #E2E2E2",
"6X c #EEEEEE",
"7X c #E2F3F7",
"8X c #E3F3F7",
"9X c #E6F5F8",
"0X c #E7F5F8",
"qX c #EEF8FA",
"wX c gray97",
"eX c #F4FAFB",
"rX c #F4FAFC",
"tX c #F6FBFC",
"yX c #F6FBFD",
"uX c #F7FCFD",
"iX c #F9F9F9",
"pX c gray98",
"aX c #F9FDFD",
"sX c #FDFDFD",
"dX c #FCFEFE",
"fX c #FDFEFE",
"gX c #FEFEFE",
"hX c white",
/* pixels */
"> > > > > > > > > > > > > > > > 5 y N J /  .@.:.>.>.:.@. .( K V u 6 > > > > > > > > > > > > > > > > ",
"> > > > > > > > > > > > > 6 c L %.3.t.u.u.u.u.u.u.u.u.u.u.u.u.t.4.&.W v 7 > > > > > > > > > > > > > ",
"> > > > > > > > > > > q U %.q.u.u.u.u.u.u.u.u.u.u.u.u.u.u.u.u.u.u.u.u.w.&.T w , > > > > > > > > > > ",
"> > > > > > > > > 8 Y ,.a.u.u.u.u.u.u.u.u.u.u.u.u.u.u.u.u.u.u.u.u.u.u.u.u.a.<.R 0 > > > > > > > > > ",
"> > > > > > > 1 v %.a.u.u.u.u.u.u.u.u.u.u.u.u.u.u.u.u.u.u.u.u.u.u.u.u.u.u.u.u.a.*.m 1 > > > > > > > ",
"> > > > > > 6 J 6.u.u.u.u.u.u.u.u.u.u.u.u.u.u.u.u.u.u.u.u.u.u.u.u.u.u.u.u.u.u.u.u.8.E 7 > > > > > > ",
"> > > > > 0 ' a.u.u.u.u.u.u.u.u.u.u.u.u.u.u.u.u.u.u.u.u.u.u.u.u.u.u.u.u.u.u.u.u.u.u.a.} q > > > > > ",
"> > > > 0 | f.u.u.u.u.u.u.u.u.u.u.u.u.u.u.u.u.u.u.u.u.u.u.u.u.u.u.u.u.u.u.u.u.u.u.u.u.d.$.w > > > > ",
"> > > 7 [ d.u.u.u.u.u.u.u.u.u.u.u.u.u.u.u.u.u.u.u.u.u.u.u.u.u.u.u.u.u.u.u.u.u.u.u.u.u.u.d. .9 > > > ",
"> > 1 E x.u.u.u.u.u.u.u.u.u.u.u.u.u.u.u.u.u.u.u.u.u.u.u.u.u.u.u.u.u.u.u.u.u.u.u.u.u.u.u.u.c.~ 2 > > ",
"> > m s.u.u.u.u.u.u.u.u.u.u.u.u.u.u.u.u.u.u.u.u.u.u.u.u.u.u.u.u.u.u.u.u.u.u.u.u.u.u.u.u.u.u.i.V > > ",
"> 7 @.c.u.u.u.u.u.u.u.u.u.u.u.u.u.u.u.u.u.u.u.u.u.u.u.u.u.u.u.u.u.u.u.u.u.u.u.u.u.u.u.u.u.u.d.:.0 > ",
"> A x.u.u.u.u.r.A.~.(.E.g : : : ; h /.(.R.j.u.u.u.u.u.u.h.S.J.H.z j k k k l Z.J.G.n.u.u.u.u.u.c.H > ",
"5 +.c.u.u.u.u.=.U.8XtX;X# . . . X - eXtX@Xj.u.u.u.u.u.u.l.+X4X3X* + + + + $ *X4X1XP.=.u.u.u.u.d.-.7 ",
"s 9.u.u.u.u.u.u.m.#XhXsX].& O @ = -XhXuX{.=.u.u.u.u.u.u.=. XfXhX%X% o   O `.pXhX,XA.u.u.u.u.u.u.p.v ",
"G v.u.u.u.u.u.u.e.T.<XfXgX6X=X-XwXhXrXOXB.u.u.u.u.u.u.u.y.F.>XfXgX5X[.'.&XiXhX9X).e.u.u.u.u.u.u.N.K ",
"( N.u.u.u.u.u.u.u.u.L.XX2XqXyXrX0X:X_.M.u.u.u.u.u.u.u.u.u.y.K.oX7XaXhXhXdXqX$X!.j.u.u.u.u.u.u.u.N.[ ",
"..N.u.u.u.u.u.u.u.u.u.k.D.W.).^.Y.V.u.u.u.u.u.u.u.u.u.u.u.u.u.z.I._.|..X}.Q.C.u.u.u.u.u.u.u.u.u.b.@.",
"+.N.u.u.u.u.u.u.u.u.u.u.u.u.u.u.u.u.u.u.u.u.u.u.u.u.u.u.u.u.u.u.u.u.u.u.u.u.u.u.u.u.u.u.u.u.u.u.c.;.",
"-.c.u.u.u.u.u.u.u.u.u.u.u.u.u.u.u.u.u.u.u.u.u.u.u.u.u.u.u.u.u.u.u.u.u.u.u.u.u.u.u.u.u.u.u.u.u.u.d.1.",
"1.d.u.u.u.u.u.u.u.u.u.u.u.t.u.u.u.u.u.u.u.u.u.u.u.u.u.u.u.u.u.u.u.u.u.t.0.u.u.u.u.u.u.u.u.u.u.u.f.>.",
"O.v.u.u.u.u.u.u.5.8.:.7.8.E C J 3.#.[ +.>.r.t.0.u.t.0.5.3.>.+.2.9.E Z B [ :.J G ;.w.5.t.u.u.u.u.g.! ",
"f o.7.5.3.-.' T s b @.-.] | p , S ..0 6 q K :.S  .O.b i t 0 f @.#.C , V { y , n $.M a I W ` | ' U 7 ",
"> 3 r p t 9 1 > > , ( @.7 N  .q 2 ` D > > 1 K W r X.v > > 2 _ D d ..f X.y > f $.f > > > > 1 2 < > > ",
"> > > > > > > > > 6 X.;.v , J W , d ..7 > > 9 X.r M [ 2 > m [ 5 1 [  .W , q  .b > > > > > > > > > > ",
"> > > > > > > > > f [ F E > 9  .e 1 _ m > > > ( b 3 ..p , ) m > > ( 3.C > L P , > > > > > > > > > > ",
"> > > > > > > > > F J p ) , > ! B > A W > > > / b > ! B q  .7 > 2 ` ..S q  .q > > > > > > > > > > > ",
"> > > > > > > > > W n w ) 1 > H F > p [ 1 > 8 [ q > K Z f ~ > > f ^ v / D E > > > > > > > > > > > > ",
"> > > > > > > > , ^ y y ~ , > J C > 9 [ 6 < F G , > E m M J > 9 ( s 1 J >.M > > > > > > > > > > > > ",
"> > > > > > > > < ^ q B G > , ! a > 6 ) 9 B L 6 > 2 ( e M G 5 L N , > 6 O.G 1 > > > > > > > > > > > ",
"> > > > > > > > , ! e W y > t ! 2 > 4 ` J G 4 > > a Q < x E H B < > > > ~ ) A 6 > > > > > > > > > > ",
"> > > > > > > > > P J F , 1 K x > > y +.M 1 > > 1 K f > t #.m , > > > > J b v H w > > > > > > > > > ",
"> > > > > > > > > L ` 8 > v G 1 > t [ J > > > > f J 1 1 F | 6 > > > > > N A > r H y > > > > > > > > ",
"> > > > > > > > 9 [ B > w K 8 > y G Q s > > > 5 K w > b V J w > > > > > e K , > 9 G r > > > > > > > ",
"> > > > > > > 4 D F C 2 F t > 8 G y H 2 > > > M m > 8 G 5 N f > > > > > 1 K 0 > > q G 3 > > > > > > ",
"> > > > > > 3 A p 9 D M v > > m x v b > > > 9 G 3 > v b > p M > > > > > > M b > > > V p > > > > > > ",
"> > > > > < M f > 1 E F 2 > > C e S 7 > > > m f > > C w > 0 V > > > > > > q D , > > x x > > > > > > ",
"> > > > > s b , > > K a > > > m M M > > > 1 C 5 > > C 7 > 6 N > > > > > > 1 D 7 > , M r > > > > > > ",
"> > > > 6 V 3 > > 1 ~ t > > > 9 Q d > > > 9 M > > > N 9 > 5 m > > > > > > > M y , p v , > > > > > > ",
"> > > > d p > > > 6 Q y > > > > V C w , > 0 b > > > f y > 9 x > > > > > > > a N i a 1 > > > > > > > ",
"> > > > m 4 > > > 5 J y > > > > x t p a q 8 v > > > 7 v , y r > > > > > , 9 M F 7 > > > > > > > > > ",
"> > > , b 1 > > > , G y > > > > r y > 2 w y C 6 > > > p t s 2 > > > , 9 t w a f > > > > > > > > > > ",
"> > > > x 2 > > > > b a > > > > 2 s 1 > > , t M 7 > > 1 N p > > > 1 w q 1 > a r > > > > > > > > > > ",
"> > > > a 9 > > > > a f 6 > > > > 0 r , > > > y v 4 > 9 w t 0 , > q 7 > > , f 2 > > > > > > > > > > ",
"> > > > 8 y > > > 2 e 3 e 6 > > > > 9 q 1 > > , e f 0 7 > , 0 q 0 0 > > > q t > > > > > > > > > > > ",
"> > > > > r 7 > > 9 6 > 1 9 8 1 > > > 5 9 6 < , 2 p t 6 , > > 1 r q 5 1 6 y 1 > > > > > > > > > > > ",
"> > > > > 1 e 5 2 8 > > > > 2 6 5 2 < > > 2 5 5 1 7 3 3 5 2 1 , 6 3 1 8 t 6 , > > > > > > > > > > > ",
"> > > > > > 1 q q 1 > > > > > > > , , , > > > > , 6 , > > > , , 1 5 6 0 1 > > > > > > > > > > > > > ",
"> > > > > > > 2 4 4 2 , > > > > > > > > > > > > 1 1 > > > > > > 1 7 6 , > > > > > > > > > > > > > > ",
"> > > > > > > > > , 2 2 1 , > > > > > > > > > > , > > > > > , 1 1 , > > > > > > > > > > > > > > > > "
};
