/* XPM */
static char *result[] = {
/* columns rows colors chars-per-pixel */
"50 50 240 2 ",
"   c #1F0E0C",
".  c #1E100F",
"X  c #221310",
"o  c #251310",
"O  c #422826",
"+  c #4D2924",
"@  c #5B312A",
"#  c #6D3B34",
"$  c #744039",
"%  c #774038",
"&  c #88493F",
"*  c #EA563F",
"=  c #EF543D",
"-  c #EF553D",
";  c #ED553F",
":  c #F75137",
">  c #FA5035",
",  c #F3533B",
"<  c #F55239",
"1  c #F55339",
"2  c #F3543B",
"3  c #F0543C",
"4  c #F0543D",
"5  c #F1553D",
"6  c #F0563F",
"7  c #AE5B4E",
"8  c #B85C4F",
"9  c #BC6153",
"0  c #9E6F78",
"q  c #95707E",
"w  c #96717E",
"e  c #9C707A",
"r  c #98707C",
"t  c #AB6B6E",
"y  c #AE6B6D",
"u  c #AE6B6E",
"i  c #AB6C6F",
"p  c #BF6760",
"a  c #BD6762",
"s  c #BB6863",
"d  c #BD6862",
"f  c #BD6863",
"g  c #B86965",
"h  c #BB6864",
"j  c #B26A69",
"k  c #B36A69",
"l  c #B16A6B",
"z  c #B56968",
"x  c #B16A6C",
"c  c #B16B6C",
"v  c #A56D73",
"b  c #A66D73",
"n  c #A36E74",
"m  c #A36E75",
"M  c #A16E76",
"N  c #A16F77",
"B  c #A96C70",
"V  c #A86C71",
"C  c #A96C71",
"Z  c #CA5A4A",
"A  c #DF5945",
"S  c #D15A48",
"D  c #D95D4D",
"F  c #D85E4F",
"G  c #DC5C4C",
"H  c #D45F51",
"J  c #D55F51",
"K  c #E85640",
"L  c #EB5741",
"P  c #E65944",
"I  c #E45946",
"U  c #E45A46",
"Y  c #E85842",
"T  c #ED5841",
"R  c #EC5A43",
"E  c #EA5A44",
"W  c #EA5B45",
"Q  c #E95D47",
"!  c #E15A48",
"~  c #E25A48",
"^  c #E85E49",
"/  c #CC6356",
"(  c #CD6257",
")  c #C2665E",
"_  c #C5655C",
"`  c #C6655C",
"'  c #CA6359",
"]  c #C8645A",
"[  c #C86B5C",
"{  c #D16053",
"}  c #D26052",
"|  c #D26053",
" . c #D06154",
".. c #E6604C",
"X. c #E7604C",
"o. c #E46552",
"O. c #E36754",
"+. c #E16B59",
"@. c #C06760",
"#. c #DF7262",
"$. c #DF7565",
"%. c #D57869",
"&. c #DF796A",
"*. c #D97C6D",
"=. c #DA7D6E",
"-. c #E07060",
";. c #E07160",
":. c #E07D6F",
">. c #E18275",
",. c #E08779",
"<. c #E2887B",
"1. c #E2897C",
"2. c #E3897C",
"3. c #E38C7F",
"4. c #377ABF",
"5. c #3F7ABA",
"6. c #3A7ABD",
"7. c #3A7ABE",
"8. c #3C7ABC",
"9. c #3D7ABC",
"0. c #7E758F",
"q. c #6C779B",
"w. c #6A779C",
"e. c #6A779D",
"r. c #67789F",
"t. c #6A789D",
"y. c #68789F",
"u. c #777693",
"i. c #727797",
"p. c #757695",
"a. c #7A7691",
"s. c #787593",
"d. c #7A7692",
"f. c #7E7590",
"g. c #787694",
"h. c #707798",
"j. c #707699",
"k. c #707799",
"l. c #5E79A5",
"z. c #5C79A6",
"x. c #5779AA",
"c. c #517AAD",
"v. c #5179AE",
"b. c #5479AC",
"n. c #547AAC",
"m. c #5979A8",
"M. c #5979A9",
"N. c #437AB7",
"B. c #457AB5",
"V. c #457AB6",
"C. c #4B7AB2",
"Z. c #4E7AB0",
"A. c #487AB4",
"S. c #437AB8",
"D. c #437BB8",
"F. c #6278A2",
"G. c #6478A0",
"H. c #6578A1",
"J. c #1E6ECE",
"K. c #1E6FCE",
"L. c #1F6FCE",
"P. c #1F70CE",
"I. c #1F71CE",
"U. c #1F72CE",
"Y. c #2B7AC7",
"T. c #2E7AC5",
"R. c #2E7AC6",
"E. c #2073CD",
"W. c #2072CE",
"Q. c #2073CE",
"!. c #2074CD",
"~. c #2174CD",
"^. c #2175CD",
"/. c #2176CD",
"(. c #2277CD",
"). c #267ACB",
"_. c #2278CD",
"`. c #2279CD",
"'. c #2379CD",
"]. c #237ACD",
"[. c #237BCD",
"{. c #247CCD",
"}. c #247DCD",
"|. c #247ECC",
" X c #257FCC",
".X c #287AC9",
"XX c #297AC9",
"oX c #297BC9",
"OX c #347AC1",
"+X c #377AC0",
"@X c #317AC4",
"#X c #8E7283",
"$X c #8A7386",
"%X c #8B7386",
"&X c #8E7384",
"*X c #83748B",
"=X c #85748A",
"-X c #86748A",
";X c #80748D",
":X c #83748C",
">X c #83758C",
",X c #887388",
"<X c #887488",
"1X c #937180",
"2X c #907282",
"3X c #917282",
"4X c #2785CC",
"5X c #2A8BCB",
"6X c #2A8CCB",
"7X c #E38E82",
"8X c #E49082",
"9X c #E6958A",
"0X c #E7968A",
"qX c #E89588",
"wX c #E8998D",
"eX c #E9998D",
"rX c #EB9A8D",
"tX c #ED9F93",
"yX c #EBA095",
"uX c #ECA196",
"iX c #EDA69B",
"pX c #EEA69B",
"aX c #EFA99F",
"sX c #F0A99F",
"dX c #F3ABA0",
"fX c #F3AFA4",
"gX c #F6B4A9",
"hX c #F6B4AA",
"jX c #F8B4A9",
"kX c #F8B5AA",
"lX c #F8B5AB",
"zX c #F9B5AB",
"xX c #F8B7AD",
"cX c #F9B8AD",
"vX c #FAB9AE",
"bX c #FBBBB1",
"nX c #FCBBB0",
"mX c #FCBBB1",
"MX c #FDBDB3",
"NX c #FDBEB4",
/* pixels */
"J.J.J.J.J.J.J.J.J.J.J.J.J.J.J.J.W.).n.d.e k _ { J J { ] z 0 f.M.oXQ.J.J.J.J.J.J.J.J.J.J.J.J.J.J.J.J.",
"J.J.J.J.J.J.J.J.J.J.J.J.J.Q.5.>Xf U : > > > > > > > > > > > > : P p <XD.!.J.J.J.J.J.J.J.J.J.J.J.J.J.",
"J.J.J.J.J.J.J.J.J.J.J.(.t.d ; > > > > > > > > > > > > > > > > > > > > - ) i._.K.J.J.J.J.J.J.J.J.J.J.",
"J.J.J.J.J.J.J.J.J.~.q.( : > > > > > > > > > > > > > > > > > > > > > > > > : | g./.J.J.J.J.J.J.J.J.J.",
"J.J.J.J.J.J.J.P.B.f < > > > > > > > > > > > > > > > > > > > > > > > > > > > > : _ Z.P.J.J.J.J.J.J.J.",
"J.J.J.J.J.J.Q.0.Y > > > > > > > > > > > > > > > > > > > > > > > > > > > > > > > > L ,X!.J.J.J.J.J.J.",
"J.J.J.J.J./.m < > > > > > > > > > > > > > > > > > > > > > > > > > > > > > > > > > > : u (.J.J.J.J.J.",
"J.J.J.J./.l : > > > > > > > > > > > > > > > > > > > > > > > > > > > > > > > > > > > > > h _.J.J.J.J.",
"J.J.J.!.t > > > > > > > > > > > > > > > > > > > > > > > > > > > > > > > > > > > > > > > > z ^.J.J.J.",
"J.J.P.$X: > > > > > > > > > > > > > > > > > > > > > > > > > > > > > > > > > > > > > > > > : w I.J.J.",
"J.J.Z.; > > > > > > > > > > > > > > > > > > > > > > > > > > > > > > > > > > > > > > > > > > , z.J.J.",
"J.!._ > > > > > > > > > > > > > > > > > > > > > > > > > > > > > > > > > > > > > > > > > > > > { /.J.",
"J.G.: > > > > > 1 ^ ..E S Z Z Z Z A ....W > > > > > > > > 2 5 5 3 K K K K * 1 5 5 > > > > > > : s.J.",
"W.p > > > > > > T pXkXeX# . . . X 9 gXkX>.> > > > > > > > :.uXyX8 O O O O $ <.uX0X6 > > > > > > ( !.",
"OX= > > > > > > : 1.NXnX*.& + @ 7 rXNXxXO.> > > > > > > > ;.mXNX,.% o   + [ vXNX9X1 > > > > > > < N.",
"i.> > > > > > > > R 0XmXMXdXqXrXjXNXhX&.: > > > > > > > > 2 7XmXMXtX=.%.8XzXNXaXX.> > > > > > > : ;X",
"0 : > > > > > > > > 5 $.wXfXlXhXsX3.o.: > > > > > > > > > > 5 &.iXcXNXNXbXfX2.^ > > > > > > > > : i ",
"g : > > > > > > > > > > 2 W X.^ T : > > > > > > > > > > > > > > T o.-.#.+.Q : > > > > > > > > > : _ ",
") : > > > > > > > > > > > > > > > > > > > > > > > > > > > > > > > > > > > > > > > > > > > > > > >  .",
"( > > > > > > > > > > > > > > > > > > > > > > > > > > > > > > > > > > > > > > > > > > > > > > > > D ",
"G > > > > > > > > > > > > : > > > > > > > > > > > > > > > > > > > > > : < > > > > > > > > > > > > J ",
"a > > > > > > > L L H ! L ,XF.0.I ] t p F < : , > : , L I J p ~ 4 $XF.m.t H d.p. .4 Y : > > > > < 2X",
"7.c ~ Y I / m k.OXA._ ( &Xx Y.K.e.g /.Q.(.0.} y.z @.A.OX]./.8.` ' F.K.m.y XXK.C.s b.@XF.%XC x N G.!.",
"J.U.'.R.].^.P.J.J.K.0 ] !.x.z (.I.C q.J.J.P.;X#X'.h S.J.J.I.b q.+Xg 6.s XXJ.9.s 6.J.J.J.J.P.I.L.J.J.",
"J.J.J.J.J.J.J.J.J.Q.s  .N.K.0.%XK.4.g !.J.J.^.s '.c.y I.J.Z.t W.P.y z %XK.(.z A.J.J.J.J.J.J.J.J.J.J.",
"J.J.J.J.J.J.J.J.J.7.t j.$XJ.^.z `.P.b Z.J.J.J.M C.U.g T.K.n Z.J.J.0 I l.J.:X-XK.J.J.J.J.J.J.J.J.J.J.",
"J.J.J.J.J.J.J.J.J.j.d.Y.m K.J.1Xm.J.H.#XJ.J.J.e A.J.1Xm.(.k !.J.I.B g y.(.j (.J.J.J.J.J.J.J.J.J.J.J.",
"J.J.J.J.J.J.J.J.J.#XC._.m P.J.s.h.J.Y.t P.J.~.i (.J.;XF.9.w J.J.9.r N.e q.%XJ.J.J.J.J.J.J.J.J.J.J.J.",
"J.J.J.J.J.J.J.J.K.r .X).w K.J.d.F.J.^.i Q.L.j.i.K.J.,XZ.b.a.J.^.0 OXP.a.J c.J.J.J.J.J.J.J.J.J.J.J.J.",
"J.J.J.J.J.J.J.J.L.r (.m.i.J.K.1X@XJ.Q.n ^.m.*XQ.J.I.0 `.b.i.W.*Xx.K.J.Q.@.i.P.J.J.J.J.J.J.J.J.J.J.J.",
"J.J.J.J.J.J.J.J.K.1X`.#XXXJ.].3XI.J.E.V d.i.E.J.J.@X3XL.5.%Xp.m.L.J.J.J.q m G.Q.J.J.J.J.J.J.J.J.J.J.",
"J.J.J.J.J.J.J.J.J.=Xd.h.K.P.0.5.J.J..X) b.P.J.J.P.;X6.J.].] Z.K.J.J.J.J.0.C.N.u._.J.J.J.J.J.J.J.J.J.",
"J.J.J.J.J.J.J.J.J.:Xv ~.J.N.i.P.J.).y 0.J.J.J.J.6.d.P.P.j.l Q.J.J.J.J.J.x.r.J.'.6X[.J.J.J.J.J.J.J.J.",
"J.J.J.J.J.J.J.J.^.t m.J._.;X~.J..Xi.3XOXJ.J.J.W.;X_.J.C.z.d._.J.J.J.J.J.`.;XK.J.^.5X'.J.J.J.J.J.J.J.",
"J.J.J.J.J.J.J.E.q.j.l.I.h.].J.~.p.).u.I.J.J.J.b.Z.J.~.p.W.x.9.J.J.J.J.J.P.;X/.J.J.(.i.U.J.J.J.J.J.J.",
"J.J.J.J.J.J.U.G.T.^.q.v.V.J.J.Z.5.B.A.J.J.J.^.i.U.J.B.A.J.T.n.J.J.J.J.J.J.n.A.J.J.J.z.T.J.J.J.J.J.J.",
"J.J.J.J.J.L.b.7.J.P.,Xh.I.J.J.F.`.w.!.J.J.J.Z.7.J.J.F._.J./.z.J.J.J.J.J.J.(.q.K.J.J.5.5.J.J.J.J.J.J.",
"J.J.J.J.J.OXC.K.J.J.;X@XJ.J.J.Z.n.n.J.J.J.P.F.W.J.J.l.!.J.Q.x.J.J.J.J.J.J.P.q.!.J.K.n.'.J.J.J.J.J.J.",
"J.J.J.J.Q.m.U.J.J.P.w ].J.J.J.^.3X4.J.J.J.^.n.J.J.J.x.^.J.W.Z.J.J.J.J.J.J.J.b..XK.T.B.K.J.J.J.J.J.J.",
"J.J.J.J.+XT.J.J.J.Q.3XXXJ.J.J.J.z.F._.K.J./.A.J.J.J.7..XJ.^.5.J.J.J.J.J.J.J.@Xx.OX@XP.J.J.J.J.J.J.J.",
"J.J.J.J.Z.E.J.J.J.W.a.XXJ.J.J.J.5.].{.}.(.~.V.J.J.J.!.S.K.[.'.J.J.J.J.J.K.^.c.j.!.J.J.J.J.J.J.J.J.J.",
"J.J.J.K.A.P.J.J.J.K.i.XXJ.J.J.J.'.[.J.I._.XXl.Q.J.J.J.T.].|.I.J.J.J.K.^.]._.@X7.J.J.J.J.J.J.J.J.J.J.",
"J.J.J.J.5.I.J.J.J.J.A.@XJ.J.J.J.I.|.P.J.J.K.).b.!.J.J.P.4X{.J.J.J.P._.(.P.J.T.'.J.J.J.J.J.J.J.J.J.J.",
"J.J.J.J.@X^.J.J.J.J.T.6.Q.J.J.J.J./.'.K.J.J.J..XS.E.J.^._.]./.K.J.(.!.J.J.K.8.I.J.J.J.J.J.J.J.J.J.J.",
"J.J.J.J.~.[.J.J.J.I.`.U.`.Q.J.J.J.J.^.(.P.J.J.K.`. X/.!.J.K./.(././.J.J.J.(.].J.J.J.J.J.J.J.J.J.J.J.",
"J.J.J.J.J.'.!.J.J.^.Q.J.P.^.~.P.J.J.J.W.^.Q.L.K.I.{.].Q.K.J.J.P.'.(.W.P.Q.[.P.J.J.J.J.J.J.J.J.J.J.J.",
"J.J.J.J.J.P.`.W.I.~.J.J.J.J.I.Q.W.I.L.J.J.I.W.W.P.!.U.U.W.I.P.K.Q.U.P.~.].Q.K.J.J.J.J.J.J.J.J.J.J.J.",
"J.J.J.J.J.J.P.(.(.P.J.J.J.J.J.J.J.K.K.K.J.J.J.J.K.Q.K.J.J.J.K.K.P.W.Q./.P.J.J.J.J.J.J.J.J.J.J.J.J.J.",
"J.J.J.J.J.J.J.I.E.E.I.K.J.J.J.J.J.J.J.J.J.J.J.J.P.P.J.J.J.J.J.J.P.!.Q.K.J.J.J.J.J.J.J.J.J.J.J.J.J.J.",
"J.J.J.J.J.J.J.J.J.K.I.I.P.K.J.J.J.J.J.J.J.J.J.J.K.J.J.J.J.J.K.P.P.K.J.J.J.J.J.J.J.J.J.J.J.J.J.J.J.J."
};
