/* XPM */
static char *dummy[]={
"50 50 237 2",
"bN c #1f8d80",
"Qt c #1f8d80",
"bM c #16877a",
".k c #16877a",
"bG c #16877a",
".f c #16877a",
"bQ c #188a7c",
".e c #188a7d",
"bO c #188a7c",
".# c #188a7d",
"bF c #2d9286",
"bB c #2c9286",
".l c #2d9286",
"bP c #208d80",
".a c #228e81",
"#b c #0e8274",
"az c #0e8275",
"bd c #108375",
"ai c #118376",
"#L c #118476",
"#6 c #128477",
"#5 c #128577",
"#l c #138577",
".u c #138578",
"#f c #148578",
"#P c #148678",
".X c #158678",
"aV c #158679",
"am c #168678",
".A c #168679",
"bz c #168779",
"aD c #178779",
".0 c #17877a",
"#Y c #18877a",
"a2 c #18887a",
"ad c #19887a",
"#T c #19887b",
"#s c #1a887b",
"aQ c #1a897b",
"#U c #1a897c",
".H c #1b897c",
".G c #1c897c",
".I c #1c8a7c",
".v c #1c8a7d",
".B c #1d8a7d",
"bx c #1e8a7d",
"#3 c #1e8b7e",
"#e c #1f8b7e",
".N c #208b7e",
".L c #208b7f",
".M c #208c7f",
".O c #218c7f",
".J c #228d80",
".o c #238d80",
".q c #238d81",
".K c #248d81",
".p c #248e81",
"aO c #258e81",
".c c #258e82",
".d c #268e82",
".b c #268f82",
"aW c #278f83",
"ae c #289083",
"#K c #299084",
"an c #2a9084",
".U c #2a9184",
"a9 c #2a9185",
"ah c #2c9285",
".n c #2d9286",
"bD c #2e9387",
"aE c #2f9387",
"#H c #309488",
"#t c #319488",
"#Z c #319489",
"bb c #329589",
"aH c #33958a",
"bi c #35968a",
"#Q c #35968b",
"aC c #35978b",
"#C c #37978c",
"#r c #38988c",
"#2 c #39988d",
"aT c #3a998e",
"#p c #3c9a8f",
"bp c #3e9b90",
"#G c #3f9b90",
"#q c #3f9c91",
"#F c #409c91",
"#w c #419c91",
"aS c #429d92",
"a1 c #449e93",
"aX c #459f94",
"ac c #47a095",
".Z c #48a096",
"bv c #4ca298",
".x c #4ea49a",
".s c #4fa49a",
"#X c #50a49a",
"bg c #52a59b",
"ag c #52a69c",
"#o c #53a69c",
"bL c #53ada2",
"aG c #54a69c",
"bH c #54ada3",
".g c #54aea3",
".D c #55a79d",
".F c #56a79e",
".y c #56a89e",
"#D c #57a89e",
"#z c #57a89f",
".z c #57a99f",
"aq c #58a89f",
".E c #58a99f",
".C c #5aaaa0",
"aJ c #5baaa0",
"a4 c #5caaa1",
"bf c #5eaca3",
"aP c #5faca3",
"by c #61ada4",
".t c #63aea5",
"bA c #64aea6",
".3 c #64afa6",
".w c #65afa6",
"aU c #66b0a7",
"aM c #68b1a8",
"aL c #68b1a9",
"aN c #69b1a8",
"aR c #69b1a9",
"#c c #6ab2a9",
"aY c #6fb5ac",
"bs c #71b6ad",
"#B c #73b7af",
"aK c #75b7af",
"#h c #75b8b0",
".1 c #78b9b1",
"be c #79b9b2",
"bm c #7abab2",
"aj c #7cbbb3",
"ax c #7ebcb5",
"a# c #7fbcb5",
"aa c #81beb6",
"ab c #82beb7",
".6 c #83bfb7",
"aA c #84bfb8",
"bt c #88c1ba",
"#A c #8cc3bd",
"#M c #8cc4bd",
"a. c #8ec4be",
"#g c #8fc4be",
".r c #90c6c0",
"bJ c #91c6c0",
"bE c #91c7c0",
".i c #92c6c0",
"bK c #92c7c0",
".m c #92c7c1",
".j c #93c7c1",
"bC c #93c8c2",
"#k c #95c8c2",
"bI c #96c9c3",
".h c #97c9c3",
"bo c #9cccc6",
"aZ c #a0cec8",
"#W c #a1cec9",
"#7 c #a2cfc9",
"bw c #a3cfca",
"aw c #a5d0cb",
"br c #a5d1cb",
"ba c #a6d1cc",
".4 c #a9d2cd",
".P c #add5d0",
"#a c #aed5d0",
"au c #afd5d1",
"av c #b0d6d1",
".T c #b0d6d2",
"a3 c #b1d6d2",
"bc c #b2d7d2",
"ay c #b6d9d5",
"at c #b8dad6",
"al c #bbdcd8",
".Y c #bdddd9",
"aB c #beddda",
"a5 c #bfdeda",
".V c #c0deda",
"bl c #c0dedb",
"#i c #c1dfdb",
"bn c #c5e1de",
"#x c #c6e1de",
"a0 c #c8e2df",
"#d c #c8e3e0",
"b. c #c9e3e0",
"## c #cae3e0",
"#N c #cae4e1",
"#4 c #cce5e2",
"ar c #cde5e3",
"#V c #cee6e3",
"#m c #cfe6e3",
"#I c #cfe6e4",
".7 c #d0e7e4",
"#8 c #d4e9e6",
"#S c #d4e9e7",
".W c #d5e9e7",
".2 c #d6eae7",
".Q c #d6eae8",
".5 c #d7eae8",
"af c #d8eae8",
".R c #d8ebe9",
".S c #d9ebe9",
"b# c #dbecea",
"#E c #dbeceb",
"bj c #deeeec",
"ao c #dfeeec",
"bk c #e3f0ef",
"bu c #e3f1ef",
"ak c #e4f1ef",
"aF c #e4f1f0",
"a8 c #e5f1f0",
"#0 c #e5f2f0",
"a6 c #e6f2f0",
"#u c #e9f4f2",
"aI c #ecf5f4",
"bh c #f2f8f7",
"#J c #f4faf9",
"#v c #f5faf9",
"bq c #f6fafa",
"#n c #f7fbfa",
"#R c #f8fbfb",
"#1 c #f8fcfb",
"ap c #f9fcfb",
"#. c #f9fcfc",
"#9 c #fafcfc",
".9 c #fafdfc",
"#j c #fbfdfc",
"#O c #fbfdfd",
"as c #fcfdfd",
"#y c #fdfefe",
"a7 c #fefefe",
".8 c #ffffff",
"Qt.#.a.b.c.d.d.d.d.d.d.d.d.d.d.d.d.d.d.d.d.d.d.d.d.d.d.d.d.d.d.d.d.d.d.d.d.d.d.d.d.d.d.d.d.d.b.a.eQt",
".f.g.h.i.j.j.j.j.j.j.j.j.j.j.j.j.j.j.j.j.j.j.j.j.j.j.j.j.j.j.j.j.j.j.j.j.j.j.j.j.j.j.j.j.j.j.i.h.g.k",
".l.m.n.o.p.p.p.p.p.p.p.p.p.p.p.p.p.p.p.p.p.p.p.p.p.p.p.p.p.p.p.p.p.p.p.p.p.p.p.p.p.p.p.p.p.p.q.n.r.l",
".s.t.u.v.v.v.v.v.v.v.v.v.v.v.v.v.v.v.v.v.v.v.v.v.v.v.v.v.v.v.v.v.v.v.v.v.v.v.v.v.v.v.v.v.v.v.v.u.w.x",
".y.z.A.B.B.B.B.B.B.B.B.B.B.B.B.B.B.B.B.B.B.B.B.B.B.B.B.B.B.B.B.B.B.B.B.B.B.B.B.B.B.B.B.B.B.B.B.A.C.D",
".y.E.A.B.B.B.B.B.B.B.B.B.B.B.B.B.B.B.B.B.B.B.B.B.B.B.B.B.B.B.B.B.B.B.B.B.B.B.B.B.B.B.B.B.B.B.B.A.C.D",
".F.E.A.B.B.B.B.B.B.B.B.B.B.B.B.B.B.B.B.B.B.B.B.B.B.B.B.B.B.B.B.B.B.B.B.B.B.B.B.B.B.B.B.B.B.B.B.A.C.D",
".F.E.A.B.B.B.B.B.B.B.B.B.B.B.B.B.B.B.B.B.B.B.B.B.B.B.B.B.B.B.B.B.B.B.B.B.B.B.B.B.B.B.B.B.B.B.B.A.C.D",
".y.E.A.B.B.B.B.B.G.H.H.H.H.H.G.B.B.B.H.H.B.B.B.G.H.v.B.B.I.H.v.B.B.G.H.H.H.H.H.H.G.B.B.B.B.B.B.A.C.D",
".F.E.A.B.B.B.B.B.J.K.K.K.K.K.J.B.B.L.b.q.G.B.H.M.p.J.B.B.M.K.N.B.B.J.p.K.K.K.K.p.O.B.B.B.B.B.B.A.C.D",
".F.E.A.B.B.B.B.B.P.Q.R.S.S.S.T.B.H.U.V.W.s.X.b.Y.W.Z.0.A.1.2.3.A.H.4.S.R.Q.5.S.S.6.X.B.B.B.B.B.A.C.D",
".y.E.A.B.B.B.B.B.7.8.9#.#.#.##.B.B.A.j.8#a#b#c.8#d#e.G#f#g.8#h#f.H#i#.#j.8.8#.#.#k#l.B.B.B.B.B.A.C.D",
".F.E.A.B.B.B.B.B#m#n#o#p#q#q#r.B.B#s#t#u#v#w#x#y#z.A.B#f#A.8#B#f.B#C#p#D#.#E#F#G#H.G.B.B.B.B.B.A.C.D",
".F.E.A.B.B.B.B.B#I#J#K#b#L#L.A.B.B.B#f#M.8#N#O.Y.H.B.B#f#A.8#B#f.B#s#P#Q#R#S#T.0#U.B.B.B.B.B.B.A.C.D",
".F.E.A.B.B.B.B.B#V.9#W#k.h.h#X#Y.B.B#s#Z#0.8#1#o.A.B.B#f#A.8#B#f.B.B#T#2#R.W#3.v.B.B.B.B.B.B.B.A.C.D",
".F.E.A.B.B.B.B.B#4.8.8.8.8.8.6#5.B.B.B#6#7.8#8#e.v.B.B#f#A.8#B#f.B.B#T#2#R.W#3.v.B.B.B.B.B.B.B.A.C.D",
".F.E.A.B.B.B.B.B#V#9a.a#aaabacad.B.B.Haeaf.8#nag.A.B.B#f#A.8#B#f.B.B#T#2#R.W#3.v.B.B.B.B.B.B.B.A.C.D",
".F.E.A.B.B.B.B.B#I#vahai#f#f#T.B.B.B#laj.8ak.8al#s.B.B#f#A.8#B#f.B.B#T#2#R.W#3.v.B.B.B.B.B.B.B.A.C.D",
".y.E.A.B.B.B.B.B#m#v#Ham#T#T#T.B.B.Hanaoapaq.5#O.D.A.B#f#A.8#B#f.B.B#T#2#R.W#3.v.B.B.B.B.B.B.B.A.C.D",
".F.E.A.B.B.B.B.Barasatauav.Tawah.H#fax.8ayazaA.8aB#s.v#f#A.8#B#f.B.B#T#2#R.W#3.v.B.B.B.B.B.B.B.A.C.D",
".F.E.A.B.B.B.B.B.7.8.8.8.8.8#9aCaDaEaF#yaG#5aHaI.8aJ.A#fa..8aK#f.B.B#T#2as.R#3.v.B.B.B.B.B.B.B.A.C.D",
".F.E.A.B.B.B.B.BaqaLaMaMaNaL.taO#s#t#caP#e.vaQ#oaRac#s#saSaRaT#s.B.B.G.baU.C.B.B.B.B.B.B.B.B.B.A.C.D",
".F.E.A.B.B.B.B.BaD.X.X.X.X.X.A.v.B.H.X.A.v.B.BaD.X#T.B.B#T.X#s.B.B.B.B.IaVaD.B.B.B.B.B.B.B.B.B.A.C.D",
".F.E.A.B.B.B.B.B.B.B.B.B.B.B.B.B.B.B.B.B.B.B.B.B.B.B.B.B.B.B.B.B.B.B.B.B.B.B.B.B.B.B.B.B.B.B.B.A.C.D",
".F.E.A.B.B.B.B.B.B.B.B.B.B.B.B.B.B.B.B.B.B.B.B.B.B.B.B.B.B.B.B.B.B.B.B.B.B.B.B.B.B.B.B.B.B.B.B.A.C.D",
".y.E.A.B.B.B.B.B.B.B.B.B.B.B.B.B.B.B.B.B.B.B.B.B.B.B.B.B.B.B.I.B.B.B.B.B.B.B.B.B.B.B.B.B.B.B.B.A.C.D",
".F.E.A.B.B.B.B.B.B.B.B.B.B.B.B.B.B.B.B.B.B.B.B.B.B.B.H#YaVaD#3.B.B.B.B.B.B.B.B.B.B.B.B.B.B.B.B.A.C.D",
".F.E.A.B.B.B.B.B.B.B.B.B.B.B.B.B.B.B.B.B.B.v#TaD#f.0aWaXaYaZa0a1a2.B.B.B.B.B.B.B.B.B.B.B.B.B.B.A.C.D",
".y.E.A.B.B.B.B.B.B.B.B.B.B.B.B.B.B.B.B.B#T.G#taGaaa3.S#v.8.8.8a1#Y.B.B.B.B.B.B.B.B.B.B.B.B.B.B.A.C.D",
".F.E.A.B.B.B.B.B.B.B.B.B.B.B.B.B.B.B.B.0a4a5a6a7.8.8.8.8.8.8a8a9.H.B.B.B.B.B.B.B.B.B.B.B.B.B.B.A.C.D",
".F.E.A.B.B.B.B.B.B.B.B.B.B.B.B.B.B.B.B.A#c#O.8.8.8.8.8.8.8.8b..H.B.B.B.B.B.B.B.B.B.B.B.B.B.B.B.A.C.D",
".y.E.A.B.B.B.B.B.B.B.B.B.B.B.B.B.B.B.B.B#Y.Fb#.8.8.8.8.8.8.8ba.X.B.B.B.B.B.B.B.B.B.B.B.B.B.B.B.A.C.D",
".F.E.A.B.B.B.B.B.B.B.B.B.B.B.B.B.B.B.B.B.B.Xbbbca7.8.8.8.8.8aa#l.B.B.B.B.B.B.B.B.B.B.B.B.B.B.B.A.C.D",
".F.E.A.B.B.B.B.B.B.B.B.B.B.B.B.B.B.B.B.B.B.Bbdbe#y.8.8.8.8.8bfaV.B.B.B.B.B.B.B.B.B.B.B.B.B.B.B.A.C.D",
".F.E.A.B.B.B.B.B.B.B.B.B.B.B.B.B.B.B.B.B.B#Pbgbh.8.8.8.8.8#n#Fa2.B.B.B.B.B.B.B.B.B.B.B.B.B.B.B.A.C.D",
".F.E.A.B.B.B.B.B.B.B.B.B.B.B.B.B.B.B.B.B#Ybibj.8.8#1#v.8.8bk#K.H.B.B.B.B.B.B.B.B.B.B.B.B.B.B.B.A.C.D",
".F.E.A.B.B.B.B.B.B.B.B.B.B.B.B.B.B.B.B#U.Jbl.8.8.8bm.j.8.8bn.H.B.B.B.B.B.B.B.B.B.B.B.B.B.B.B.B.A.C.D",
".F.E.A.B.B.B.B.B.B.B.B.B.B.B.B.B.B.B.v.BaZ.8.8.8aw#faTbh.8bo#f.B.B.B.B.B.B.B.B.B.B.B.B.B.B.B.B.A.C.D",
".y.E.A.B.B.B.B.B.B.B.B.B.B.B.B.B.B.Badbpbq.8.8#x.daQ.Abr.8bs#f.B.B.B.B.B.B.B.B.B.B.B.B.B.B.B.B.A.C.D",
".F.E.A.B.B.B.B.B.B.B.B.B.B.B.B.B.B.B.Ba2bt.8buaT.0.B.0.Z#vbv.0.B.B.B.B.B.B.B.B.B.B.B.B.B.B.B.B.A.C.D",
".F.E.A.B.B.B.B.B.B.B.B.B.B.B.B.B.B.B.B.H.vbwbf.X.B.B.BbxbyaW.G.B.B.B.B.B.B.B.B.B.B.B.B.B.B.B.B.A.C.D",
".F.E.A.B.B.B.B.B.B.B.B.B.B.B.B.B.B.B.B.B.Hbx.H.B.B.B.B.Bbz.G.B.B.B.B.B.B.B.B.B.B.B.B.B.B.B.B.B.A.C.D",
".F.E.A.B.B.B.B.B.B.B.B.B.B.B.B.B.B.B.B.B.B.G.B.B.B.B.B.B.B.B.B.B.B.B.B.B.B.B.B.B.B.B.B.B.B.B.B.A.C.D",
".F.E.A.B.B.B.B.B.B.B.B.B.B.B.B.B.B.B.B.B.B.B.B.B.B.B.B.B.B.B.B.B.B.B.B.B.B.B.B.B.B.B.B.B.B.B.B.A.C.D",
".y.E.A.B.B.B.B.B.B.B.B.B.B.B.B.B.B.B.B.B.B.B.B.B.B.B.B.B.B.B.B.B.B.B.B.B.B.B.B.B.B.B.B.B.B.B.B.A.C.D",
".y.E.A.B.B.B.B.B.B.B.B.B.B.B.B.B.B.B.B.B.B.B.B.B.B.B.B.B.B.B.B.B.B.B.B.B.B.B.B.B.B.B.B.B.B.B.B.A.C.D",
".sbA#l.v.v.v.v.v.v.v.v.v.v.v.v.v.v.v.v.v.v.v.v.v.v.v.v.v.v.v.v.v.v.v.v.v.v.v.v.v.v.v.v.v.v.v.v.u.w.x",
"bBbCbD.o.p.p.p.p.p.p.p.p.p.p.p.p.p.p.p.p.p.p.p.p.p.p.p.p.p.p.p.p.p.p.p.p.p.p.p.p.p.p.p.p.p.p.obDbEbF",
"bGbHbIbJ.i.ibK.i.i.i.i.i.ibK.i.i.i.i.i.i.ibK.i.i.i.i.i.i.i.i.i.i.i.ibK.i.i.i.i.i.i.i.i.ibK.ibJbIbLbM",
"bNbObP.p.K.K.K.K.K.K.K.K.K.K.K.K.K.K.K.K.K.K.K.K.K.K.K.K.K.K.K.K.K.K.K.K.K.K.K.K.K.K.K.K.K.K.pbPbQbN"};
