/* XPM */
static char *result[] = {
/* columns rows colors chars-per-pixel */
"50 50 234 2 ",
"   c black",
".  c #0A0E16",
"X  c #050C35",
"o  c #1E2B33",
"O  c #0A134A",
"+  c #001068",
"@  c #082A69",
"#  c #35485A",
"$  c #775259",
"%  c #534C79",
"&  c #6C5669",
"*  c #775A67",
"=  c #695C77",
"-  c #725E72",
";  c #7A646A",
":  c #6C6579",
">  c #746878",
",  c #747778",
"<  c #B13F13",
"1  c #C43401",
"2  c #C53C00",
"3  c #CB3C01",
"4  c #D03E01",
"5  c #B8400E",
"6  c #AC4219",
"7  c #B74B17",
"8  c #BB521C",
"9  c #9B402C",
"0  c #9A4C36",
"q  c #9C553C",
"w  c #AA4E29",
"e  c #B65627",
"r  c #A45434",
"t  c #A95A39",
"y  c #B55B33",
"u  c #B86E2C",
"i  c #AD633B",
"p  c #B86636",
"a  c #CB4201",
"s  c #C74904",
"d  c #D14707",
"f  c #D44B01",
"g  c #DA4D01",
"h  c #CB540B",
"j  c #D45403",
"k  c #DC5302",
"l  c #DD5B03",
"z  c #D85D0C",
"x  c #C24C14",
"c  c #C45315",
"v  c #C95818",
"b  c #D45B15",
"n  c #E25301",
"m  c #E65404",
"M  c #E75507",
"N  c #E45C01",
"B  c #EB5B04",
"V  c #DA6407",
"C  c #D9671A",
"Z  c #CF7115",
"A  c #E36401",
"S  c #EC6304",
"D  c #E56B00",
"F  c #EB6C02",
"G  c #E4630C",
"H  c #EB650B",
"J  c #E56B0B",
"K  c #EC6B0B",
"L  c #F26405",
"P  c #F46A07",
"I  c #FB6C06",
"U  c #F16C09",
"Y  c #E47303",
"T  c #EB7301",
"R  c #EC7C01",
"E  c #E7760B",
"W  c #F37302",
"Q  c #F27B00",
"!  c #F3740B",
"~  c #FB7409",
"^  c #F9790A",
"/  c #FC7B0B",
"(  c #E56B15",
")  c #EB7615",
"_  c #F67915",
"`  c #C55B26",
"'  c #C76627",
"]  c #DA6C23",
"[  c #D87628",
"{  c #C97032",
"}  c #E97125",
"|  c #E97824",
" . c #F47A25",
".. c #E67B33",
"X. c #8C4C44",
"o. c #8C534B",
"O. c #975847",
"+. c #895958",
"@. c #925B53",
"#. c #A35D44",
"$. c #98634B",
"%. c #926A54",
"&. c #AA6746",
"*. c #B86F46",
"=. c #855D60",
"-. c #886F67",
";. c #7D8479",
":. c #BA8F3E",
">. c #D88618",
",. c #DD951D",
"<. c #EC8402",
"1. c #ED8909",
"2. c #F38300",
"3. c #F38B01",
"4. c #FD820E",
"5. c #FF8A0E",
"6. c #EF970B",
"7. c #EF940D",
"8. c #F39301",
"9. c #F89A07",
"0. c #F49D0D",
"q. c #E98A14",
"w. c #FB8412",
"e. c #FE8C11",
"r. c #F8881A",
"t. c #ED9312",
"y. c #EB9915",
"u. c #FF9413",
"i. c #FF9A15",
"p. c #FF951B",
"a. c #FF9B1A",
"s. c #FCA30A",
"d. c #F9A50B",
"f. c #F4A513",
"g. c #FFA216",
"h. c #FFA519",
"j. c #F5A919",
"k. c #FFAB19",
"l. c #FCB117",
"z. c #FFB31B",
"x. c #FFBA1E",
"c. c #CC9935",
"v. c #E6852B",
"b. c #F78727",
"n. c #FE9924",
"m. c #EB8938",
"M. c #FC8F37",
"N. c #FD9936",
"B. c #DCA32E",
"V. c #FFA324",
"C. c #FFAB26",
"Z. c #FFA32C",
"A. c #FFB42C",
"S. c #FFA33D",
"D. c #FFAA38",
"F. c #FFB736",
"G. c #FFC13E",
"H. c #96865E",
"J. c #BD9542",
"K. c #A58E56",
"L. c #AA9255",
"P. c #8D8467",
"I. c #D58F50",
"U. c #FA9743",
"Y. c #F09449",
"T. c #F59A52",
"R. c #FEAC4A",
"E. c #FCAC50",
"W. c #FEB559",
"Q. c #DA9E6B",
"!. c #FD906E",
"~. c #CEAD7C",
"^. c #FFC745",
"/. c #FFCD4A",
"(. c #FFD14D",
"). c #FFC059",
"_. c #132EA4",
"`. c #1D53A9",
"'. c #0B65B7",
"]. c #3A65AA",
"[. c #3A65AB",
"{. c #2B66BA",
"}. c #2C69BC",
"|. c #3366B3",
" X c #3369B5",
".X c #316CB9",
"XX c #3E71B0",
"oX c #4E5689",
"OX c #5A5C86",
"+X c #485A96",
"@X c #57618D",
"#X c #5A618B",
"$X c #5F6D8C",
"%X c #4D6196",
"&X c #4B649B",
"*X c #49679D",
"=X c #526393",
"-X c #596693",
";X c #537096",
":X c #626484",
">X c #6C7590",
",X c #4464A2",
"<X c #4468A5",
"1X c #4D75A6",
"2X c #6E7EA0",
"3X c #1E6ECE",
"4X c #256BC4",
"5X c #296BC1",
"6X c #216CC9",
"7X c #4870D4",
"8X c #877A99",
"9X c #738385",
"0X c #768AA5",
"qX c #6C91CC",
"wX c #7F9FE1",
"eX c #8E8C98",
"rX c #BDAF90",
"tX c #98A5AC",
"yX c #CFBA92",
"uX c #E2BCA0",
"iX c #BCC9A8",
"pX c #DBC198",
"aX c #D0D0AF",
"sX c #85A8D2",
"dX c #A5B0CB",
"fX c #B4C5CF",
"gX c #BCD2E3",
"hX c #D2DEC9",
"jX c #D0E4CE",
"kX c #E7F4DA",
"lX c #C8DBED",
"zX c #DEF0E1",
"xX c #E8F3E6",
"cX c #F9FDF8",
/* pixels */
"3X3X3X3X3X3X3X3X3X3X3X3X3X3X3X3X3X3X3X3X3X3X3X3X3X2XeX>X-X.X6X3X3X3X3X3X3X3X3X3X3X3X3X3X3X3X3X3X3X3X",
"3X3X3X3X3X3X3X3X3X3X3X3X3X3X4X}.3X3X3X3X3X3X3X}.tXfX'.'.@ oX5X3X3X3X3X3X3X3X3X3X3X3X3X3X3X3X3X3X3X3X",
"3X3X3X3X3X3X3X3X3X3X3X3X3X0X>X+XoX[.3X3X3X3X3X>XkXtXsXX   O 2X3X3X3X3X3X3X3X3X3X3X3X3X3X3X3X3X3X3X3X",
"3X3X3X3X3X3X3X3X3X3X3X3X0XtX'.@ X % 1X3X3X3X{.rXcXdXgXo   O 8X4X3X3X3X3X3X3X3X3X3X3X3X3X3X3X3X3X3X3X",
"3X3X3X3X3X3X3X3X3X3X3X1XaXqXqX.   O 8X|.6X3XOXuXcXzXqX+ O _.yX|.3X3X3X3X3X3X3X3X3X3X3X3X3X3X3X3X3X3X",
"3X3X3X3X3X3X3X3X3X3X3X>XxXfXlX#   + dX> 3X3X= pXcXzXlXwX7XlXQ.<X3X3X3X3X3X3X3X3X3X3X3X3X3X3X3X3X3X3X",
"3X3X3X3X3X3X3X3X3X3X4XeXcXcXsX`._.7XhX&.3X3X- I.jXjXzXkXxXaX] [.3X3X3X3X3X3X3X3X3X3X3X3X3X3X3X3X3X3X",
"3X3X3X3X3X3X3X3X3X3X3X-.kXcXkXlXfXzXaXb .X3X:XI I.rXiXaXyX..G {.3X3X3X3X3X3X3X3X3X3X3X3X3X3X3X3X3X3X",
"3X3X3X3X3X3X3X3X3X3X3X; pXxXjXkXkXhXI.L *X3X*X! 5.q.v.v.w.~ C 4X3X3X3X3X3X3X3X3X3X3X3X3X3X3X3X3X3X3X",
"3X3X3X3X3X3X3X3X3X3X3X;X( ~.iXiXrXI./ I : 3X}.C u.i.F.V.w.~ p 3X3X3X3X3X3X3X3X3X3X3X3X3X3X3X3X3X3X3X",
"3X3X3X3X3X3X3X3X3X3X3X6X' ~ r.v.t.w.4.I -.6X3Xi 5.V.(.^.u./ O.3X3X3X3X3X3X3X3X3X3X3X3X3X3X3X3X3X3X3X",
"3X3X3X3X3X3X3X3X3X3X3X3X: / u.h.G.F.u.~ &.:X, p / i.^.F.5.I > 3X3X.X;X, P.H.K.K.L.L.L.P.$X}.3X3X3X3X",
"3X3X3X3X3X3X3X3X3X3X3X3X4X' 5.a.(./.a.^ K V.F.n.L e.^.F.5.L 6 q ' E 7.d.s.s.s.l.l.l.z.x.<.Z >X3X3X3X",
"3X3X4X X;X;.;.;.9X;X1X}.3X*XK 5.A.(.V.^ K ^.(.^.K ! C.C.^ B k N D Y Y V D A A D R 2.2.2.N <.d.; 3X3X",
"3X}.u Z 6.s.s.s.g.0.6.,.:.-.e ^ p.^.C.! ) ^././.F.S U U H L N a A <.<.1.1.t.y.q.) V 8 r o.V F q.XX3X",
"3X: 2.A Q W T F F F T T Q F l N W e.e.S r.(././.F.! K  .!.H L 1 j 1.t.t.q.<.Y 1.0.j.B.K.1X&X8 9.;.3X",
"3X$.N w r 8 z J E q.y.6.6.Y k H } } L L u.F.F.A.u.K U p.b.L N 1 s A 3.9.d.f.j.q.J Y 1.s.1.u ,.7.:.3X",
"3Xi n ; ;.c.f.d.d.8.<.R Y V f N !.U.! S 5.5.u.5.w.G e.u.~ B f b.Y...N D R 3.8.d.z.y.J A j R d.6.>..X",
"3Xq A 8.s.8.3.R D Y q.0.s.8.l k e.u.4./ K ..m.T.I.) 5.W S 3 f / i.C.K ( | ( D R 3.d.z.j.V V 3.Y Y ;X",
".X' D 3.Q T l V q.f.9.8.3.D g V ! w.u.u.u.) Q.uXY.! K k 3 3 4 L / K b.Z.D.W.v.c v T 3.d.6.V q.V 0.: ",
";.8.j l l x J j.d.8.3.T v y m.u.K N U ! _ 4.! A n f 3 1 2 a < n B U p.u.u.g.W.Y.#X* z 3.Y <.d.y.0.-.",
"&.d.D x - :.j.9.8.<.A +.* m.F.5.B 3 3 4 a 3 3 3 3 2 a s a s 3 1 d ~ e.e.u.k.j.Z.[  X|.O.j V <.Y <.K.",
"r N l c c.l.8.8.Q b oX: K r.! P m 3 3 2 2 2 a a a k j k 2 V k $ * I ^ e.u.5.! K K t 4X3X% l V R <.J.",
"h F A 6.s.8.8.W e [.:Xm.E.n.w.B 0 9 a 3 s s j j J G j V f 2 A * |.b P ^ ! K ) ) r.b.&. X}.V 8.d.R c.",
"h T <.8.8.3.F O.}.-Xb.).g.u.e.I o.}.0 s j a V s l k a h r oXo.z  X=Xz B B H _ Z.Z.R.).{ ].e 2.f.E ,.",
"h A Y V j A @.4X3Xp N.A.g.u.e.I t 3X3X$ l 5 8 5 w 0 & +X4X3X3Xr @.6X=Xh M / u.g.g.k.C.R.p q Q f.E y.",
"e 7.d.0.D X.4X3X.X( N.n.5._ ! B +.3X3X; j ].}.}.4X3X3X3X3X3X3X,X6 {.3X+.I u.a.h.z.h.u.C.N.8 F 0.Y y.",
"y s.8.8.F o.3X3X<X! / _ ) K D S = 3X3X%.7 {.3X3X3X3X3X3X3X3X3X3XX.& 3XO./ a.h.k.k.z.u.z.S.G D 6.Y t.",
"O.Q R A k k <X3X&XL ( ..Y.N.r.^ G ,X3XO.6 3X3X3X3X3X3X3X3X3X3X3X0 q 3Xb 4.h.z.g.h.i.k.z.a.K A 7.D >.",
"* n g g D W O.3X5Xb L T.D.k.g.u.e.' }.+.w 3X3X3X3X3X3X3X3X3X3X3X8 %.,XS u.i.k.a.u.i.z.h.u.! V <.A u ",
"#XA k n F R V ].3Xo. .D.9.h.k.u.u.u.&.* 9 3X3X3X3X3X3X3X3X3X3X{.h ; = ~ h.g.4.N.i.u.h.h.h.) c A k O.",
"|.V A g N F Q O.3X=.U.a.k.z.g.g.i.g.4.q < +X3X3X3X3X3X3X3X3X3X].j = @.4.z.u.^ U.a.g.x.z.h.| 7 f N ; ",
"3Xi T g g A T V |.@.N.p.i.z.z.h.V.u.g.C 8 v |.3X3X3X3X3X3X3X3X].h : i 0.z.b.G E.p.k.x.g.p.] h A l <X",
"3X* W z o.g F W - +.b.p.h.g.x.k.R.b.h.4.+.V r 4X3X3X3X3X3X3X3X X7 % ` 0.A. .O.T.Z.k.x.g.n.' v A O.3X",
"3X|.x k = +.m W e * / p.u.g.x.x.D.T._ n.$.* D & 3X3X3X3X3X3X3X].6 +Xz g.V. .o.} N.u.k.u.p.#.c e ].6X",
"3X3X* m r 4Xq S V 0 L e.u.k.x.g.E.T.L R.[ }.0 h {.3X3X3X3X3X3X$ 0 ].H g.e.] @. .n.g.i.u.w.* 8 <X3X3X",
"3X3X4XO.m %X5Xr n g m w.u.u.g.g.E.*.` N.b.,X|.< & 3X3X3X3X3X3X0 %X*XU h...].|.} n.u.k.i.! =X- 6X3X3X",
"3X3X3X5Xr e 6X4X* n n P u.u.u.u.w.#X* b.S.> 3X= s *X3X3X3X3X3X$ 3XOX~ i.m.%X:X) R.k.a.e.C {.3X3X3X3X",
"3X3X3X3X5Xq +X3X3XOX8 L 4.g.g.u.w.:XOXN.D.$.3X3X& w }.3X3X3X3X}.3XOX/ p.( &X+.M.p.i.h.4.y 6X3X3X3X3X",
"3X3X3X3X3X6X5X3X3X3X4Xy / 5.g.u.e.O.=X..Z.{ 6X3X3X= oX3X3X3X3X3X3XOX/ e.OX3X= _ u.u.u./ =.3X3X3X3X3X",
"3X3X3X3X3X3X3X3X3X3X3X@XL / p.u.e.` 6Xy n.[ 5X3X3X3X6X3X3X3X3X3X3X#X_ M.<X[.( n.e.u.e.K ,X3X3X3X3X3X",
"3X3X3X3X3X3X3X3X3X3X3X3Xt ~ e.u./ #.6XOXm._ [.3X3X3X3X3X3X3X3X3X3X%X_ &.3X|.[ S.u.u.4.t 6X3X3X3X3X3X",
"3X3X3X3X3X3X3X3X3X3X3X3X,XH / i.e.K [.3X&.! <X3X3X3X3X3X3X3X3X3X3X<XU v 5X3Xt R.h.e.U %X3X3X3X3X3X3X",
"3X3X3X3X3X3X3X3X3X3X3X3X3X=.~ 4.p.b 5X3X@.^ <X3X3X3X3X3X3X3X3X3X3X4XC @.3X-  .Z.i.4.@.6X3X3X3X3X3X3X",
"3X3X3X3X3X3X3X3X3X3X3X3X3X5X` ~ e._ OX3X X{ ;X3X3X3X3X3X3X3X3X3X3X3X#.=.3X@.r.i.e.' }.3X3X3X3X3X3X3X",
"3X3X3X3X3X3X3X3X3X3X3X3X3X3X,XG / I @X3X3Xy *X3X3X3X3X3X3X3X3X3X3X3X-X- 3X}.] u.( <X6X3X3X3X3X3X3X3X",
"3X3X3X3X3X3X3X3X3X3X3X3X3X3X3X:XL I #.|.3X#.&X3X3X3X3X3X3X3X3X3X3X3X3X6X4Xi 4.) =X3X3X3X3X3X3X3X3X3X",
"3X3X3X3X3X3X3X3X3X3X3X3X3X3X3X6X- I I %X3X- ,X3X3X3X3X3X3X3X3X3X3X3X3X3X[.S ( =X3X3X3X3X3X3X3X3X3X3X",
"3X3X3X3X3X3X3X3X3X3X3X3X3X3X3X3X3X- B @.3X|.5X3X3X3X3X3X3X3X3X3X3X3X3X3X.X#.&X3X3X3X3X3X3X3X3X3X3X3X",
"3X3X3X3X3X3X3X3X3X3X3X3X3X3X3X3X3X3X#Xr 3X3X3X3X3X3X3X3X3X3X3X3X3X3X3X3X6X6X3X3X3X3X3X3X3X3X3X3X3X3X"
};
