/* XPM */
static char *result[] = {
/* columns rows colors chars-per-pixel */
"50 50 227 2 ",
"   c #030200",
".  c #370A01",
"X  c #2C1E01",
"o  c #302000",
"O  c #470E01",
"+  c #591301",
"@  c #611400",
"#  c #6B1600",
"$  c #761A00",
"%  c #7E142C",
"&  c #7B243B",
"*  c #785E26",
"=  c #5F3159",
"-  c #6D3454",
";  c #783954",
":  c #523770",
">  c #5C547B",
",  c #6E5169",
"<  c #6C5B69",
"1  c #624A78",
"2  c #765575",
"3  c #871E01",
"4  c #8F0E1D",
"5  c #AF140C",
"6  c #B41607",
"7  c #BB1401",
"8  c #AB1413",
"9  c #B61915",
"0  c #AE300D",
"q  c #A92419",
"w  c #BF2418",
"e  c #86122E",
"r  c #9A1427",
"t  c #9A1A33",
"y  c #A91B2B",
"u  c #952C32",
"i  c #9A2839",
"p  c #993833",
"a  c #AB2724",
"s  c #B42725",
"d  c #AF312F",
"f  c #AD3335",
"g  c #C81703",
"h  c #C4180F",
"j  c #DC1502",
"k  c #D61B06",
"l  c #DC1B01",
"z  c #E31600",
"x  c #E31E02",
"c  c #EC1B00",
"v  c #F51B00",
"b  c #F81D00",
"n  c #CB2306",
"m  c #D72706",
"M  c #DD3106",
"N  c #C62817",
"B  c #D62D12",
"V  c #DC3211",
"C  c #D43819",
"Z  c #E82702",
"A  c #F52301",
"S  c #F82601",
"D  c #FD2B00",
"F  c #E83505",
"G  c #ED3404",
"H  c #E3320B",
"J  c #FC3400",
"K  c #F33A05",
"L  c #F43B07",
"P  c #FE3C00",
"I  c #C43A2B",
"U  c #C73E3B",
"Y  c #876004",
"T  c #B94529",
"R  c #BA4537",
"E  c #C75004",
"W  c #FF4104",
"Q  c #E74012",
"!  c #F54417",
"~  c #D04C2F",
"^  c #ED4929",
"/  c #EF4D2C",
"(  c #E85737",
")  c #852944",
"_  c #8E364C",
"`  c #8F474D",
"'  c #964B55",
"]  c #AE4C44",
"[  c #B16551",
"{  c #9E656A",
"}  c #CD564D",
"|  c #E3584D",
" . c #CE6C51",
".. c #DB5860",
"X. c #D26B71",
"o. c #E96962",
"O. c #4BAB0D",
"+. c #51B60F",
"@. c #47A315",
"#. c #54BB11",
"$. c #409B36",
"%. c #4EB12C",
"&. c #71A129",
"*. c #58C114",
"=. c #68CD1B",
"-. c #66D81E",
";. c #61CD2E",
":. c #66DA21",
">. c #6ADB21",
",. c #60CA31",
"<. c #3B9549",
"1. c #2F837D",
"2. c #318571",
"3. c #37A77D",
"4. c #56CB41",
"5. c #AB8715",
"6. c #B58C3B",
"7. c #CC8D01",
"8. c #DCA52B",
"9. c #AD8C64",
"0. c #D48E5F",
"q. c #E6B24F",
"w. c #D28D71",
"e. c #DBA17F",
"r. c #F5C35D",
"t. c #F4C76E",
"y. c #38529C",
"u. c #2F7C97",
"i. c #2C5AAE",
"p. c #395CA7",
"a. c #1E77A9",
"s. c #1E7AAC",
"d. c #1E74B3",
"f. c #1D7BB2",
"g. c #1E73BB",
"h. c #1A7CBE",
"j. c #3469A7",
"k. c #207EAA",
"l. c #2B64B9",
"z. c #3366B5",
"x. c #2377B6",
"c. c #544E82",
"v. c #47599B",
"b. c #535791",
"n. c #675A86",
"m. c #516C90",
"M. c #405DA6",
"N. c #6A76BA",
"B. c #1E6EC5",
"V. c #1E6ECE",
"C. c #1E71C3",
"Z. c #1F71CC",
"A. c #276BC6",
"S. c #236DCB",
"D. c #356EC5",
"F. c #2074C2",
"G. c #3970C5",
"H. c #4572C3",
"J. c #637BC1",
"K. c #A86380",
"L. c #8577B1",
"P. c #BA7DA4",
"I. c #D86D84",
"U. c #DA728B",
"Y. c #C27192",
"T. c #DC7792",
"R. c #E37C95",
"E. c #E37F99",
"W. c #2C8089",
"Q. c #1D86B4",
"!. c #2283AB",
"~. c #2288AC",
"^. c #2389B5",
"/. c #368FB3",
"(. c #2794B9",
"). c #518BB0",
"_. c #279BC7",
"`. c #299CC4",
"'. c #329CC6",
"]. c #258AD0",
"[. c #27A1CC",
"{. c #2CA2CC",
"}. c #37A2CE",
"|. c #2EA9D7",
" X c #36A8D6",
".X c #38AFE1",
"XX c #35B1E4",
"oX c #409AC4",
"OX c #41AADC",
"+X c #B3A09A",
"@X c #8C84BB",
"#X c #AA8CB9",
"$X c #B08CB5",
"%X c #B992B9",
"&X c #BAB2B0",
"*X c #D19397",
"=X c #E6829C",
"-X c #EA849D",
";X c #D8AD92",
":X c #C798B9",
">X c #D59DB9",
",X c #EA87A0",
"<X c #EE8AA2",
"1X c #F28DA4",
"2X c #F395AA",
"3X c #F396AB",
"4X c #F29DB3",
"5X c #CEB3AA",
"6X c #E7A7BA",
"7X c #FAA4B5",
"8X c #FEA7B9",
"9X c #FEAABB",
"0X c #FFE9B1",
"qX c #E0ADC4",
"wX c #FFAFC1",
"eX c #FDB4C4",
"rX c #FBBAC9",
"tX c #CBC8C7",
"yX c #E5DFCF",
"uX c #FCC7D4",
"iX c #FED0DC",
"pX c #DAE0DF",
"aX c #F7E7CE",
"sX c #FFF6DE",
"dX c #F1F1ED",
"fX c #EEF3F4",
"gX c #FEFFFF",
/* pixels */
"V.V.V.V.V.V.V.V.V.V.V.V.V.V.V.V.V.V.V.V.V.V.V.V.V.V.V.V.C.V.V.V.V.V.V.V.V.V.V.V.V.V.V.V.V.V.V.V.V.V.",
"V.V.V.V.V.V.V.V.V.V.V.V.V.V.V.V.V.V.V.V.V.V.V.V.V.V.S.k.k.s.V.V.V.V.V.V.V.V.V.V.V.V.V.V.V.V.V.V.V.V.",
"V.V.V.V.V.V.V.V.V.V.V.V.V.V.V.V.V.V.V.V.V.V.V.V.V.Z._. X(.~.d.V.V.V.V.x.k.!.d.V.V.V.V.V.V.V.V.V.V.V.",
"V.V.V.V.V.V.V.V.V.V.V.V.V.V.V.V.V.V.V.V.V.V.V.V.V.].OX'.|.[.Q.s.d.k.~.`.{.^.d.V.V.V.V.V.V.V.V.V.V.V.",
"V.V.V.V.V.V.V.V.V.V.V.V.V.V.V.V.V.V.V.V.p.b.v.z.> d N w d p < m./.XXXX X|.!.B.V.V.V.V.V.V.V.Z.V.V.V.",
"V.V.V.V.V.V.V.V.V.V.V.V.V.V.V.V.V.V.b.s g g n N m T [ [ T g x g q 2 ). X|.!.s.d.g.C.V.V.V.V.V.V.V.V.",
"V.V.V.V.V.V.V.V.V.V.V.V.V.V.V.V.V.p.h [ 5XtX .n *XfXgXgXfX+X0 Z 7 g 8 _ ).|.{.{.(.a.V.V.V.V.V.V.V.V.",
"V.V.V.V.V.V.V.V.V.V.V.V.V.V.V.V.V._  .fXgXgXo. .gXgXgXgXgXgXtX0 m 6 6 8 u )..X|.x.V.V.V.V.V.V.V.V.V.",
"V.V.V.V.V.V.V.V.V.V.V.V.V.V.V.V.V.T 5XgXsX0X( ;XdX0Xr.t.dXgXfX9.m 7 6 r 9 p {.(.d.V.V.V.V.V.V.V.V.V.",
"V.V.V.V.V.V.V.V.V.V.V.V.V.V.V.V.V.' 6Xr.5.Y E ;Xt.7.X X 6.gXfX&Xn l l 6 6 7 m.[.^.f.C.V.V.V.V.V.V.V.",
"V.V.V.V.V.V.V.V.V.V.V.V.V.V.V.V.V.v.w.8.o   o  .q.7.    * aXpX+Xm x b k 4 4 > XX|.[.^.g.V.V.V.V.V.V.",
"V.V.V.V.V.V.V.V.V.V.V.V.V.V.V.V.V.V.n.0.6.* 5Xe.w.q.8.6.yXpXtX] Z P J y e % ).|.(.^.f.V.V.V.V.V.V.V.",
"V.V.V.V.V.V.V.V.V.V.V.V.V.V.V.V.V.V.V.v.X.e.&X5X .~ e.;X5X*X} G P P P B r & '.~.x.V.V.V.V.V.V.V.V.V.",
"V.V.V.V.V.V.Z.S.V.V.V.V.V.V.V.V.V.V.V.Z.I P Q K J J J L L J J W P H s N z q oX(.s.V.V.V.V.V.V.V.V.V.",
"V.V.V.V.V.S.V.S.V.V.V.V.V.Z.Z.V.V.Z.l.' P P P P P P P P P P P K P H y h c p  X`.k.g.V.V.V.V.V.V.V.V.",
"V.V.V.V.V.p._ s d _ c.n.n.n.2 { ' R Q W J J J J J P P P P P K m S b x g p j.f.d.g.V.V.V.V.V.V.V.V.V.",
"V.V.V.V.v.H P J J J A m P W P P W P D A j g g g x A A A k z c c j q = y.Z.V.V.V.V.V.V.V.V.V.V.V.V.V.",
"V.V.V.V.] P 0 @ + $ M Z m P P P J A h u 1 v.y.v.c.= ; _ ) _ f h q /.C.V.V.V.V.V.V.V.V.V.V.V.V.V.V.V.",
"V.V.V.V.] J # @ @ O O M x m D v w ; p.V.V.V.V.V.Z.V.V.S.Y.T.T.} 7 < Q.A.V.V.V.V.V.V.V.V.V.V.V.V.V.V.",
"V.V.V.V.2 P 3 @ # # . 3 S j h , l.V.V.V.V.V.V.V.V.V.V.H.,XE.U...k 4 u.].h.g.C.V.V.V.V.V.V.V.V.V.V.V.",
"V.V.V.V.A.~ M # + @ . 3 D u z.V.B.V.V.V.V.V.V.V.V.V.A.P.<XR.U.| J 9 -  X X`.k.B.V.V.V.V.V.V.V.V.V.V.",
"V.V.V.V.S.l.R M 0 # 3 Z k c.V.V.V.V.V.V.V.V.V.V.V.A.#X7X<XR.X.J P A 5 ).XX`.k.V.V.V.V.V.V.V.V.V.V.V.",
"V.V.V.V.V.V.B.n.] C V f c.V.V.V.V.V.V.V.V.V.V.V.D.%XwX3XE.I.L J P B 4 < [.s.V.V.V.V.V.V.V.V.V.V.V.V.",
"V.V.V.V.V.V.V.V.V.A.l.V.V.V.V.V.V.V.V.V.V.V.V.J.>XwX2XE.U./ G s H J z p (.d.V.V.V.V.V.V.V.V.V.V.V.V.",
"V.V.V.V.V.V.V.V.V.V.V.V.V.V.V.V.V.V.V.V.V.A.#X8XwX1X,XT.| P J V G V r & '.^.x.V.V.V.V.V.V.V.V.V.V.V.",
"V.V.V.V.V.V.V.V.V.V.V.V.V.V.V.V.V.V.V.V.H.>XeX9X3X,XE...J P B B P B r & }.|.(.x.V.V.V.V.V.V.V.V.V.V.",
"V.V.V.V.V.V.V.V.V.V.V.V.V.V.V.V.V.V.V.H.qXrX7X4X,XE.I.! P M t t B D j u  X X{.k.V.V.V.V.V.V.V.V.V.V.",
"V.V.V.V.V.V.V.V.V.V.V.V.V.V.V.V.V.V.S.:XiXeX9X3XE.R...P P P H H P b j `  X(.!.x.x.F.C.V.V.V.V.V.V.V.",
"V.V.V.V.V.V.V.V.V.V.V.V.V.V.V.V.V.V.J.uXuX7X8X2XE.U./ P W P P W J v Z &.4.,.,.;.,.%.%.<.W.V.V.V.V.V.",
"V.V.V.V.V.V.V.V.V.V.V.V.V.V.V.V.V.V.%XuXeX8X8X1XE.I.U N B P P P D v M =.-.>.>.>.>.=.*.+.O.1.V.V.V.V.",
"V.V.V.V.V.V.V.V.V.V.V.V.V.V.V.V.V.S.:XiXwX7X4X,XR.X.y t t N P P A c 5.:.:.>.:.>.-.*.+.O.O.2.V.V.V.V.",
"V.V.V.V.V.V.V.V.V.V.V.V.V.V.V.V.V.S.%XiXeX8X8X,XR.I.i t t s P J A n &.-.>.>.:.=.#.+.O.O.<.C.V.V.V.V.",
"V.V.V.V.V.V.V.V.V.V.V.V.V.V.V.V.V.V.@XiXeX8X8X2XE.I.d y N L P D v g m.3.%.%.*.#.O.@.$.1.V.V.V.V.V.V.",
"V.V.V.V.V.V.V.V.V.V.V.V.V.V.V.V.V.V.G.6XrX7X7X2XE.U.^ J P P F s k q /.Q.B.x.u.W.u.x.V.V.V.V.V.V.V.V.",
"V.V.V.V.V.V.V.V.V.V.V.V.V.V.V.V.V.V.V.@XrXwX8X7X<XT.| J P P K h j p  X{.^.V.V.V.V.V.V.V.V.V.V.V.V.V.",
"V.V.V.V.V.V.V.V.V.V.V.V.V.V.V.V.V.V.V.S.%XeX9X9X7X-XI.! N s F D j ` .X X`.d.V.V.V.V.V.V.V.V.V.V.V.V.",
"V.V.V.V.V.V.V.V.V.V.V.V.V.V.V.V.V.V.V.V.A.:XwX8X8X3XE.| B w L V r - .X{.~.x.V.V.V.V.V.V.V.V.V.V.V.V.",
"V.V.V.V.V.V.V.V.V.V.V.V.V.V.V.V.V.V.V.V.V.A.$XwX8X7X3XR./ P P w e - {.^.g.V.V.V.V.V.V.V.V.V.V.V.V.V.",
"V.V.V.V.V.V.V.V.V.V.V.V.V.V.V.V.V.V.V.V.V.V.S.@X9XwX8X<XU.Q P F r % /.Q.V.V.V.V.V.V.V.V.V.V.V.V.V.V.",
"V.V.V.V.V.V.V.V.V.V.V.V.V.V.V.V.V.V.V.V.V.V.V.V.J.>X9X1X=X..N K S g > (.g.Z.V.V.V.V.V.V.V.V.V.V.V.V.",
"V.V.V.V.V.V.V.V.V.V.V.V.V.V.V.V.V.V.V.V.V.V.V.V.V.G.P.1X<XT.) N P v a (.s.V.V.V.V.V.V.V.V.V.V.V.V.V.",
"V.V.V.V.V.V.V.V.V.V.V.V.V.V.V.V.V.V.V.V.V.V.V.V.V.V.D.P.1XE.U G F B 7 m.C.V.V.V.V.V.V.V.V.V.V.V.V.V.",
"V.V.V.V.V.V.V.V.V.V.V.V.V.V.V.V.V.V.V.l.p.z.V.V.V.V.V.H.E.E./ P a e 9 1 V.V.V.V.V.V.V.V.V.V.V.V.V.V.",
"V.V.V.V.V.V.V.V.V.V.V.V.V.V.V.V.V.z.] V N B f m.V.V.V.V.L.E.^ J L x g c.V.V.V.V.V.V.V.V.V.V.V.V.V.V.",
"V.V.V.V.V.V.V.V.V.V.V.V.V.V.V.V.l.d H ' b.b.~ R V.V.V.V.N.X.L G J c 8 i.V.V.V.V.V.V.V.V.V.V.V.V.V.V.",
"V.V.V.V.V.V.V.V.V.V.V.V.V.V.V.V.v.F L z.S.A.2 n.V.V.V.S.K.! G s x y : S.V.V.V.V.V.V.V.V.V.V.V.V.V.V.",
"V.V.V.V.V.V.V.V.V.V.V.V.V.V.V.V.A.& B ~ n.z.A.S.A.z.n.} W P J S j - V.V.V.V.V.V.V.V.V.V.V.V.V.V.V.V.",
"V.V.V.V.V.V.V.V.V.V.V.V.V.V.V.V.V.i.u P W V C I i s P J V y t e c.V.V.V.V.V.V.V.V.V.V.V.V.V.V.V.V.V.",
"V.V.V.V.V.V.V.V.V.V.V.V.V.V.V.V.V.V.V.b.; ) a G A G Z B ; = y.B.V.V.V.V.V.V.V.V.V.V.V.V.V.V.V.V.V.V.",
"V.V.V.V.V.V.V.V.V.V.V.V.V.V.V.V.V.V.V.V.V.V.l.p.M.p.z.l.V.V.V.V.V.V.V.V.V.V.V.V.V.V.V.V.V.V.V.V.V.V."
};
