/* XPM */
static char *result[] = {
/* columns rows colors chars-per-pixel */
"50 50 125 2 ",
"   c #020202",
".  c #0A0506",
"X  c #0C0708",
"o  c #060E0D",
"O  c #0B0B0B",
"+  c #1F0707",
"@  c #100708",
"#  c #190708",
"$  c #120A0C",
"%  c #1D0B0D",
"&  c #1B0F10",
"*  c #0B1011",
"=  c #141313",
"-  c #1A1616",
";  c #131E1E",
":  c #1C1D1D",
">  c #230606",
",  c #2A0707",
"<  c #250708",
"1  c #250B0D",
"2  c #2A0B0C",
"3  c #320B0C",
"4  c #3E0C0C",
"5  c #240F12",
"6  c #2C1515",
"7  c #221E1E",
"8  c #341213",
"9  c #3D1313",
"0  c #3F1718",
"q  c #3A1C1B",
"w  c #1B1D20",
"e  c #251F20",
"r  c #232323",
"t  c #242C2C",
"y  c gray18",
"u  c #343434",
"i  c #40080A",
"p  c #4C0C0D",
"a  c #550609",
"s  c #540B0C",
"d  c #5C0808",
"f  c #430F10",
"g  c #490E10",
"h  c #441414",
"j  c #431B1B",
"k  c #4B1919",
"l  c #5A1515",
"z  c #5E1D1E",
"x  c #640706",
"c  c #620B0D",
"v  c #6B090A",
"b  c #7E0607",
"n  c #750B0C",
"m  c #7F0B0C",
"M  c #640F11",
"N  c #6C0F10",
"B  c #621111",
"V  c #7E1416",
"C  c #78191A",
"Z  c #781924",
"A  c #472021",
"S  c #712424",
"D  c #73273C",
"F  c #73293E",
"G  c #7C2F47",
"H  c #7D3049",
"J  c #753A57",
"K  c #7D3857",
"L  c #6F4059",
"P  c #8E0708",
"I  c #860B0C",
"U  c #8D0B0C",
"Y  c #940607",
"T  c #920709",
"R  c #93090A",
"E  c #9C0B0C",
"W  c #8E0E12",
"Q  c #940B12",
"!  c #89121B",
"~  c #9B1A1F",
"^  c #A30709",
"/  c #A4090B",
"(  c #AA090B",
")  c #B60505",
"_  c #BF0304",
"`  c #B50708",
"'  c #B80708",
"]  c #B3090A",
"[  c #BC090A",
"{  c #A61015",
"}  c #8C2030",
"|  c #822C36",
" . c #882F39",
".. c #C20507",
"X. c #CC0606",
"o. c #C20709",
"O. c #CE0709",
"+. c #C4080A",
"@. c #CC0809",
"#. c #D30404",
"$. c #DF0506",
"%. c #D50806",
"&. c #D60709",
"*. c #DB0709",
"=. c #D50809",
"-. c #DA0809",
";. c #E40506",
":. c #EA0506",
">. c #EB0807",
",. c #E30609",
"<. c #E90608",
"1. c #E00A0B",
"2. c #EC0809",
"3. c #8D3858",
"4. c #A04C5F",
"5. c #824368",
"6. c #A04A76",
"7. c #AA4E7E",
"8. c #B14D7E",
"9. c #A25B72",
"0. c #B2507E",
"q. c #B2617A",
"w. c #BC637A",
"e. c #AA5280",
"r. c None",
/* pixels */
"r.r.r.r.r.r.r.r.r.r.r.r.r.r.r.r.r.r.r.r.r.r.r.r.r.r.r.r.r.r.r.r.r.r.r.r.r.r.r.r.r.r.r.r.r.r.r.r.r.r.",
"r.r.r.r.r.r.r.r.r.r.r.r.r.r.r.r.r.r.r.r.r.r.r.r.r.r.r.r.r.r.r.r.r.r.r.r.r.r.r.r.r.r.r.r.r.r.r.r.r.r.",
"r.r.r.r.r.r.r.r.r.r.r.r.r.r.r.r.r.r.r.r.r.r.r.r.r.r.r.r.r.r.r.r.r r.r.r.r.r.r.r.r.r.r.r.r.r.r.r.r.r.",
"r.r.r.r.r.r.r.r.r.r.r.r.r.r.r.r.r.r.r.r.r.r.r.r.r.r.r.r.r.: r.r r.r.r.r.r.r.r.r.r.r r.r.r.r.r.r.r.r.",
"r.r.r.r.r.r.r.r.r.r.r.r.r.r.r.r.r.r.r.r.y r.r.r.r.r.r.r.r.r.: r.r.r.r.r.r.r.r.r.r.r.: r.r.r.r.r.r.r.",
"r.r.r.r.r.r.r.r.r.r.r.r.r.r.r.r.r.r.r.r.r.r.r.r.r.r.r.r.r.r.r r.r.r.r.r.r.r.r.r.r.r.r r.r.r.r.r.r.r.",
"r.r.r.r.r.r.r.r.r.r.r.r.r.r.r.r.r.r.r.r.r.r.r.r.r.r.r.= O r.u r.r.r.r.r.r O r.r.r.r.w r.r.r.r.r.r.r.",
"r.r.r.r.r.r.r.r.r.r.r.r.r.r.r.r.r.r.r.r.t r.r.r.r.r.r.O . r.r r.r.r.r.r.O   r.r.r.r.w r.r.r.r.r.r.r.",
"r.r.r.r.r.r.r.r.r.r.r.r.r.r.r.r.r.r.% 4 8 r.r.r.r.r.r.= : r.: r.r.r.r.r.- = r.r.r.e & = r.r.r.r.r.r.",
"r.r.r.r.r.r.r.r.r.r.r.r.r.r.r.1 p I o.$.=.l r.r.r.r.r.r.r.r.Q k r.r.r.r.r.r.r.r.r.U O.g r.r.r.r.r.r.",
"r.r.r.r.r.r.r.r.r.r.r.r.6 a U +.;.>.>.;.;.*.U z r.r.r.r.C [ :.o.s r.r.r.r.r.r.A E <.<.g r.r.r.r.r.r.",
"r.r.r.r.r.r.r.r.r.q B R +.;.>.;.;.;.;.;.;.;.>.*.[ ] [ @.,.;.;.>.*.E V S S V E @.>.,.$.f r.r.r.r.r.r.",
"r.r.r.r.r.r.q c R @.;.>.;.;.;.;.;.;.;.;.;.;.;.;.:.>.>.;.;.;.;.;.;.<.:.,.;.<.:.:.;.;.$.h r.r.r.r.r.r.",
"r.r.r.6 B E X.;.>.;.;.;.;.;.;.;.;.;.;.;.;.;.;.;.;.;.;.,.;.;.;.;.;.;.;.;.;.;.;.;.;.;.*.h r.r.r.r.r.r.",
"r.w c +.;.>.:.;.;.;.;.;.;.;.;.;.;.;.;.;.;.;.;.;.;.;.;.;.;.;.;.;.;.;.;.;.;.;.<.;.;.;.*.h r.r.r.r.r.r.",
"r.* c >.;.;.;.;.;.;.;.;.;.;.;.;.;.;.;.;.;.;.;.;.;.;.;.;.;.;.;.;.;.;.;.;.;.@.[ ,.;.,.*.h r.r.r.r.r.r.",
"r.r.- / <.;.;.;.,.;.;.;.;.;.;.;.;.,.;.;.;.;.;.;.;.;.;.;.;.;.;.;.;.;.;.;.;.%.U c =.>.$.h r.r.r.r.r.r.",
"r.r.r.3 =.;.;.;.;.;.;.;.;.;.;.;.;.;.;.;.;.,.;.;.;.;.;.;.;.;.;.;.;.;.;.;.;.:./ U O.;.*.9 r.r.r.r.r.r.",
"r.r.r.; v :.;.;.;.;.;.;.;.;.;.;.;.;.;.;.;.;.;.;.;.;.;.;.;.;.;.;.;.;.;.;.;.;.m %.>.>.&.3 r.r.r.r.r.r.",
"r.r.r.r.$ ( >.;.;.;.;.;.;.;.;.;.;.;.;.;.,.;.;.;.;.;.;.;.;.;.;.;.;.;.;.;.:./ E >.;.,.#.1 r.r.r.r.r.r.",
"r.r.r.r.r.3 =.>.;.;.;.;.;.;.;.;.;.;.;.;.,.$.,.;.:.;.>.;.;.;.;.:.;.:.;.X.! N ;.;.;.;.X.6 r.r.r.r.r.r.",
"r.r.r.r.r.r.a ,.;.,.;.;.;.;.;.;.;.;.;.;.,.@.E / ` [ o.X.O.O...[ ] { } 3.5.W :.;.;.:.O.2 r.r.r.r.r.r.",
"r.r.r.r.r.r.* U :.;.;.;.;.;.;.;.;.;.;.;.;.;.,.&.+.' ' ` ` ' ' ' P J 7.0.K ) ;.;.;.:.O.> r.r.r.r.r.r.",
"r.r.r.r.r.r.r.+ +.:.;.;.;.;.;.;.$.;.;.,.>.;.;.;.:.<.;.:.:.:.:.:.X.G 0.6.Z ;.;.;.;.;.X.> r.r.r.r.r.r.",
"r.r.r.r.r.r.r.r.s ,.;.;.;.;.;.;.;.>.<.@.^ &.;.;.;.;.;.;.%.$.;.#.) G 7.F o.;.;.;.;.;.@.> r.r.r.r.r.r.",
"r.r.r.r.r.r.r.r.O R >.;.;.;.:.;.O.E v 2 < &.;.;.;.;.;.#.c n | w.9.L F ' :.;.;.;.;.>.@.+ r.r.r.r.r.r.",
"r.r.r.r.r.r.r.r.r.1 +.2.;.o.I s 8 r.r.r.9 *.;.;.;.;.;.&.( #.~ 4.0. ._ :.;.;.;.;.;.;.o.# r.r.r.r.r.r.",
"r.r.r.r.r.r.r.r.r.r.i n p 5 r.r.r.r.r.r.j *.;.;.;.;.;.;.;.;.:.#.#.$.;.;.;.;.;.;.;.:.' @ r.r.r.r.r.r.",
"r.r.r.r.r.r.r.r.r.r.r.r.r.r.r.r.r.r.r.r.j &.;.;.;.;.;.;.;.;.;.;.;.;.;.;.;.;.;.;.;.:.] $ r.r.r.r.r.r.",
"r.r.r.r.r.r.r.r.r.r.r.r.r.r.r.r.r.r.r.r.j *.;.;.;.;.;.;.;.;.;.;.;.;.;.;.;.;.;.;.;.:.] . r.r.r.r.r.r.",
"r.r.r.r.r.r.r.r.r.r.r.r.r.r.r.r.r.r.r.r.j &.;.;.;.;.;.;.;.;.;.;.;.;.;.;.;.;.;.;.;.:.] O r.r.r.r.r.r.",
"r.r.r.r.r.r.r.r.r.r.r.r.r.r.r.r.r.r.r.r.0 &.;.;.;.;.;.;.;.;.;.;.;.;.;.;.;.;.;.;.;.>.] 7 r.r.r.r.r.r.",
"r.r.r.r.r.r.r.r.r.r.r.r.r.r.r.r.r.r.r.r.3 *.;.;.;.;.;.;.;.;.;.;.;.;.;.;.;.;.;.;.;.;.] 7 r.r.r.r.r.r.",
"r.r.r.r.r.r.r.r.r.r.r.r.r.r.r.r.r.r.r.r.8 *.;.;.;.;.;.;.;.;.;.;.;.;.;.;.;.;.;.;.;.>.( . r.r.r.r.r.r.",
"r.r.r.r.r.r.r.r.r.r.r.r.r.r.r.r.r.r.r.r.j %.;.;.;.;.;.;.;.;.;.;.;.;.;.;.;.;.;.;.;.:.^   r.r.r.r.r.r.",
"r.r.r.r.r.r.r.r.r.r.r.r.r.r.r.r.r.r.r.r.j *.;.;.;.;.;.;.;.,.;.;.;.;.;.;.;.;.;.;.;.:.Y   r.r.r.r.r.r.",
"r.r.r.r.r.r.r.r.r.r.r.r.r.r.r.r.r.r.r.r.j -.;.;.;.;.;.;.;.;.;.;.;.,.;.;.;.;.,.;.;.:.T   r.r.r.r.r.r.",
"r.r.r.r.r.r.r.r.r.r.r.r.r.r.r.r.r.r.r.r.j -.;.;.;.;.;.;.;.;.;.;.;.;.;.;.;.;.;.;.;.:.P   r.r.r.r.r.r.",
"r.r.r.r.r.r.r.r.r.r.r.r.r.r.r.r.r.r.r.r.j %.;.;.;.;.;.;.;.;.;.;.;.;.;.;.;.;.;.;.;.>.Y o r.r.r.r.r.r.",
"r.r.r.r.r.r.r.r.r.r.r.r.r.r.r.r.r.r.r.r.j &.;.;.;.;.;.;.;.;.;.;.;.;.;.;.;.;.;.;.;.:.Y ; r.r.r.r.r.r.",
"r.r.r.r.r.r.r.r.r.r.r.r.r.r.r.r.r.r.r.r.j *.;.;.;.;.;.;.;.;.;.;.;.;.;.;.;.;.;.;.;.:.P r.r.r.r.r.r.r.",
"r.r.r.r.r.r.r.r.r.r.r.r.r.r.r.r.r.r.r.r.j &.;.;.;.;.;.;.;.;.;.;.;.;.;.;.;.;.;.;.;.:.I r.r.r.r.r.r.r.",
"r.r.r.r.r.r.r.r.r.r.r.r.r.r.r.r.r.r.r.r.j &.;.;.;.;.;.;.;.;.;.;.;.;.;.;.;.;.;.;.;.:.v r.r.r.r.r.r.r.",
"r.r.r.r.r.r.r.r.r.r.r.r.r.r.r.r.r.r.r.r., &.;.;.;.;.;.;.;.;.;.;.;.;.;.;.;.;.;.;.;.:.v r.r.r.r.r.r.r.",
"r.r.r.r.r.r.r.r.r.r.r.r.r.r.r.r.r.r.r.r., &.;.;.;.;.;.;.;.;.;.;.;.;.;.;.;.;.;.;.;.<.v r.r.r.r.r.r.r.",
"r.r.r.r.r.r.r.r.r.r.r.r.r.r.r.r.r.r.r.r., &.;.;.;.;.;.;.;.;.;.;.;.;.;.;.;.;.;.;.;.:.v r.r.r.r.r.r.r.",
"r.r.r.r.r.r.r.r.r.r.r.r.r.r.r.r.r.r.r.r.3 *.:.;.;.;.;.;.;.;.;.;.;.;.;.;.;.;.;.;.;.:.x r.r.r.r.r.r.r.",
"r.r.r.r.r.r.r.r.r.r.r.r.r.r.r.r.r.r.r.r.2 *.:.<.,.<.<.;.,.>.>.<.>.<.,.,.<.<.>.<.:.2.a r.r.r.r.r.r.r.",
"r.r.r.r.r.r.r.r.r.r.r.r.r.r.r.r.r.r.r.r.% a c d d d d d d a d d d d a d c d d d c d < r.r.r.r.r.r.r.",
"r.r.r.r.r.r.r.r.r.r.r.r.r.r.r.r.r.r.r.r.r.r.r.r.r.r.r.r.r.r.r.r.r.r.r.r.r.r.r.r.r.r.r.r.r.r.r.r.r.r."
};
