/* XPM */
static char *result[] = {
/* columns rows colors chars-per-pixel */
"50 50 122 2 ",
"   c black",
".  c #010101",
"X  c #020202",
"o  c gray1",
"O  c #040404",
"+  c gray2",
"@  c #060606",
"#  c #070707",
"$  c #090909",
"%  c gray4",
"&  c #0B0B0B",
"*  c #0C0C0C",
"=  c #0E0E0E",
"-  c gray6",
";  c #101010",
":  c #111111",
">  c gray7",
",  c #131313",
"<  c gray8",
"1  c #151515",
"2  c #161616",
"3  c gray9",
"4  c #181818",
"5  c #191919",
"6  c gray10",
"7  c #1B1B1B",
"8  c gray11",
"9  c #1D1D1D",
"0  c #1E1E1E",
"q  c gray12",
"w  c #202020",
"e  c gray13",
"r  c #222222",
"t  c gray14",
"y  c #252525",
"u  c #272727",
"i  c #282828",
"p  c gray16",
"a  c #2A2A2A",
"s  c gray17",
"d  c #2C2C2C",
"f  c #2D2D2D",
"g  c gray18",
"h  c #323232",
"j  c gray20",
"k  c #343434",
"l  c gray21",
"z  c #373737",
"x  c #3A3A3A",
"c  c gray23",
"v  c #3C3C3C",
"b  c gray24",
"n  c #3E3E3E",
"m  c #3F3F3F",
"M  c gray25",
"N  c #414141",
"B  c #434343",
"V  c gray27",
"C  c #464646",
"Z  c gray28",
"A  c #484848",
"S  c #494949",
"D  c gray29",
"F  c #4C4C4C",
"G  c gray30",
"H  c gray31",
"J  c #505050",
"K  c #515151",
"L  c #535353",
"P  c #555555",
"I  c #565656",
"U  c gray34",
"Y  c #585858",
"T  c gray35",
"R  c #5A5A5A",
"E  c #5D5D5D",
"W  c #606060",
"Q  c gray38",
"!  c #626262",
"~  c gray39",
"^  c #646464",
"/  c DimGray",
"(  c #6A6A6A",
")  c gray42",
"_  c #6C6C6C",
"`  c gray44",
"'  c #717171",
"]  c gray45",
"[  c gray46",
"{  c gray47",
"}  c #797979",
"|  c #7B7B7B",
" . c #7E7E7E",
".. c gray50",
"X. c #808080",
"o. c gray51",
"O. c #838383",
"+. c #848484",
"@. c #868686",
"#. c #888888",
"$. c #898989",
"%. c #8B8B8B",
"&. c gray55",
"*. c #909090",
"=. c gray57",
"-. c gray58",
";. c #959595",
":. c #979797",
">. c #9A9A9A",
",. c #9B9B9B",
"<. c gray61",
"1. c gray62",
"2. c #A7A7A7",
"3. c #B2B2B2",
"4. c #B4B4B4",
"5. c gray74",
"6. c gray78",
"7. c LightGray",
"8. c #DADADA",
"9. c gray90",
"0. c gray93",
"q. c None",
/* pixels */
"q.q.q.q.q.q.q.q.q.q.q.q.1.} ~ Y F C C C Z B c c c c c c B Z C C H T ! _ [ X.=.2.q.q.q.q.q.q.q.q.q.q.",
"q.q.q.q.q.q.q.q.q.N 4 O                                                           + * y Y q.q.q.q.q.",
"q.q.q.q.q.q.q.] q                                                                       - _ q.q.q.q.",
"q.q.q.q.q.q.Y >                                                                           f q.q.q.q.",
"q.q.q.q.q.%.1                                                                             % o.q.q.q.",
"q.q.q.q.q. .>                                                                               J q.q.q.",
"q.q.q.q.q...>                                                                               i q.q.q.",
"q.q.q.q.q...>                                                                               h 6.q.q.",
"q.q.q.q.q...>                                                                               q } q.q.",
"q.q.q.q.q...>                                                                               > Z q.q.",
"q.q.q.q.q...>                                                                               * d q.q.",
"q.q.q.q.q...>                           + + + + + + + + + O O X                             # 9 q.q.",
"q.q.q.q.q...>                         c #.+.O.O.O.O.O. .{ ' Q b B -                         @ 5 q.q.",
"q.q.q.q.q...>                         G q.q.q.q.q.q.q.q.q.q.q.q.q.z                         & p q.q.",
"q.q.q.q.q...>                         D q.q.q.q.q.q.q.q.q.q.q.q.B .                         ; v q.q.",
"q.q.q.q.q...>                         D q.q.q.q.q.q.q.q.q.q.L 6                             6 ~ q.q.",
"q.q.q.q.q...>                         D q.q.q.q.q.q.q.q.^ r                                 u >.q.q.",
"q.q.q.q.q...>                         D q.q.q.q.q.q.m 6 .                                   z 8.q.q.",
"q.q.q.q.q...>                         D q.q.q.q.j >                                         p q.q.q.",
"q.q.q.q.q...>                         H q.K u %                                             U q.q.q.",
"q.q.q.q.q...>                         0 q +                                               & q.q.q.q.",
"q.q.q.q.q...>                                                                           - Q q.q.q.q.",
"q.q.q.q.q...>                                                                       . e | q.q.q.q.q.",
"q.q.q.q.q...>                                                                     3 S q.q.q.q.q.q.q.",
"q.q.q.q.q.o.>                                                                 6 P q.q.q.q.q.q.q.q.q.",
"q.q.q.q.q.@.,                                                           o 8 H q.q.q.q.q.q.q.q.q.q.q.",
"q.q.q.q.q.$.,                                                       + p C q.q.q.q.q.q.q.q.q.q.q.q.q.",
"q.q.q.q.q.&.<                                                   & j ` q.q.q.q.q.q.q.q.q.q.q.q.q.q.q.",
"q.q.q.q.q.*.<                                               * l [ q.q.q.q.q.q.q.q.q.q.q.q.q.q.q.q.q.",
"q.q.q.q.q.-.1                                           o n q.q.q.q.q.q.q.q.q.q.q.q.q.q.q.q.q.q.q.q.",
"q.q.q.q.q.:.1                                           X x q.q.q.q.q.q.q.q.q.q.q.q.q.q.q.q.q.q.q.q.",
"q.q.q.q.q.<.2                                               ; A q.q.q.q.q.q.q.q.q.q.q.q.q.q.q.q.q.q.",
"q.q.q.q.q.2.3                                                   * f ) q.q.q.q.q.q.q.q.q.q.q.q.q.q.q.",
"q.q.q.q.q.3.5                                                       $ a E q.q.q.q.q.q.q.q.q.q.q.q.q.",
"q.q.q.q.q.5.6                                                           O e K q.q.q.q.q.q.q.q.q.q.q.",
"q.q.q.q.q.6.8                                                                 5 Z q.q.q.q.q.q.q.q.q.",
"q.q.q.q.q.7.0                                                                     , B q.q.q.q.q.q.q.",
"q.q.q.q.q.9.w                                                                         9 ! q.q.q.q.q.",
"q.q.q.q.q.0.7                                                                           # R q.q.q.q.",
"q.q.q.q.q.q.+                         4 6                                                 X I q.q.q.",
"q.q.q.q.q.q.-                         H q.P u #                                             u ,.q.q.",
"q.q.q.q.q.q.4                         G q.q.q.) z -                                         3 E q.q.",
"q.q.q.q.q.q.t                       . L q.q.q.q.q.q.G q .                                   s 4.q.q.",
"q.q.q.q.q.q.l                       - q.q.q.q.q.q.q.q.q.! g &                               G q.q.q.",
"q.q.q.q.q.q.W o                   X K q.q.q.q.q.q.q.q.q.q.q.q.k 3 X                       r q.q.q.q.",
"q.q.q.q.q.q.q.m :               @ V q.q.q.q.q.q.q.q.q.q.q.q.q.q.q.I f $                 u q.q.q.q.q.",
"q.q.q.q.q.q.q.q.q.c 2         0 / q.q.q.q.q.q.q.q.q.q.q.q.q.q.q.q.q.q.q.A q $       = M q.q.q.q.q.q.",
"q.q.q.q.q.q.q.q.q.q.q.+.d < } q.q.q.q.q.q.q.q.q.q.q.q.q.q.q.q.q.q.q.q.q.q.q.;.( 7 P q.q.q.q.q.q.q.q.",
"q.q.q.q.q.q.q.q.q.q.q.q.q.q.q.q.q.q.q.q.q.q.q.q.q.q.q.q.q.q.q.q.q.q.q.q.q.q.q.q.q.q.q.q.q.q.q.q.q.q.",
"q.q.q.q.q.q.q.q.q.q.q.q.q.q.q.q.q.q.q.q.q.q.q.q.q.q.q.q.q.q.q.q.q.q.q.q.q.q.q.q.q.q.q.q.q.q.q.q.q.q."
};
