/* XPM */
static char *result[] = {
/* columns rows colors chars-per-pixel */
"50 50 143 2 ",
"   c #050505",
".  c #0C0B0D",
"X  c #100F0D",
"o  c #13100E",
"O  c #020513",
"+  c #0E0D11",
"@  c #0B0C19",
"#  c #100F11",
"$  c #131214",
"%  c #181513",
"&  c #1D1A15",
"*  c #12131C",
"=  c #1C1B1B",
"-  c #2B1F0E",
";  c #231F15",
":  c #25200E",
">  c #2A230F",
",  c #272214",
"<  c #2B2515",
"1  c #2F2814",
"2  c #24211A",
"3  c #332C15",
"4  c #382E17",
"5  c #302B19",
"6  c #3D3415",
"7  c #36321F",
"8  c #38311D",
"9  c #131621",
"0  c #1F2122",
"q  c #232322",
"w  c #272B2E",
"e  c #2D2D2D",
"r  c #3F3621",
"t  c #413612",
"y  c #463B17",
"u  c #4A3C16",
"i  c #40371B",
"p  c #433A1B",
"a  c #453C28",
"s  c #5A3337",
"d  c #4F4117",
"f  c #4C4119",
"g  c #564515",
"h  c #574817",
"j  c #5A4B16",
"k  c #52451B",
"l  c #5A471A",
"z  c #564A1F",
"x  c #5C4D19",
"c  c #5F511C",
"v  c #655417",
"b  c #6A5516",
"n  c #635219",
"m  c #6B521A",
"M  c #735E19",
"N  c #776316",
"B  c #7A6415",
"V  c #7E6915",
"C  c #75601B",
"Z  c #7B651B",
"A  c #7F6A1A",
"S  c #5C4C22",
"D  c #675524",
"F  c #725E22",
"G  c #74493C",
"H  c #784B3F",
"J  c #755935",
"K  c #7D6020",
"L  c #592A48",
"P  c #663448",
"I  c #763B51",
"U  c #7B3B58",
"Y  c #816917",
"T  c #8B6B15",
"R  c #826A1B",
"E  c #87721B",
"W  c #8B721C",
"Q  c #937116",
"!  c #92771C",
"~  c #957C1C",
"^  c #9B7F1E",
"/  c #896B22",
"(  c #896031",
")  c #963E73",
"_  c #875758",
"`  c #986C4E",
"'  c #A54577",
"]  c #AF4A7F",
"[  c #986760",
"{  c #9D821C",
"}  c #A88117",
"|  c #A3861C",
" . c #A7891C",
".. c #AC8C1C",
"X. c #B58A13",
"o. c #BB8F15",
"O. c #B58F1C",
"+. c #B4931D",
"@. c #B8941D",
"#. c #BD9A1B",
"$. c #A38421",
"%. c #A78A25",
"&. c #AB8C21",
"*. c #BE9B21",
"=. c #C1910F",
"-. c #C49E1D",
";. c #C99E19",
":. c #D8A20F",
">. c #C5A01D",
",. c #CDA61B",
"<. c #CEA91A",
"1. c #D3A517",
"2. c #D2AC17",
"3. c #DCAA16",
"4. c #D4AD1D",
"5. c #D7B11C",
"6. c #DAB21D",
"7. c #E2AA0F",
"8. c #E6B00D",
"9. c #E4B110",
"0. c #EAB511",
"q. c #E0B51B",
"w. c #E5BA1A",
"e. c #EABE1B",
"r. c #F7BE12",
"t. c #C6A220",
"y. c #CCA821",
"u. c #D2AB20",
"i. c #E2BA21",
"p. c #FEC40C",
"a. c #FFCB0E",
"s. c #EDC214",
"d. c #EDC21B",
"f. c #F4C415",
"g. c #FFC611",
"h. c #FDCB16",
"j. c #F3C51B",
"k. c #F5C91C",
"l. c #FDCC19",
"z. c #FFD216",
"x. c #FFD119",
"c. c #AC6C87",
"v. c None",
/* pixels */
"v.v.v.v.v.v.v.v.v.v.v.v.v.v.v.v.v.v.v.v.v.v.v.v.v.v.v.v.v.v.v.v.v.v.v.v.v.v.v.v.v.v.v.v.v.v.v.v.v.v.",
"v.v.v.v.v.v.v.v.v.v.v.v.v.v.v.v.v.v.v.v.v.v.v.v.v.v.v.v.v.v.v.v.v.v.v.v.v.v.v.v.v.v.v.v.v.v.v.v.v.v.",
"v.v.v.v.v.v.v.v.v.v.v.v.v.v.v.v.v.v.v.v.v.v.v.v.v.v.v.v.v.v.v.v.v.0 v.v.v.v.v.v.v.v.v.v.v.v.v.v.v.v.",
"v.v.v.v.v.v.v.v.v.v.v.v.v.v.v.q v.v.v.v.v.v.v.v.v.v.v.v.v.v.v.v.v.v.0 v.v.v.v.v.v.v.v.v.v.v.v.v.v.v.",
"v.v.v.v.v.v.v.v.v.v.v.v.v.v.v.v.v.v.v.v.v.v.v.w = v.v.v.v.v.v.v.v.v.0 v.v.v.v.v.v.v.v.v.v.v.v.v.v.v.",
"v.v.v.v.v.v.v.v.v.v.v.v.v.v.q v.v.v.v.v.v.v.v.v.q v.v.v.v.v.v.v.v.v.v.v.v.v.v.v.v.v.v.v.v.v.v.v.v.v.",
"v.v.v.v.v.v.v.v.v.v.v.v.v.v.= v.v.v.v.v.v.% v.v.v.v.v.v.v.q # v.v.v.v.9 v.v.v.v.v.v.v.v.v.v.v.v.v.v.",
"v.v.v.v.v.v.v.v.v.v.v.v.v.v.= v.v.v.v.v.v.e . v.v.v.v.v.v.q   v.v.v.v.g k v.v.v.v.v.v.v.v.v.v.v.v.v.",
"v.v.v.v.v.v.v.v.v.v.v.v.v.v.& v.v.v.v.v.v.. . v.v.v.v.v.v..   v.v.v.q 3.h.@.f v.v.v.v.v.v.v.v.v.v.v.",
"v.v.v.v.v.v.v.v.v.v.v.v.v.C ;., v.v.v.v.v.v.v.v.$ v.v.v.v.v.v.v.v.v.m h.d.#.y.! & v.v.v.v.v.v.v.v.v.",
"v.v.v.v.v.v.v.v.v.v.v.r +.z.z.} v.v.v.v.v.v.v.D Q v.v.v.v.v.v.v.v.8 :.h.h.y.z 5.t.< v.v.v.v.v.v.v.v.",
"v.v.v.v.v.v.v.v.v.v.S 6.z.h.h.h.o.l v.v.v.v.K 8.p.T v.v.v.v.v.v.a =.a.h.z.d.{ k.x.<.< v.v.v.v.v.v.v.",
"v.v.v.v.v.v.v.v.v.c d.z.h.h.h.h.z.f.;.O.+.1.p.h.h.p.X.b v.v.S Q 7.a.h.g.z.4.| z.h.z.#.= v.v.v.v.v.v.",
"v.v.v.v.v.v.v.v.h d.h.h.h.h.h.h.h.h.z.h.h.h.h.h.h.h.z.g.0.9.r.g.h.h.h.z.h.R 5.h.h.h.x. .$ v.v.v.v.v.",
"v.v.v.v.v.v.v.1 w.z.h.h.h.h.h.h.h.h.h.h.h.h.h.h.h.*.>.e.l.h.h.h.x.l.f.<.( s w.h.h.h.h.z.A v.v.v.v.v.",
"v.v.v.v.v.v.* +.z.h.h.h.h.h.h.h.h.h.h.h.h.h.h.h.h.e.>.&.%.&.....&.%.E P ' U 5.h.h.h.h.h.k.p v.v.v.v.",
"v.v.v.v.v.v.d h.h.h.h.h.h.h.h.h.h.h.h.h.h.h.h.h.h.h.h.h.l.j.j.j.h.l.e.H ] I 5.z.h.h.h.h.z.| O v.v.v.",
"v.v.v.v.v.* ..z.h.h.h.h.h.h.h.h.h.h.h.h.h.h.h.h.z.z.z.z.z.h.h.h.z.l.h./ ) G f.h.h.h.h.h.h.l.d v.v.v.",
"v.v.v.v.v.6 k.h.h.h.h.h.h.h.h.h.h.h.h.h.h.z.l.w.,.+...@.<.h.z.w.R ! ` _ L $.x.h.h.h.h.h.h.z.;.X v.v.",
"v.v.v.v.v.! h.l.h.h.h.h.h.h.h.h.h.h.h.h.l.#.j r v.v.v.v.2 6 ~ 6.Z | [ c.J s.h.h.h.h.h.h.l.l.l.k v.v.",
"v.v.v.v.= ,.h.h.h.h.h.h.h.h.h.h.h.h.h.z.{ $ v.v.v.v.v.v.v.v.v.j i.z.s.2.e.l.h.h.h.h.h.h.h.h.z.{ v.v.",
"v.v.v.v.r j.h.h.h.h.h.j.h.h.h.h.h.h.x.;.% v.v.v.v.v.v.v.v.v.v.v.Z z.h.z.h.h.h.h.h.h.h.h.h.h.h.5.% v.",
"v.v.v.v.u l.h.h.h.h.h.h.h.h.h.h.h.h.j.p v.v.v.v.v.v.v.v.v.v.v.v.% 4.h.h.h.h.h.h.h.h.h.h.h.h.h.d.> v.",
"v.v.v.v.v l.h.h.h.h.h.h.h.h.h.h.h.h...* v.v.v.v.v.v.v.v.v.v.v.v.v.W z.h.h.h.h.h.h.h.h.h.h.h.h.l.t v.",
"v.v.v.v.B z.h.h.h.h.h.h.h.h.h.l.l.x.b v.v.v.v.v.v.v.v.v.v.v.v.v.v.l z.h.h.h.h.h.h.h.h.h.h.h.h.l.v v.",
"v.v.v.v.W x.h.h.h.h.h.h.h.h.h.h.h.l.y v.v.v.v.v.v.v.v.v.v.v.v.v.v.i h.l.h.h.h.h.h.h.h.h.h.h.h.z.A v.",
"v.v.v.v.{ z.h.h.h.h.h.h.h.h.f.h.h.l.f v.v.v.v.v.v.v.v.v.v.v.v.v.v.3 j.h.h.h.h.h.h.h.h.h.h.h.h.z.V v.",
"v.v.v.v.~ z.h.h.l.h.h.h.h.h.l.h.l.l.u v.v.v.v.v.v.v.v.v.v.v.v.v.v.4 k.h.h.h.h.h.h.h.h.h.l.h.h.x.N v.",
"v.v.v.v.V z.h.h.h.h.h.h.h.h.h.h.h.l.b v.v.v.v.v.v.v.v.v.v.v.v.v.v.j l.h.h.h.h.h.h.l.h.h.h.h.h.x.j v.",
"v.v.v.v.M z.h.h.h.h.h.h.h.h.h.h.h.l.O.@ v.v.v.v.v.v.v.v.v.v.v.v.v.^ z.h.h.h.h.h.h.h.h.h.h.h.h.l.6 v.",
"v.v.v.v.z l.h.h.h.h.l.h.h.h.h.h.h.h.j.6 v.v.v.v.v.v.v.v.v.v.v.v.1 e.l.h.h.h.h.h.h.h.h.h.h.h.h.d.: v.",
"v.v.v.v.4 e.h.h.h.h.h.h.h.h.h.h.h.h.x.*.$ v.v.v.v.v.v.v.v.v.v.*  .l.h.h.h.h.h.h.h.h.h.h.h.h.h.5.o v.",
"v.v.v.v.* #.h.h.h.h.h.h.h.h.h.h.h.h.h.l.| ; v.v.v.v.v.v.v.v.O Z z.h.h.h.h.h.h.h.h.h.h.h.h.h.l.| @ v.",
"v.v.v.v.v.v x.h.h.h.h.h.h.h.h.h.h.h.h.h.h.6.v 3 = v.v.v.< u  .l.h.h.h.h.h.h.h.h.h.h.h.h.h.h.x.n v.v.",
"v.v.v.v.v.2 6.l.h.h.h.h.h.h.h.h.h.h.h.h.h.z.h.e.4.#.#.;.6.l.z.h.h.h.h.h.h.h.h.h.h.h.h.h.h.h.w.; v.v.",
"v.v.v.v.v.v.C x.h.h.h.h.h.h.h.h.h.h.h.h.h.h.h.h.h.h.z.z.h.h.h.h.h.h.h.h.h.h.h.h.h.h.h.h.h.x.E v.v.v.",
"v.v.v.v.v.v.& 5.h.h.h.h.l.h.h.h.h.h.h.h.h.h.h.h.h.h.h.h.h.h.h.h.h.h.h.h.h.h.h.h.h.h.h.h.h.6.< v.v.v.",
"v.v.v.v.v.v.v.n x.h.h.h.h.h.h.h.h.h.h.h.h.h.h.h.h.h.h.h.l.h.h.h.h.h.h.l.h.h.h.h.h.h.h.h.x.n v.v.v.v.",
"v.v.v.v.v.v.v.# -.z.h.h.h.h.h.h.h.h.h.h.h.h.h.h.h.h.h.h.h.h.h.h.h.h.h.h.h.h.h.h.h.h.h.z.| $ v.v.v.v.",
"v.v.v.v.v.v.v.v.y k.h.h.h.h.h.h.h.h.h.h.h.h.h.h.h.h.h.h.h.h.h.h.h.h.h.h.h.h.h.h.h.h.z.,.2 v.v.v.v.v.",
"v.v.v.v.v.v.v.v.@ A x.h.h.h.h.h.h.h.h.h.l.h.l.h.h.h.h.h.h.h.h.h.h.h.h.h.h.h.h.h.f.z.6.8 v.v.v.v.v.v.",
"v.v.v.v.v.v.v.v.v.+ { x.h.h.h.h.h.h.h.h.h.h.h.h.h.h.h.h.h.h.h.h.h.h.h.h.h.h.h.h.z.4.6 v.v.v.v.v.v.v.",
"v.v.v.v.v.v.v.v.v.v.$ ^ x.h.h.h.h.h.h.h.h.h.h.h.h.h.h.h.h.l.h.h.h.h.h.h.h.h.l.x. .5 v.v.v.v.v.v.v.v.",
"v.v.v.v.v.v.v.v.v.v.v.# Z d.z.h.h.h.h.h.h.h.h.h.h.h.h.h.h.h.h.h.h.h.h.h.h.z.5.n v.v.v.v.v.v.v.v.v.v.",
"v.v.v.v.v.v.v.v.v.v.v.v.v.3 { d.h.h.h.h.h.h.h.h.l.h.h.h.h.h.h.h.h.l.z.h.2.M ; v.v.v.v.v.v.v.v.v.v.v.",
"v.v.v.v.v.v.v.v.v.v.v.v.v.v.v.6 W 6.x.z.z.h.h.h.h.h.h.h.h.h.h.z.z.j.@.n & v.v.v.v.v.v.v.v.v.v.v.v.v.",
"v.v.v.v.v.v.v.v.v.v.v.v.v.v.v.v.v.; c ^ <.d.l.z.z.z.h.z.x.z.l.5.W p v.v.v.v.v.v.v.v.v.v.v.v.v.v.v.v.",
"v.v.v.v.v.v.v.v.v.v.v.v.v.v.v.v.v.v.v.v.v.6 h K E ! { $.~ Z f ; v.v.v.v.v.v.v.v.v.v.v.v.v.v.v.v.v.v.",
"v.v.v.v.v.v.v.v.v.v.v.v.v.v.v.v.v.v.v.v.v.v.v.v.v.v.v.v.v.v.v.v.v.v.v.v.v.v.v.v.v.v.v.v.v.v.v.v.v.v.",
"v.v.v.v.v.v.v.v.v.v.v.v.v.v.v.v.v.v.v.v.v.v.v.v.v.v.v.v.v.v.v.v.v.v.v.v.v.v.v.v.v.v.v.v.v.v.v.v.v.v."
};
