/* XPM */
static char *result[] = {
/* columns rows colors chars-per-pixel */
"50 50 98 2 ",
"   c #040604",
".  c #0C0C0C",
"X  c #06120A",
"o  c #0C110D",
"O  c #170F13",
"+  c #1B0E13",
"@  c #0D1210",
"#  c #131313",
"$  c #1C1416",
"%  c #1E1418",
"&  c #171C18",
"*  c #1C1C1D",
"=  c #210F16",
"-  c #241016",
";  c #23151A",
":  c #2A141D",
">  c #211B1D",
",  c #29181F",
"<  c #1C211F",
"1  c #1D1F21",
"2  c #2E1B23",
"3  c #351522",
"4  c #3C1525",
"5  c #331A24",
"6  c #3C1827",
"7  c #361E29",
"8  c #3C1B29",
"9  c #1F2324",
"0  c #232425",
"q  c #302529",
"w  c #3D232E",
"e  c #30282D",
"r  c #2A2D31",
"t  c #45172A",
"y  c #471B2E",
"u  c #4A1B2E",
"i  c #4C1D31",
"p  c #541C34",
"a  c #591C36",
"s  c #571F38",
"d  c #5C1D39",
"f  c #631E3C",
"g  c #6B1D3E",
"h  c #44202F",
"j  c #4C2234",
"k  c #542136",
"l  c #56213A",
"z  c #5B223B",
"x  c #512E3C",
"c  c #63213F",
"v  c #69233F",
"b  c #652641",
"n  c #6B2242",
"m  c #682C44",
"M  c #6A2F49",
"N  c #732246",
"B  c #752548",
"V  c #7D234B",
"C  c #7D284D",
"Z  c #70354D",
"A  c #7F2650",
"S  c #703B50",
"D  c #7B3A56",
"F  c #82254F",
"G  c #81294D",
"H  c #872651",
"J  c #8B2654",
"K  c #842A54",
"L  c #8B2855",
"P  c #8F2758",
"I  c #902757",
"U  c #922857",
"Y  c #95275B",
"T  c #9A275B",
"R  c #932A59",
"E  c #9B2A5D",
"W  c #813756",
"Q  c #A02C5F",
"!  c #9E2B61",
"~  c #A42C63",
"^  c #AB2E66",
"/  c #AD2E69",
"(  c #B32E6C",
")  c #B6306D",
"_  c #BB2F71",
"`  c #BD3172",
"'  c #C12F74",
"]  c #C33176",
"[  c #C83377",
"{  c #C73378",
"}  c #CC337B",
"|  c #D1337E",
" . c #8C4E67",
".. c #A64C75",
"X. c #D53481",
"o. c #D93582",
"O. c #E13687",
"+. c None",
/* pixels */
"+.+.+.+.+.+.+.+.+.+.+.+.+.+.+.+.+.+.+.+.+.+.+.+.+.+.+.+.+.+.+.+.+.+.+.+.+.+.+.+.+.+.+.+.+.+.+.+.+.+.",
"+.+.+.+.+.+.+.+.+.+.+.+.+.+.+.+.+.+.+.+.+.+.+.+.+.+.+.+.+.+.+.+.+.+.+.+.+.+.+.+.+.+.+.+.+.+.+.+.+.+.",
"+.+.+.+.+.+.+.+.+.+.+.+.+.+.+.+.+.+.+.+.+.+.+.+.+.+.+.+.+.+.+.+.+.+.+.+.+.+.+.+.+.+.+.+.+.+.+.+.+.+.",
"+.+.+.+.+.+.+.+.+.+.+.+.+.+.+.+.+.+.+.+.+.+.+.+.+.+.* +.+.+.+.0 +.+.+.+.+.+.+.+.+.+.+.+.+.+.+.+.+.+.",
"+.+.+.+.+.+.+.+.+.+.+.+.+.+.+.+.+.+.+.+.+.+.+.0 +.0 +.+.+.+.+.+.* +.+.+.+.+.+.+.+.+.+.+.+.+.+.+.+.+.",
"+.+.+.+.+.+.+.+.+.+.+.+.+.+.+.+.+.* +.+.+.+.+.+.* +.+.+.+.+.+.+.r +.+.+.+.+.+.+.+.+.+.+.+.+.+.+.+.+.",
"+.+.+.+.+.+.+.+.+.+.+.+.+.+.+.+.+.+.+.+.+.+.+.+.9 +.+.+.+.+.+.+.+.+.+.+.+.+.+.+.+.+.+.+.+.+.+.+.+.+.",
"+.+.+.+.+.+.+.+.+.+.+.+.+.+.+.+.. +.+.+.+.+.1 * 9 +.+.+.# # +.+.+.+.+.+.+.+.+.+.+.+.+.+.+.+.+.+.+.+.",
"+.+.+.+.+.+.+.+.+.+.+.+.+.$ k H R ; +.+.+.+.# # * +.+.+.. # +.+.e i ; +.+.+.+.+.+.+.+.+.+.+.+.+.+.+.",
"+.+.+.+.+.+.+.+.+.+.+.+.a ^ X.X.o.N +.+.+.+.+.+.7 +.+.+.+.+.+.+.s X.( s +.+.+.+.+.+.+.+.+.+.+.+.+.+.",
"+.+.+.+.+.+.+.+.+.+.: Y X.X.| | X.{ b +.+.+.+.l ( n +.+.+.+.+.l _ X.X.X.L : +.+.+.+.+.+.+.+.+.+.+.+.",
"+.+.+.+.+.+.+.+.+.u ` o.| | | | } X.X./ K K E [ X.} H z k l C ] | | | | o.) t +.+.+.+.+.+.+.+.+.+.+.",
"+.+.+.+.+.+.+.+.t { X.} | | | | X.| | X.X.o.o.o.o.o.o.X.{ } X.| | | | | | o.} p +.+.+.+.+.+.+.+.+.+.",
"+.+.+.+.+.+.+.6 ` X.| | | | | | } X.| | o.} ~ H N V E ` X.X.X.| | | | | | | | | s +.+.+.+.+.+.+.+.+.",
"+.+.+.+.+.+.+.I o.| | | | | | | | | X._ B h +.+.+.+.+.5 d ( X.| | | | | | | | | ] 6 +.+.+.+.+.+.+.+.",
"+.+.+.+.+.+.2 ` | | | | | | | | | X.U 2 +.+.+.+.+.+.+.+.+.: U X.| | | | | | | | X.( : +.+.+.+.+.+.+.",
"+.+.+.+.+.+.u | | | | | | | | | X.~ $ +.+.+.+.+.+.+.+.+.+.+.- ( X.| | | | | ] } | o.H & +.+.+.+.+.+.",
"+.+.+.+.+.+.a o.| | | | | | | | X.a +.+.+.+.+.+.+.+.+.+.+.+.+.N o.| | | | | / c Q o.} 4 +.+.+.+.+.+.",
"+.+.+.+.+.+.g o.| | | | | | | | ] : +.+.+.+.+.+.+.+.+.+.+.+.+.p X.| | | } | o.C ( | X.J < +.+.+.+.+.",
"+.+.+.+.+.+.n o.| | | | | | | | ( + +.+.+.+.+.+.+.+.+.+.+.+.+.p X.| | | | | o.G ] | | } 5 +.+.+.+.+.",
"+.+.+.+.+.+.u X.| | | | | | | | ] : +.+.+.+.+.+.+.+.+.+.+.+.@ H o.| | | X.| ( c | | | o.f +.+.+.+.+.",
"+.+.+.+.+.+.5 ] X.| | | | | | | o.B X +.+.+.+.+.+.+.+.+.+.+.i } | } } ] ) L m z [ | | o.I +.+.+.+.+.",
"+.+.+.+.+.+.. F o.| | | | | | | | | d . +.+.+.+.+.+.+.+.+.4 ` ~ H L U Y E k ..Z _ | | o./ > +.+.+.+.",
"+.+.+.+.+.+.+.: [ | | | | | | | | | | E z 5 +.+.+.+.+.5 N ] X.} | | | o.O.E D M ' | | X._ 7 +.+.+.+.",
"+.+.+.+.+.+.+.+.n | | | | | | | | | | X.X.` ~ J B H ~ ' o.X.| | X.X.] Y R W x v | | | X.} w +.+.+.+.",
"+.+.+.+.+.+.+.+.$ E O.| | | | | | | | | | X.o.o.o.X.X.X.| | | | } X._ a n  .S ^ o.| | | | j +.+.+.+.",
"+.+.+.+.+.+.+.+.+.: ) o.| | | | | | | | | | } | | | | | | | | | X.| } ] X.] ' | | | | | | h +.+.+.+.",
"+.+.+.+.+.+.+.+.+.+.- H | X.| | | | | | | | | | | | | | | | | | } | X.| | X.| | | | | | [ w +.+.+.+.",
"+.+.+.+.+.+.+.+.+.+.+.  p ` o.X.| | | | | | | | | X.| | | | | | | | } | | | | } | | | X.) 2 +.+.+.+.",
"+.+.+.+.+.+.+.+.+.+.+.+.+.: n / | o.o.| | X.X.X.X.X.o.| } X.| | | | X.| | | | | | | | o.E $ +.+.+.+.",
"+.+.+.+.+.+.+.+.+.+.+.+.+.+.+.O i B E ( ` ` ` _ ( ! J [ | | | | | | | | | | | | | | | o.V +.+.+.+.+.",
"+.+.+.+.+.+.+.+.+.+.+.+.+.+.+.+.+.+.+.; , : : ; ; +.+.i { | | | | | | | | | | | | | | X.a +.+.+.+.+.",
"+.+.+.+.+.+.+.+.+.+.+.+.+.+.+.+.+.+.+.+.+.+.+.+.+.+.+.# E X.| | | | | | | | | X.| } | ' 5 +.+.+.+.+.",
"+.+.+.+.+.+.+.+.+.+.+.+.+.+.+.+.+.+.+.+.+.+.+.+.+.+.+.o Y X.| | | | | | | | | } | X.X.I * +.+.+.+.+.",
"+.+.+.+.+.+.+.+.+.+.+.+.+.+.+.+.+.+.+.+.+.+.+.+.+.+.+.; _ X.| | | | | | | | | | | | | u +.+.+.+.+.+.",
"+.+.+.+.+.+.+.+.+.+.+.: v 8 +.+.+.+.+.+.+.+.+.+.+.+.$ J X.| | | | | | } | | | | X.X./ % +.+.+.+.+.+.",
"+.+.+.+.+.+.+.+.+.+.+.H o.} R a 6 q +.+.+.+.+.+.+.8 ~ X.| | | | | | | | | | | | | | f +.+.+.+.+.+.+.",
"+.+.+.+.+.+.+.+.+.+.t | | | o.| { / H n a c d d I { X.| | | | | | | | | X.} } | o.~ $ +.+.+.+.+.+.+.",
"+.+.+.+.+.+.+.+.+.; ^ o.| | | | X.X.X.o.o.o.X.o.o.| | | | | } | | | | | | } X.| } t +.+.+.+.+.+.+.+.",
"+.+.+.+.+.+.+.+.+.c o.| | | | | X.} X.X.} X.| | X.| | | | | | | | | | | | | X.X.n +.+.+.+.+.+.+.+.+.",
"+.+.+.+.+.+.+.+., ) X.| | | | | | | | | | | | | | | | | | | | | | | | | | | o.V # +.+.+.+.+.+.+.+.+.",
"+.+.+.+.+.+.+.+.N X.| | | | | | | | | | | | | | } | | | | | | | | | | | | | F # +.+.+.+.+.+.+.+.+.+.",
"+.+.+.+.+.+.+.5 ] | | | | | | | | | | | } | | | X.| | | | | | | | | | | o.F # +.+.+.+.+.+.+.+.+.+.+.",
"+.+.+.+.+.+.+.f o.X.| | | | | | | | | | | | | | | | | | | | | | | | o.| B & +.+.+.+.+.+.+.+.+.+.+.+.",
"+.+.+.+.+.+.+.$ p ! } X.X.| X.| | | | | X.} X.} } | | } | | | | | | ~ p +.+.+.+.+.+.+.+.+.+.+.+.+.+.",
"+.+.+.+.+.+.+.+.+.+.4 c L ) } | o.X.X.| } X.} X.X.| | X.| X.X.} ~ c +.+.+.+.+.+.+.+.+.+.+.+.+.+.+.+.",
"+.+.+.+.+.+.+.+.+.+.+.+.+.- t k A ! ( ] X.X.o.o.o.X.X.| ] ^ C u +.+.+.+.+.+.+.+.+.+.+.+.+.+.+.+.+.+.",
"+.+.+.+.+.+.+.+.+.+.+.+.+.+.+.+.+.+.+.3 y s n b b b z i : +.+.+.+.+.+.+.+.+.+.+.+.+.+.+.+.+.+.+.+.+.",
"+.+.+.+.+.+.+.+.+.+.+.+.+.+.+.+.+.+.+.+.+.+.+.+.+.+.+.+.+.+.+.+.+.+.+.+.+.+.+.+.+.+.+.+.+.+.+.+.+.+.",
"+.+.+.+.+.+.+.+.+.+.+.+.+.+.+.+.+.+.+.+.+.+.+.+.+.+.+.+.+.+.+.+.+.+.+.+.+.+.+.+.+.+.+.+.+.+.+.+.+.+."
};
