/* XPM */
static char *result[] = {
/* columns rows colors chars-per-pixel */
"50 50 128 2 ",
"   c #0C0B0B",
".  c #0B0E1B",
"X  c #131313",
"o  c #1A1715",
"O  c #10111A",
"+  c #191919",
"@  c #231B15",
"#  c #211D1B",
"$  c #2F2417",
"%  c #272018",
"&  c #28211A",
"*  c #332613",
"=  c #372817",
"-  c #3C2C15",
";  c #33271B",
":  c #36291B",
">  c #3C2D1C",
",  c #3F311E",
"<  c #1A1B20",
"1  c #212223",
"2  c #2E2F2F",
"3  c #322A24",
"4  c #392D20",
"5  c #362E28",
"6  c #3C3126",
"7  c #393229",
"8  c #222931",
"9  c #2B2E31",
"0  c #2F3131",
"q  c #313334",
"w  c #353638",
"e  c #493517",
"r  c #45331C",
"t  c #49361C",
"y  c #4F3A1D",
"u  c #533D1D",
"i  c #593F1F",
"p  c #433625",
"a  c #443826",
"s  c #4D3A21",
"d  c #4D3E29",
"f  c #51332E",
"g  c #653C35",
"h  c #5C421D",
"j  c #62451D",
"k  c #65491C",
"l  c #694B1F",
"z  c #534124",
"x  c #5D4421",
"c  c #614722",
"v  c #664B22",
"b  c #6A4D23",
"n  c #6F4E2E",
"m  c #734D2F",
"M  c #794E2C",
"N  c #6D5021",
"B  c #6F5228",
"V  c #755623",
"C  c #795623",
"Z  c #7B5925",
"A  c #775A2C",
"S  c #7C5D2B",
"D  c #75473B",
"F  c #733C4F",
"G  c #7F3762",
"H  c #845E24",
"J  c #875F2A",
"K  c #8E5E34",
"L  c #915D37",
"P  c #846125",
"I  c #8C6326",
"U  c #876228",
"Y  c #8E662A",
"T  c #8F6829",
"R  c #966C26",
"E  c #9B6E26",
"W  c #956B2A",
"Q  c #996E29",
"!  c #9F7328",
"~  c #9A6A32",
"^  c #A47226",
"/  c #AD7925",
"(  c #A2742B",
")  c #A77829",
"_  c #AD7A2B",
"`  c #B37E2C",
"'  c #AE7C30",
"]  c #AF7A39",
"[  c #833B62",
"{  c #9D4375",
"}  c #B3802E",
"|  c #BB842C",
" . c #B78230",
".. c #B9823C",
"X. c #C1872B",
"o. c #C38B2C",
"O. c #CB8D2D",
"+. c #CE912C",
"@. c #D4952E",
"#. c #D8962E",
"$. c #D6992C",
"%. c #DC9A2E",
"&. c #C38830",
"*. c #D69630",
"=. c #D79930",
"-. c #DE9D31",
";. c #E19D2E",
":. c #E99F28",
">. c #E29F30",
",. c #EDA123",
"<. c #E5A12E",
"1. c #EDA62E",
"2. c #EFA92D",
"3. c #F0A62E",
"4. c #F4AA2D",
"5. c #FDAE2D",
"6. c #FFB22D",
"7. c #FFBA2E",
"8. c #E5A231",
"9. c #EDA531",
"0. c #E7A538",
"q. c #F5AB31",
"w. c #FBAE31",
"e. c #FFB330",
"r. c #FFBB32",
"t. c #9E6284",
"y. c #A9678D",
"u. c None",
/* pixels */
"u.u.u.u.u.u.u.u.u.u.u.u.u.u.u.u.u.u.u.u.u.u.u.u.u.u.u.u.u.u.u.u.u.u.u.u.u.u.u.u.u.u.u.u.u.u.u.u.u.u.",
"u.u.u.u.u.u.u.u.u.u.u.u.u.u.u.u.u.u.u.u.u.u.u.u.u.u.u.u.u.u.u.u.u.u.u.u.u.u.u.u.u.u.u.u.u.u.u.u.u.u.",
"u.u.u.u.u.u.u.u.u.u.u.u.u.u.u.u.u.u.u.u.u.u.u.u.u.u.u.u.u.u.u.u.u.u.u.u.u.u.u.u.u.u.u.u.u.u.u.u.u.u.",
"u.u.u.u.u.u.u.u.u.u.u.u.u.u.0 u.u.u.u.u.u.u.u.u.u.u.u.u.u.u.u.u.u.u.u.u.u.u.u.u.u.u.u.u.u.u.u.u.u.u.",
"u.u.u.u.u.u.u.u.u.u.u.u.u.u.q u.u.u.u.u.u.u.u.1 u.u.u.u.u.u.u.u.u.u.u.u.u.u.u.u.u.u.u.u.u.u.u.u.u.u.",
"u.u.u.u.u.u.u.u.u.u.u.u.u.u.u.u.u.u.u.u.u.u.u.w u.u.u.u.u.u.u.u.u.u.u.u.u.u.u.u.u.u.u.u.u.u.u.u.u.u.",
"u.u.u.u.u.u.u.u.u.u.u.u.u.u.u.u.u.o + u.u.u.u.0 0   u.u.u.u.u.u.u.u.u.u.u.u.u.u.u.u.u.u.u.u.u.u.u.u.",
"u.u.u.u.u.u.u.u.u.u.u.u., t q u.u.X   u.u.u.u.8 u.  u.u.u.u.u.3 z x j j j b b x s v p u.u.u.u.u.u.u.",
"u.u.u.u.u.u.u.u.u.u.u.u.} e.W u.u.u.u.u.u.u.u.x u.u.u.u.u.u.u.` e.q.w.5.5.w.w.w.w.6.S u.u.u.u.u.u.u.",
"u.u.u.u.u.u.u.u.u.u.u.u.) 6.e.T u.u.u.u.u.u.Z ,./ u.u.u.u.B | 6.5.5.5.5.5.5.5.5.6.6.H u.u.u.u.u.u.u.",
"u.u.u.u.u.u.u.u.u.u.u.u.! 7.%.O.} J u.u.A ^ ,.5.6.1.O.o.@.4.5.5.5.5.5.5.5.5.5.5.5.6.Q u.u.u.u.u.u.u.",
"u.u.u.u.u.u.u.u.u.u.u.u.R | c -.6.5.,.:.4.5.5.5.5.5.6.6.5.5.5.5.5.5.5.5.5.5.5.5.5.e.( u.u.u.u.u.u.u.",
"u.u.u.u.u.u.u.u.u.u.u.u.S 0.Y q.5.6.6.5.5.5.5.5.5.5.5.5.5.5.5.5.5.5.5.5.5.5.5.5.5.e.( u.u.u.u.u.u.u.",
"u.u.u.u.u.u.u.u.u.u.u.u.S r.) O.6.5.5.5.5.5.5.5.5.5.5.5.5.5.5.5.5.5.5.5.5.5.5.5.5.6.( u.u.u.u.u.u.u.",
"u.u.u.u.u.u.u.u.u.u.u.u.v e.1.Z $.5.6.6.5.6.6.6.5.4.5.5.5.5.5.5.5.5.5.5.5.5.5.5.6.6._ u.u.u.u.u.u.u.",
"u.u.u.u.u.u.u.u.u.u.u.u.x e.6.M F L ` O.+.o.| } ` | 4.5.5.5.5.5.5.5.5.5.5.5.5.5.6.6.| u.u.u.u.u.u.u.",
"u.u.u.u.u.u.u.u.u.u.u.u.y 5.6.K { { g @.%.#.-.<.4.5.6.5.5.6.5.6.6.6.5.6.6.5.6.5.6.6.O.u.u.u.u.u.u.u.",
"u.u.u.u.u.u.u.u.u.u.u.u.r q.6._ [ { W 7.7.6.6.6.4.1.4.1.3.3.3.3.3.3.3.1.3.3.3.3.3.9.| X u.u.u.u.u.u.",
"u.u.u.u.u.u.u.u.u.u.u.u.: 9.6.2.D G m ..&.E #.9.t p e t t t t t t t t t t t t r e - p u.u.u.u.u.u.u.",
"u.u.u.u.u.u.u.u.u.u.u.u.@ ;.6.6.@.f y.y.n P ' w.a u.u.u.u.u.u.u.u.u.u.u.u.u.u.u.u.u.u.u.u.u.u.u.u.u.",
"u.u.u.u.u.u.u.u.u.u.u.u.% %.6.5.5.@.' o.4.q.4.q.d u.u.u.u.u.u.u.u.u.u.u.u.u.u.u.u.u.u.u.u.u.u.u.u.u.",
"u.u.u.u.u.u.u.u.u.u.u.u.  O.6.5.5.5.5.6.5.5.6.9.6 u.u.u.u.u.u.u.u.u.u.u.u.u.u.u.u.u.u.u.u.u.u.u.u.u.",
"u.u.u.u.u.u.u.u.u.u.u.u.X | 6.5.5.5.5.5.5.5.5.4.b z u e r - u.u.u.u.u.u.u.u.u.u.u.u.u.u.u.u.u.u.u.u.",
"u.u.u.u.u.u.u.u.u.u.u.u.u.| e.5.5.5.5.5.5.5.5.5.5.5.q.4.1.<.#.o.( Z y u.u.u.u.u.u.u.u.u.u.u.u.u.u.u.",
"u.u.u.u.u.u.u.u.u.u.u.u.u.( 6.6.5.5.5.5.5.5.5.5.5.5.5.5.5.6.6.6.6.6.4.o.Z ; u.u.u.u.u.u.u.u.u.u.u.u.",
"u.u.u.u.u.u.u.u.u.u.u.u.u.E 6.5.5.5.5.5.5.5.5.5.5.5.5.5.5.5.5.5.6.4.6.6.6.-.A & u.u.u.u.u.u.u.u.u.u.",
"u.u.u.u.u.u.u.u.u.u.u.u.u.Z 6.6.5.5.5.5.5.5.5.5.5.5.5.5.5.5.5.5.5.5.5.5.6.6.e.| > u.u.u.u.u.u.u.u.u.",
"u.u.u.u.u.u.u.u.u.u.u.u.u.V 7.6.6.5.6.6.6.6.6.6.6.6.5.5.5.5.5.5.5.5.5.5.5.5.5.6.%.s u.u.u.u.u.u.u.u.",
"u.u.u.u.u.u.u.u.u.u.u.u.u.y *.#.#.#.%.%.#.*.*.#.%.9.e.e.5.5.5.5.5.5.5.5.5.5.5.5.6.<.t u.u.u.u.u.u.u.",
"u.u.u.u.u.u.u.u.u.u.u.u.u.u.3 u.5 5 7 7 3 u.u.u.7 s v ) 1.6.5.5.5.5.5.5.5.5.5.5.6.6.+.@ u.u.u.u.u.u.",
"u.u.u.u.u.u.u.u.u.u.u.u.u.u.u.u.u.u.u.u.u.u.u.u.u.u.u.u., I q.6.5.5.5.5.5.5.5.5.5.5.6.P u.u.u.u.u.u.",
"u.u.u.u.u.u.u.u.u.u.u.u.u.u.u.u.u.u.u.u.u.u.u.u.u.u.u.u.u.u.h 1.6.5.5.5.5.5.5.5.5.5.6.9.= u.u.u.u.u.",
"u.u.u.u.u.u.u.u.u.u.u.u.u.u.u.u.u.u.u.u.u.u.u.u.u.u.u.u.u.u.u.j e.5.5.5.5.5.5.5.5.5.5.6.H u.u.u.u.u.",
"u.u.u.u.u.u.u.u.u.u.u.u.u.u.u.u.u.u.u.u.u.u.u.u.u.u.u.u.u.u.u.O Q 6.5.5.5.5.5.5.5.5.5.6.| + u.u.u.u.",
"u.u.u.u.u.u.u.u.u.u.u.u.u.u.u.u.u.u.u.u.u.u.u.u.u.u.u.u.u.u.u.u.t w.5.5.5.5.5.5.5.5.5.6.@.# u.u.u.u.",
"u.u.u.u.u.u.u.u.u.u.u.u.u.u.u.u.u.u.u.u.u.u.u.u.u.u.u.u.u.u.u.u.* q.6.5.5.5.5.5.5.5.5.5.1.; u.u.u.u.",
"u.u.u.u.u.u.u.u.u.u.u.u.u.u.u.u.u.u.u.u.u.u.u.u.u.u.u.u.u.u.u.u.e w.5.5.5.5.5.5.5.5.5.6.q.* u.u.u.u.",
"u.u.u.u.u.u.u.u.u.u.u.u.u.u.= P r u.u.u.u.u.u.u.u.u.u.u.u.u.u.. U e.5.5.5.5.5.5.5.5.5.6.1.& u.u.u.u.",
"u.u.u.u.u.u.u.u.u.u.u.u.u.b ;.e.9.U 4 u.u.u.u.u.u.u.u.u.u.u.u.> >.6.5.5.5.5.5.5.5.5.5.6.X.1 u.u.u.u.",
"u.u.u.u.u.u.u.u.u.u.u.; ( e.6.5.6.6.%.Q c : u.u.u.u.u.u.u.o s #.6.5.5.5.5.5.5.5.5.5.5.6.k u.u.u.u.u.",
"u.u.u.u.u.u.u.u.u.u.h *.e.5.5.5.5.5.6.6.e.8.| W C N l Z ( +.w.6.5.5.5.5.5.5.5.5.5.5.6.o.o u.u.u.u.u.",
"u.u.u.u.u.u.u.u.& W 5.6.4.6.5.5.5.5.5.5.5.5.6.6.e.e.6.6.6.6.5.5.5.5.5.5.5.5.5.5.5.6.8.r u.u.u.u.u.u.",
"u.u.u.u.u.u.u.X ` 7.6.5.5.5.5.5.5.5.5.5.5.5.5.5.5.5.5.5.5.5.5.5.5.5.5.5.5.5.6.5.6.<.u u.u.u.u.u.u.u.",
"u.u.u.u.u.u.u.u.s _ 6.6.5.5.5.5.5.5.5.5.5.6.5.5.5.5.5.5.5.5.5.5.5.5.5.5.5.5.6.6.o.6 u.u.u.u.u.u.u.u.",
"u.u.u.u.u.u.u.u.u.u.c o.6.6.6.5.5.5.5.5.5.5.5.5.5.5.5.5.5.5.5.5.5.5.5.5.5.6.q.W @ u.u.u.u.u.u.u.u.u.",
"u.u.u.u.u.u.u.u.u.u.u.u.N O.6.6.5.5.5.5.5.5.5.5.5.5.5.5.5.5.5.5.5.5.5.6.4.` s u.u.u.u.u.u.u.u.u.u.u.",
"u.u.u.u.u.u.u.u.u.u.u.u.u.u.c | q.7.6.5.5.6.5.5.5.5.5.6.6.6.6.6.6.6.%.W s u.u.u.u.u.u.u.u.u.u.u.u.u.",
"u.u.u.u.u.u.u.u.u.u.u.u.u.u.u.u.s H _ *.>.q.w.e.e.e.5.w.9.8.O.` I v 6 u.u.u.u.u.u.u.u.u.u.u.u.u.u.u.",
"u.u.u.u.u.u.u.u.u.u.u.u.u.u.u.u.u.u.u.u.4 t h k k k h u r u.u.u.u.u.u.u.u.u.u.u.u.u.u.u.u.u.u.u.u.u.",
"u.u.u.u.u.u.u.u.u.u.u.u.u.u.u.u.u.u.u.u.u.u.u.u.u.u.u.u.u.u.u.u.u.u.u.u.u.u.u.u.u.u.u.u.u.u.u.u.u.u."
};
