/* XPM */
static char *result[] = {
/* columns rows colors chars-per-pixel */
"50 50 104 2 ",
"   c #020302",
".  c #0C0C0C",
"X  c #0F130F",
"o  c #0E0E11",
"O  c #120D15",
"+  c #0F1011",
"@  c #131314",
"#  c #151916",
"$  c #161219",
"%  c #1A141C",
"&  c #1C1C1D",
"*  c #1E1521",
"=  c #1E1C21",
"-  c #201524",
";  c #221A25",
":  c #241528",
">  c #261B2A",
",  c #291C2D",
"<  c #2E1D33",
"1  c #301D34",
"2  c #331F39",
"3  c #1F2223",
"4  c #222423",
"5  c #24262A",
"6  c #29212D",
"7  c #35252A",
"8  c #3B282F",
"9  c #2E2232",
"0  c #312237",
"q  c #3F2737",
"w  c #332937",
"e  c #35223B",
"r  c #38233F",
"t  c #333638",
"y  c #3C2543",
"u  c #3F2449",
"i  c #3E2C4B",
"p  c #41264A",
"a  c #442A4C",
"s  c #413345",
"d  c #45304D",
"f  c #5B3B47",
"g  c #4A2C53",
"h  c #4F2E5B",
"j  c #512E5A",
"k  c #463151",
"l  c #4D3056",
"z  c #4F3059",
"x  c #53315C",
"c  c #563261",
"v  c #5A3465",
"b  c #5D3569",
"n  c #5F396A",
"m  c #653B62",
"M  c #61366C",
"N  c #623A6D",
"B  c #6B3F6A",
"V  c #653572",
"C  c #663A73",
"Z  c #6B3D76",
"A  c #6C3D7A",
"S  c #703E7E",
"D  c #62414E",
"F  c #704858",
"G  c #7E5364",
"H  c #6E407D",
"J  c #70407E",
"K  c #885466",
"L  c #985E74",
"P  c #9A607F",
"I  c #743F83",
"U  c #754284",
"Y  c #794485",
"T  c #7D458C",
"R  c #7F4790",
"E  c #7E4890",
"W  c #81468F",
"Q  c #80488F",
"!  c #824692",
"~  c #854995",
"^  c #894A97",
"/  c #874B98",
"(  c #8D4C9E",
")  c #904D9F",
"_  c #B76F8F",
"`  c #B6708C",
"'  c #BA728E",
"]  c #8F4DA1",
"[  c #914EA3",
"{  c #944FA8",
"}  c #9250A4",
"|  c #C07694",
" . c #C97A98",
".. c #D27E9F",
"X. c #D47EA1",
"o. c #E087AA",
"O. c #E78AAE",
"+. c #EE8EB3",
"@. c #F38FB5",
"#. c #F48FB9",
"$. c #FB94BE",
"%. c #FF96C1",
"&. c #FF99C5",
"*. c None",
/* pixels */
"*.*.*.*.*.*.*.*.*.*.*.*.*.*.*.*.*.*.*.*.*.*.*.*.*.*.*.*.*.*.*.*.*.*.*.*.*.*.*.*.*.*.*.*.*.*.*.*.*.*.",
"*.*.*.*.*.*.*.*.*.*.*.*.*.*.*.*.*.*.*.*.*.*.*.*.*.*.*.*.*.*.*.*.*.*.*.*.*.*.*.*.*.*.*.*.*.*.*.*.*.*.",
"*.*.*.*.*.*.*.*.*.*.*.*.*.*.*.*.*.*.*.*.*.*.*.*.*.= *.*.*.*.*.= *.*.*.*.*.*.*.*.*.*.*.*.*.*.*.*.*.*.",
"*.*.*.*.*.*.*.*.*.*.*.*.*.*.*.*.= *.*.*.*.*.5 & 4 *.*.*.*.*.*.*.3 *.*.*.*.*.*.*.*.*.*.*.*.*.*.*.*.*.",
"*.*.*.*.*.*.*.*.*.*.*.*.*.*.*.4 *.*.*.*.*.*.*.& *.*.*.*.*.*.*.*.5 *.*.*.*.*.*.*.*.*.*.*.*.*.*.*.*.*.",
"*.*.*.*.*.*.*.*.*.*.*.*.*.*.*.4 *.*.*.*.*.# *.= *.*.*.*.& *.*.*.t *.*.*.*.*.*.*.*.*.*.*.*.*.*.*.*.*.",
"*.*.*.*.*.*.*.*.*.*.*.*.*.*.*.= *.*.*.*.*.# . 4 *.*.*.*.# . *.*.3 *.*.*.*.*.*.*.*.*.*.*.*.*.*.*.*.*.",
"*.*.*.*.*.*.*.*.*.*.*.*.*.*.*.& *.*.*.*.*.@ *.4 *.*.*.*.O *.*.*.% 9 *.*.*.*.*.*.*.*.*.*.*.*.*.*.*.*.",
"*.*.*.*.*.*.*.*.*.*.*.*.*.; a J l *.*.*.*.*.*.g e *.*.*.*.*.*.6 A ~ M e $ *.*.*.*.*.*.*.*.*.*.*.*.*.",
"*.*.*.*.*.*.*.*.*.*.*.*.p T [ [ ( M d *.*.k b ( Y a *.*.*.*.i A [ [ } ) Z * *.*.*.*.*.*.*.*.*.*.*.*.",
"*.*.*.*.*.*.*.*.*.*.*.g [ [ ( ( ( [ ( ! ! ( } } { ] I V V S ^ [ ( ( ( ( [ U * *.*.*.*.*.*.*.*.*.*.*.",
"*.*.*.*.*.*.*.*.*.*.0 ( ) ( ( ( ( ( ( [ ] T C x a p g c I [ ] ( ( T ! ( [ { Z + *.*.*.*.*.*.*.*.*.*.",
"*.*.*.*.*.*.*.*.*.$ U ) ( ( ( ) ( ( [ T a * *.*.*.*.*.*.@ y / ] ^ v g p g ! ] y *.*.*.*.*.*.*.*.*.*.",
"*.*.*.*.*.*.*.*.*.y [ ( ( ( ( ( ( ] T > *.*.*.*.*.*.*.*.*.. a [ ( [ [ V : u ( B # *.*.*.*.*.*.*.*.*.",
"*.*.*.*.*.*.*.*.X v } ( ( ( ( ( ( ) y *.*.*.*.*.*.*.*.*.*.*.* / ( ( [ A a M H m 8 *.*.*.*.*.*.*.*.*.",
"*.*.*.*.*.*.*.*.  n [ ( ( ( ( ( ) ! $ *.*.*.*.*.*.*.*.*.*.*.* ~ ) ( [ x F | O.@.@.o.` D *.*.*.*.*.*.",
"*.*.*.*.*.*.*.*.*.x } ( ( ( ( ( ] Q O *.*.*.*.*.*.*.*.*.*.*.< [ ( ( ] e K  .#.%.%.%.&.$.L % *.*.*.*.",
"*.*.*.*.*.*.*.*.*.a } ( ( ( ( ( ( ( 1 *.*.*.*.*.*.*.*.*.*.. N ] ( ] R , L ' X.#.%.%.%.&.+.7 *.*.*.*.",
"*.*.*.*.*.*.*.*.*., ^ ( ( ( ( ( ( [ Q 1 . *.*.*.*.*.*.*.> M [ ( ) ) a b ~ I A q G ' o._ f *.*.*.*.*.",
"*.*.*.*.*.*.*.*.*.@ A [ ( ( ( ( ( ( ( ( C a > % $ % y b ! [ [ [ T j b [ [ { V + *.*.*.*.*.*.*.*.*.*.",
"*.*.*.*.*.*.*.*.*.*., ^ [ ( ( ( ( ( ( ( [ [ ~ Y U Q ] [ ^ Q A c j U [ ) [ Y $ *.*.*.*.*.*.*.*.*.*.*.",
"*.*.*.*.*.*.*.*.*.*.*.r ( [ ( ( ( ( ( ( ( ( ( [ ) [ A j c b V T ( [ ( [ C % *.*.*.*.*.*.*.*.*.*.*.*.",
"*.*.*.*.*.*.*.*.*.*.*.+ r T [ [ ( ( ( ( ( ( ( ( ( ( ( ^ ( ] [ ] [ [ ~ j O *.*.*.*.*.*.*.*.*.*.*.*.*.",
"*.*.*.*.*.*.*.*.*.*.*.*.*.- g T ] [ ( ( ( ( ( ( ( ( ( ( ( ] [ ^ A g % *.*.*.*.*.*.*.*.*.*.*.*.*.*.*.",
"*.*.*.*.*.*.*.*.*.*.*.*.*.*.*.& < b / ( ( ( ( ( ( ( ( ( ( ( [ C - @ *.*.*.*.*.*.*.*.*.*.*.*.*.*.*.*.",
"*.*.*.*.*.*.*.*.*.*.*.*.*.*.*.9 2 j ~ ] ( ( ( ( ( ( ( ( ( ( ( ( / U c p 9 *.*.*.*.*.*.*.*.*.*.*.*.*.",
"*.*.*.*.*.*.*.*.*.*.*.*.> a S ~ [ [ ( ( ( ( ( ( ( ( ( ( ( ( ( ( ( [ [ } ~ C r $ *.*.*.*.*.*.*.*.*.*.",
"*.*.*.*.*.*.*.*.*.*., x ! } [ ] ( ) ( ( ( ( ( ( ( ( ( ( ( ( ( ( ( ( ( ( ( { ] A e *.*.*.*.*.*.*.*.*.",
"*.*.*.*.*.*.*.*.; x ~ [ ] ( ( ( ( ( ( ( ( ( ( ( ( ( ( ( ( ( ( ( ( ( ( ( ( ( ( [ ( g # *.*.*.*.*.*.*.",
"*.*.*.*.*.*.*.< Y { ) ( ( ( ( ( ( ( ( ( ( ( [ } [ [ [ [ [ [ [ ( ( ( ( ( ( ( ( ( ( } N $ *.*.*.*.*.*.",
"*.*.*.*.*.*.e ~ ] ( ( ( ( ( ( ( ( ( ] ] } ( T C v x l l v A T [ [ ( ] ( ( ( ( ( ( ) } b & *.*.*.*.*.",
"*.*.*.*.*., ! [ ( ( ( ( ( ( ( ( ( ( [ ! c r * *.*.*.*.*.*.*.* 2 Z ( ( ( ( ( ( ( ( ( ( [ a *.*.*.*.*.",
"*.*.*.*.+ N [ ( ( ( ( ( ( ( ] ( ( ] C * *.*.*.*.*.*.*.*.*.*.*.*.o b [ ( ( ( ( ( ( ( ( ] ! ; *.*.*.*.",
"*.*.*.*.> ( ] ( ( ( ( ( ( ( ( ( [ Z o *.*.*.*.*.*.*.*.*.*.*.*.*.*.% ! ( ( ( ( ( ( ( ( ] { h *.*.*.*.",
"*.*.*.*.g [ ( ( ( ( ( ( ( ( ( ] ~ > *.*.*.*.*.*.*.*.*.*.*.*.*.*.*.  A [ ( ( ( ( ] ( ( ( [ A . *.*.*.",
"*.*.*.*.c } ( ( ( ( ( ( ( ( ( [ C . *.*.*.*.*.*.*.*.*.*.*.*.*.*.*.  n [ ( ( ( ( ( ( ( ( [ Y O *.*.*.",
"*.*.*.4 c } ( ( ( ( ( ( ( ( ( } g *.*.*.*.*.*.*.*.*.*.*.*.*.*.*.*.  b [ ( ( ( ( ( ( ( ( ] ! O *.*.*.",
"*.*.*.*.g } ( ] ( ( ( ( ( ( ] } h *.*.*.*.*.*.*.*.*.*.*.*.*.*.*.*.. A [ ( ( ( ( ( ( ( ( [ I o *.*.*.",
"*.*.*.*.* / ] ( ( ( ( ( ( ( ( [ Y % *.*.*.*.*.*.*.*.*.*.*.*.*.*.*.< ] ( ( ( ( ( ( ( ( ( } c *.*.*.*.",
"*.*.*.*.. N [ ( ] ( ( ( ( ( ] ( [ C % *.*.*.*.*.*.*.*.*.*.*.*.*.> Y [ ( ] ( ( ( ( ( ( ] / > *.*.*.*.",
"*.*.*.*.*.< ( ] ( ( ( ( ( ( ( ( ( [ I 2 @ *.*.*.*.*.*.*.*.*.@ y ! ( ( ( ( ( ( ( ( ( ] [ b . *.*.*.*.",
"*.*.*.*.*.. j [ ( ( ( ( ( ( ( ( ( ( [ ( A g r , 9 w w > < y Z ] ] ( ( ( ( ( ( ( ( ( [ Y * *.*.*.*.*.",
"*.*.*.*.*.*.# A [ ] ( ( ( ( ( ( ( ( ( ) [ [ [ / ~ ~ ~ ~ / ] [ ( ( ( ( ( ( ( ( ( ( [ T < *.*.*.*.*.*.",
"*.*.*.*.*.*.*.* A } ] ( ( ( ( ( ( ( ( ( ] ] ( ] ] ] ] ] ] ] ( ] ( ( ( ( ( ( ( ] [ U , *.*.*.*.*.*.*.",
"*.*.*.*.*.*.*.*.$ M [ [ ( ] ] ( ( ( ( ( ( ( ( ( ( ( ( ( ( ( ( ( ( ( ( ( ( ( [ ~ g = *.*.*.*.*.*.*.*.",
"*.*.*.*.*.*.*.*.*.. y T [ ] ( ( ( ( ( ( ( ( ( ( ( ( ( ( ( ( ( ( ( ( ( ] [ [ C ; *.*.*.*.*.*.*.*.*.*.",
"*.*.*.*.*.*.*.*.*.*.*.; x Y ] [ [ ( ( ( ( ( ( ( ( ( ( ( ( ( ( ( ( ) } ~ Z a *.*.*.*.*.*.*.*.*.*.*.*.",
"*.*.*.*.*.*.*.*.*.*.*.*.*.$ y x S ~ [ [ [ [ ] ( ) ( [ ] ] [ [ [ / S l 0 *.*.*.*.*.*.*.*.*.*.*.*.*.*.",
"*.*.*.*.*.*.*.*.*.*.*.*.*.*.*.*.*., a x N U Y ! ~ ! T U A M x d 0 *.*.*.*.*.*.*.*.*.*.*.*.*.*.*.*.*.",
"*.*.*.*.*.*.*.*.*.*.*.*.*.*.*.*.*.*.*.*.*.*.*.*.s *.*.*.*.*.*.*.*.*.*.*.*.*.*.*.*.*.*.*.*.*.*.*.*.*."
};
