/* XPM */
static char *result[] = {
/* columns rows colors chars-per-pixel */
"50 50 109 2 ",
"   c black",
".  c #010101",
"X  c #020202",
"o  c gray1",
"O  c #040404",
"+  c gray2",
"@  c #060606",
"#  c #070707",
"$  c gray3",
"%  c #090909",
"&  c gray4",
"*  c #0B0B0B",
"=  c #0C0C0C",
"-  c gray5",
";  c #0E0E0E",
":  c gray6",
">  c #101010",
",  c #111111",
"<  c gray7",
"1  c #131313",
"2  c gray8",
"3  c #151515",
"4  c #161616",
"5  c gray9",
"6  c #181818",
"7  c gray10",
"8  c gray11",
"9  c #1D1D1D",
"0  c #222222",
"q  c #232323",
"w  c #252525",
"e  c #272727",
"r  c #282828",
"t  c gray16",
"y  c #2A2A2A",
"u  c gray17",
"i  c #2D2D2D",
"p  c #2F2F2F",
"a  c gray19",
"s  c #323232",
"d  c gray20",
"f  c gray21",
"g  c #3A3A3A",
"h  c gray23",
"j  c #3C3C3C",
"k  c gray24",
"l  c #3F3F3F",
"z  c gray25",
"x  c gray26",
"c  c #434343",
"v  c #444444",
"b  c gray28",
"n  c #484848",
"m  c #494949",
"M  c #4B4B4B",
"N  c #4C4C4C",
"B  c gray30",
"V  c #4E4E4E",
"C  c #515151",
"Z  c gray33",
"A  c #555555",
"S  c #565656",
"D  c gray34",
"F  c #585858",
"G  c gray35",
"H  c #5A5A5A",
"J  c #5B5B5B",
"K  c gray36",
"L  c #5D5D5D",
"P  c gray37",
"I  c #5F5F5F",
"U  c #626262",
"Y  c gray39",
"T  c #646464",
"R  c #656565",
"E  c gray40",
"W  c DimGray",
"Q  c #6A6A6A",
"!  c gray42",
"~  c #6D6D6D",
"^  c gray43",
"/  c #6F6F6F",
"(  c gray44",
")  c gray45",
"_  c #767676",
"`  c #777777",
"'  c gray48",
"]  c #7B7B7B",
"[  c #7C7C7C",
"{  c #7E7E7E",
"}  c gray51",
"|  c #838383",
" . c gray52",
".. c #898989",
"X. c #8B8B8B",
"o. c gray55",
"O. c #8D8D8D",
"+. c #8E8E8E",
"@. c gray56",
"#. c #909090",
"$. c #979797",
"%. c #989898",
"&. c #9D9D9D",
"*. c #ACACAC",
"=. c #B1B1B1",
"-. c gray70",
";. c #D8D8D8",
":. c gray85",
">. c None",
/* pixels */
">.>.>.>.>.>.>.>.>.>.>.>.>.>.>.>.>.>.>.>.>.>.>.>.>.>.>.>.>.>.>.>.>.>.>.>.>.>.>.>.>.>.>.>.>.>.>.>.>.>.",
">.>.>.>.>.>.>.>.>.>.>.>.>.>.>.>.>.>.>.>.>.>.>.>.>.>.>.>.>.>.>.>.>.>.>.>.>.>.>.>.>.>.>.>.>.>.>.>.>.>.",
">.>.>.>.>.>.>.>.>.:.*.o.' ^ I L L L L H V V V V V V V B S P K U / [ ..$.=.;.>.>.>.>.>.>.>.>.>.>.>.>.",
">.>.>.>.>.>.j y 1 , - * % $ # # # # # # @ @ @ @ @ @ @ @ # # # $ % & * = ; , $ > q h l >.>.>.>.>.>.>.",
">.>.>.>.o.i .                                                                         @ r #.>.>.>.>.",
">.>.>.U <                                                                                 t >.>.>.>.",
">.>.O.X                                                                                   X I >.>.>.",
">.>.|                                                                                       J >.>.>.",
">.>.|                                                                                       Y >.>.>.",
">.>.|                                                                                     + W >.>.>.",
">.>.|                                                                                     e >.>.>.>.",
">.>.|                                                                                   $ / >.>.>.>.",
">.>.|                                                                                 1 L >.>.>.>.>.",
">.>.|                             2 q 0 0 0 0 0 0 0 0 0 0 0 q w w 9 . # - < 7 w a c l  .>.>.>.>.>.>.",
">.>.|                           + J >.>.>.>.>.>.>.>.>.>.>.>.>.>.>.>.>.>.>.>.>.>.>.>.>.>.>.>.>.>.>.>.",
">.>.|                           @ m >.>.>.>.>.>.>.>.>.>.>.>.>.>.>.>.>.>.>.>.>.>.>.>.>.>.>.>.>.>.>.>.",
">.>.|                           @ M >.>.>.>.>.>.>.>.>.>.>.>.>.>.>.>.>.>.>.>.>.>.>.>.>.>.>.>.>.>.>.>.",
">.>.|                           @ M >.>.>.>.>.>.>.>.>.>.>.>.>.>.>.>.>.>.>.>.>.>.>.>.>.>.>.>.>.>.>.>.",
">.>.|                           @ C >.>.>.>.>.>.>.>.>.>.>.>.>.>.>.>.>.>.>.>.>.>.>.>.>.>.>.>.>.>.>.>.",
">.>.|                           o 9 >.>.>.>.>.>.>.>.>.>.>.>.>.>.>.>.>.>.>.>.>.>.>.>.>.>.>.>.>.>.>.>.",
">.>.|                                       . X O % : 0 l >.>.>.>.>.>.>.>.>.>.>.>.>.>.>.>.>.>.>.>.>.",
">.>.|                                                     7 ` >.>.>.>.>.>.>.>.>.>.>.>.>.>.>.>.>.>.>.",
">.>.|                                                       1 } >.>.>.>.>.>.>.>.>.>.>.>.>.>.>.>.>.>.",
">.>.|                                                         v >.>.>.>.>.>.>.>.>.>.>.>.>.>.>.>.>.>.",
">.>.|                                                         u >.>.>.>.>.>.>.>.>.>.>.>.>.>.>.>.>.>.",
">.>.|                                                         g >.>.>.>.>.>.>.>.>.>.>.>.>.>.>.>.>.>.",
">.>.|                                                       X n >.>.>.>.>.>.>.>.>.>.>.>.>.>.>.>.>.>.",
">.>.|                                                       9 >.>.>.>.>.>.>.>.>.>.>.>.>.>.>.>.>.>.>.",
">.>.|                                                     # W >.>.>.>.>.>.>.>.>.>.>.>.>.>.>.>.>.>.>.",
">.>.|                                                 o 5 Q >.>.>.>.>.>.>.>.>.>.>.>.>.>.>.>.>.>.>.>.",
">.>.|                           . 3 4 3 3 3 4 8 t h F x >.>.>.>.>.>.>.>.>.>.>.>.>.>.>.>.>.>.>.>.>.>.",
">.>.|                           @ N >.>.>.>.>.>.>.>.>.>.>.>.>.>.>.>.>.>.>.>.>.>.>.>.>.>.>.>.>.>.>.>.",
">.>.|                           @ m >.>.>.>.>.>.>.>.>.>.>.>.>.>.>.>.>.>.>.>.>.>.>.>.>.>.>.>.>.>.>.>.",
">.>.|                           @ m >.>.>.>.>.>.>.>.>.>.>.>.>.>.>.>.>.>.>.>.>.>.>.>.>.>.>.>.>.>.>.>.",
">.>.|                           @ n >.>.>.>.>.>.>.>.>.>.>.>.>.>.>.>.>.>.>.>.>.>.>.>.>.>.>.>.>.>.>.>.",
">.>.|                           @ Z >.>.>.>.>.>.>.>.>.>.>.>.>.>.>.>.>.>.>.>.>.>.>.>.>.>.>.>.>.>.>.>.",
">.>.|                           . r z k k k k k k k k k k k k z c c b m % , t M ) >.>.>.>.>.>.>.>.>.",
">.>.|                                                                     . X o + $ 6 s Q >.>.>.>.>.",
">.>.|                                                                                   $ B >.>.>.>.",
">.>.|                                                                                     > >.>.>.>.",
">.>.|                                                                                       E >.>.>.",
">.>.|                                                                                       D >.>.>.",
">.>.|                                                                                     . L >.>.>.",
">.>.X.                                                                                    ; >.>.>.>.",
">.>.-.z .                                                                                 d >.>.>.>.",
">.>.>.>.! 1                                                                             e >.>.>.>.>.",
">.>.>.>.>.+.p 3 &                                                             O @ & 1 f >.>.>.>.>.>.",
">.>.>.>.>.>.>.>.>.Q %.] ( R J G G G G G A B B B B V D G G G U T ~ _ {  .@.&.>.>.>.>.>.>.>.>.>.>.>.>.",
">.>.>.>.>.>.>.>.>.>.>.>.>.>.>.>.>.>.>.>.>.>.>.>.>.>.>.>.>.>.>.>.>.>.>.>.>.>.>.>.>.>.>.>.>.>.>.>.>.>.",
">.>.>.>.>.>.>.>.>.>.>.>.>.>.>.>.>.>.>.>.>.>.>.>.>.>.>.>.>.>.>.>.>.>.>.>.>.>.>.>.>.>.>.>.>.>.>.>.>.>."
};
