/* XPM */
static char *result[] = {
/* columns rows colors chars-per-pixel */
"50 50 109 2 ",
"   c black",
".  c #010101",
"X  c #020202",
"o  c gray1",
"O  c #040404",
"+  c gray2",
"@  c #060606",
"#  c #070707",
"$  c gray3",
"%  c #090909",
"&  c gray4",
"*  c #0B0B0B",
"=  c #0C0C0C",
"-  c gray5",
";  c #0E0E0E",
":  c gray6",
">  c #101010",
",  c #111111",
"<  c gray7",
"1  c #131313",
"2  c gray8",
"3  c #151515",
"4  c #161616",
"5  c gray9",
"6  c #181818",
"7  c #191919",
"8  c gray10",
"9  c #1B1B1B",
"0  c gray11",
"q  c #1D1D1D",
"w  c #1E1E1E",
"e  c gray12",
"r  c #202020",
"t  c gray13",
"y  c gray14",
"u  c #252525",
"i  c gray15",
"p  c #272727",
"a  c #282828",
"s  c #2A2A2A",
"d  c gray17",
"f  c #2D2D2D",
"g  c gray18",
"h  c #2F2F2F",
"j  c #313131",
"k  c gray20",
"l  c #343434",
"z  c #353535",
"x  c gray21",
"c  c gray22",
"v  c #393939",
"b  c #3A3A3A",
"n  c gray23",
"m  c #3C3C3C",
"M  c gray24",
"N  c gray25",
"B  c #414141",
"V  c gray26",
"C  c #434343",
"Z  c gray27",
"A  c #464646",
"S  c #494949",
"D  c gray29",
"F  c #4B4B4B",
"G  c gray30",
"H  c gray31",
"J  c #505050",
"K  c #515151",
"L  c gray32",
"P  c #535353",
"I  c gray33",
"U  c #555555",
"Y  c #565656",
"T  c gray34",
"R  c #585858",
"E  c #5A5A5A",
"W  c #5B5B5B",
"Q  c gray36",
"!  c #5D5D5D",
"~  c gray37",
"^  c #5F5F5F",
"/  c gray38",
"(  c #626262",
")  c gray39",
"_  c #646464",
"`  c gray40",
"'  c #686868",
"]  c DimGray",
"[  c #6A6A6A",
"{  c #6F6F6F",
"}  c #727272",
"|  c gray45",
" . c gray49",
".. c #7E7E7E",
"X. c #808080",
"o. c #818181",
"O. c #848484",
"+. c gray52",
"@. c #868686",
"#. c gray57",
"$. c #ACACAC",
"%. c gray",
"&. c gray83",
"*. c gray87",
"=. c gray89",
"-. c gray90",
";. c #E7E7E7",
":. c #EEEEEE",
">. c None",
/* pixels */
">.>.>.>.>.>.>.>.>.>.>.>.>.>.>.>.>.>.>.>.>.>.>.>.>.>.>.>.>.>.>.>.>.>.>.>.>.>.>.>.>.>.>.>.>.>.>.>.>.>.",
">.>.>.>.>.>.>.>.>.>.>.>.>.>.>.>.>.>.>.>.>.>.>.>.>.>.>.>.>.>.>.>.>.>.>.>.>.>.>.>.>.>.>.>.>.>.>.>.>.>.",
">.>.>.>.>.>.>.>.>.>.>.>.>.>.>.>.>.>.>.>.$...m ,   $ r E #.>.>.>.>.>.>.>.>.>.>.>.>.>.>.>.>.>.>.>.>.>.",
">.>.>.>.>.>.>.>.>.>.>.>.>.>.>.>.>.K f 0 o                 : q b _ >.>.>.>.>.>.>.>.>.>.>.>.>.>.>.>.>.",
">.>.>.>.>.>.>.>.>.>.>.>.>.>.>.R q O                             @ w M >.>.>.>.>.>.>.>.>.>.>.>.>.>.>.",
">.>.>.>.>.>.>.>.>.>.>.>.>.P 8                                       . 7 T >.>.>.>.>.>.>.>.>.>.>.>.>.",
">.>.>.>.>.>.>.>.>.>.>.>.g o                                             X g >.>.>.>.>.>.>.>.>.>.>.>.",
">.>.>.>.>.>.>.>.>.>.R 5                                                     9 ^ >.>.>.>.>.>.>.>.>.>.",
">.>.>.>.>.>.>.>.>./ &                                                         % K >.>.>.>.>.>.>.>.>.",
">.>.>.>.>.>.>.>.I o                                                             $ ) >.>.>.>.>.>.>.>.",
">.>.>.>.>.>.>.P o                                                                 # F >.>.>.>.>.>.>.",
">.>.>.>.>.>.Y O                                                                     % ' >.>.>.>.>.>.",
">.>.>.>.>.>.<                                                                         6 >.>.>.>.>.>.",
">.>.>.>.>.s                                 X & : ; % .                                 d >.>.>.>.>.",
">.>.>.>.C                             1 h U ^ >.>.>.>.I Z f 6 .                           L >.>.>.>.",
">.>.>.>.<                         1 G >.>.>.>.>.>.>.>.>.>.>.>.` 9                         , >.>.>.>.",
">.>.>.B                         u >.>.>.>.>.>.>.>.>.>.>.>.>.>.>.>.j                         h >.>.>.",
">.>.>.>                       k >.>.>.>.>.>.>.>.>.>.>.>.>.>.>.>.>.>.f                       > >.>.>.",
">.>.B                       8 >.>.>.>.>.>.>.>.>.>.>.>.>.>.>.>.>.>.>.>.0                       S >.>.",
">.>.q                     o W >.>.>.>.>.>.>.>.>.>.>.>.>.>.>.>.>.>.>.>.Y o                     e >.>.",
">.>.$                     0 >.>.>.>.>.>.>.>.>.>.>.>.>.>.>.>.>.>.>.>.>.>.8                     % >.>.",
">.S .                     m >.>.>.>.>.>.>.>.>.>.>.>.>.>.>.>.>.>.>.>.>.>.x                     . C >.",
">.N                     . b >.>.>.>.>.>.>.>.>.>.>.>.>.>.>.>.>.>.>.>.>.>.T O                     c >.",
">.6                     o C >.>.>.>.>.>.>.>.>.>.>.>.>.>.>.>.>.>.>.>.>.>.>.+                     4 >.",
";.1                     + ( >.>.>.>.>.>.>.>.>.>.>.>.>.>.>.>.>.>.>.>.>.>.>.*                     9 *.",
":.q                     + { >.>.>.>.>.>.>.>.>.>.>.>.>.>.>.>.>.>.>.>.>.>.>.-                     5 %.",
"=.6                     + [ >.>.>.>.>.>.>.>.>.>.>.>.>.>.>.>.>.>.>.>.>.>.>.%                     7 &.",
">.*                     O ! >.>.>.>.>.>.>.>.>.>.>.>.>.>.>.>.>.>.>.>.>.>.@.@                     3 -.",
">.a                     o V >.>.>.>.>.>.>.>.>.>.>.>.>.>.>.>.>.>.>.>.>.>.Z o                     q >.",
">.n                     . D >.>.>.>.>.>.>.>.>.>.>.>.>.>.>.>.>.>.>.>.>.>.l                       A >.",
">.S o                     k >.>.>.>.>.>.>.>.>.>.>.>.>.>.>.>.>.>.>.>.>.>.i                     o Y >.",
">.>.:                     , >.>.>.>.>.>.>.>.>.>.>.>.>.>.>.>.>.>.>.>.>.>.%                     : >.>.",
">.>.a                       V >.>.>.>.>.>.>.>.>.>.>.>.>.>.>.>.>.>.>.>.z                       s >.>.",
">.>.I .                     @ ] >.>.>.>.>.>.>.>.>.>.>.>.>.>.>.>.>.>./ @                     X Q >.>.",
">.>.>.5                       ,  .>.>.>.>.>.>.>.>.>.>.>.>.>.>.>.>.>.;                       3 >.>.>.",
">.>.>.I                         = G >.>.>.>.>.>.>.>.>.>.>.>.>.>.U -                         J >.>.>.",
">.>.>.>.q                           i ~ >.>.>.>.>.>.>.>.>.>.I y .                         9 >.>.>.>.",
">.>.>.>.T o                             4 a A t j r b c 7 >                             O / >.>.>.>.",
">.>.>.>.>.k                                   . X .                                     v >.>.>.>.>.",
">.>.>.>.>.>.y                                                                         p >.>.>.>.>.>.",
">.>.>.>.>.>.>.>                                                                     < >.>.>.>.>.>.>.",
">.>.>.>.>.>.>.X.1                                                                 2 o.>.>.>.>.>.>.>.",
">.>.>.>.>.>.>.>.O.1                                                             6 +.>.>.>.>.>.>.>.>.",
">.>.>.>.>.>.>.>.>.>.r                                                         q >.>.>.>.>.>.>.>.>.>.",
">.>.>.>.>.>.>.>.>.>.>.z +                                                 o h >.>.>.>.>.>.>.>.>.>.>.",
">.>.>.>.>.>.>.>.>.>.>.>.H 8                                             1 ! >.>.>.>.>.>.>.>.>.>.>.>.",
">.>.>.>.>.>.>.>.>.>.>.>.>.>.C 3                                     1 S >.>.>.>.>.>.>.>.>.>.>.>.>.>.",
">.>.>.>.>.>.>.>.>.>.>.>.>.>.>.>.Z y #                         + 8 F >.>.>.>.>.>.>.>.>.>.>.>.>.>.>.>.",
">.>.>.>.>.>.>.>.>.>.>.>.>.>.>.>.>.>.} x i 8 > +     o - 5 0 C Q >.>.>.>.>.>.>.>.>.>.>.>.>.>.>.>.>.>.",
">.>.>.>.>.>.>.>.>.>.>.>.>.>.>.>.>.>.>.>.>.>.>.>.| } >.>.>.>.>.>.>.>.>.>.>.>.>.>.>.>.>.>.>.>.>.>.>.>."
};
