/* XPM */
static char *result[] = {
/* columns rows colors chars-per-pixel */
"50 50 136 2 ",
"   c #060606",
".  c #09090A",
"X  c #19130F",
"o  c #0E0E10",
"O  c #080D19",
"+  c #151516",
"@  c #191514",
"#  c #12141B",
"$  c #1D1C1C",
"%  c #271A0E",
"&  c #2E1D0E",
"*  c #201616",
"=  c #231913",
"-  c #2C1E14",
";  c #221B1B",
":  c #2B201D",
">  c #342210",
",  c #3A2312",
"<  c #342619",
"1  c #382519",
"2  c #3A291B",
"3  c #0F1824",
"4  c #121623",
"5  c #141A24",
"6  c #1C1E23",
"7  c #262524",
"8  c #24242B",
"9  c #2B2B2B",
"0  c #352B24",
"q  c #3B2E20",
"w  c gray22",
"e  c #43250E",
"r  c #422712",
"t  c #472F15",
"y  c #482C15",
"u  c #422F1F",
"i  c #4B3014",
"p  c #47301C",
"a  c #4C331C",
"s  c #543315",
"d  c #583715",
"f  c #5D3916",
"g  c #56391C",
"h  c #5D3E1E",
"j  c #633C17",
"k  c #603D1A",
"l  c #413225",
"z  c #4D3622",
"x  c #543123",
"c  c #523A22",
"v  c #6C3D2F",
"b  c #6C4015",
"n  c #6D441A",
"m  c #724515",
"M  c #744718",
"N  c #764B1B",
"B  c #7C4D1A",
"V  c #634426",
"C  c #6B4721",
"Z  c #664628",
"A  c #754D23",
"S  c #7C4826",
"D  c #714D29",
"F  c #6E4530",
"G  c #6E374B",
"H  c #623B4E",
"J  c #71354D",
"K  c #6F3452",
"L  c #703551",
"P  c #824F1B",
"I  c #8B5316",
"U  c #86521B",
"Y  c #8A5419",
"T  c #8E581E",
"R  c #975C13",
"E  c #9B5B15",
"W  c #91571C",
"Q  c #93591A",
"!  c #9C5E19",
"~  c #A26115",
"^  c #AD6817",
"/  c #A46219",
"(  c #AC6619",
")  c #AD681A",
"_  c #B46B1B",
"`  c #B96E1B",
"'  c #BC711C",
"]  c #855521",
"[  c #885722",
"{  c #885823",
"}  c #89512C",
"|  c #845A29",
" . c #945F26",
".. c #9F6020",
"X. c #95602A",
"o. c #B56B24",
"O. c #BE6F20",
"+. c #B56D39",
"@. c #C57717",
"#. c #CD7A15",
"$. c #C3741C",
"%. c #C87618",
"&. c #C7781C",
"*. c #CB791A",
"=. c #D37C16",
"-. c #D97F17",
";. c #D37D1A",
":. c #C07120",
">. c #873C60",
",. c #83414A",
"<. c #8F4167",
"1. c #A34779",
"2. c #AA497C",
"3. c #B34D7E",
"4. c #DC8014",
"5. c #D7801A",
"6. c #DC811B",
"7. c #FF9A0E",
"8. c #E58617",
"9. c #ED8A16",
"0. c #E3861A",
"q. c #EA871A",
"w. c #E78818",
"e. c #EC8A19",
"r. c #F48E16",
"t. c #F88F16",
"y. c #F28E1A",
"u. c #F79116",
"i. c #FD9213",
"p. c #FF9914",
"a. c #F4901B",
"s. c #FA921A",
"d. c #FF9A18",
"f. c #AE6B8D",
"g. c #C67BAA",
"h. c None",
/* pixels */
"h.h.h.h.h.h.h.h.h.h.h.h.h.h.h.h.h.h.h.h.h.h.h.h.h.h.h.h.h.h.h.h.h.h.h.h.h.h.h.h.h.h.h.h.h.h.h.h.h.h.",
"h.h.h.h.h.h.h.h.h.h.h.h.h.h.h.h.h.h.h.h.h.h.h.h.h.h.h.h.h.h.h.h.h.h.h.h.h.h.h.h.h.h.h.h.h.h.h.h.h.h.",
"h.h.h.h.h.h.h.h.h.h.h.h.h.h.h.h.h.h.h.h.h.h.h.h.h.h.h.h.h.h.h.h.h.h.h.h.h.h.h.h.h.h.h.h.h.h.h.h.h.h.",
"h.h.h.h.h.h.h.h.h.h.h.h.h.h.h.h.h.h.h.h.h.h.h.h.h.h.h.h.h.h.h.h.h.h.h.h.h.h.h.h.h.h.h.h.h.h.h.h.h.h.",
"h.h.h.h.h.h.h.h.h.h.h.h.h.h.h.h.h.h.h.h.h.h.h.h.h.h.h.h.h.h.h.h.h.h.h.h.h.h.h.h.h.h.h.h.h.h.h.h.h.h.",
"h.h.h.h.h.h.h.h.h.h.h.h.h.h.h.h.h.h.h.h.8 : h.h.h.h.h.h.h.h.h.h.7 h.h.h.h.h.h.h.h.h.h.h.h.h.h.h.h.h.",
"h.h.h.h.h.h.h.h.h.h.$ h.h.h.h.h.h.h.h.h.h.h.h.h.h.h.h.h.h.h.h.h.7 h.h.h.h.h.h.h.h.h.h.h.h.h.h.h.h.h.",
"h.h.h.h.h.h.h.h.h.h.+ h.h.h.h.h.h.h.+ h.h.h.h.h.h.h.w . . h.h.h.9 h.h.h.h.h.h.h.h.h.h.h.h.h.h.h.h.h.",
"h.h.h.h.h.h.h.h.h.h.5 h.h.h.h.h.h.9 . . h.h.h.h.h.h.$     h.h.h.6 h.h.h.h.h.h.h.h.h.h.h.h.h.h.h.h.h.",
"h.h.h.h.h.h.t j m B N z h.h.h.h.h.h.+ h.h.7 h.h.h.h.h.+ h.h.h.h.y - h.h.h.h.h.h.h.h.h.h.h.h.h.h.h.h.",
"h.h.h.h.h.& q.i.p.p.p.5.h h.h.h.h.h.h.h. .$.l h.h.h.h.h.h.h.h.T i.w./ y h.h.h.h.h.h.h.h.h.h.h.h.h.h.",
"h.h.h.h.h., a.i.i.i.t.p.y.) | h.h.h.X.' s.i.%.N h.h.h.h.h.C _ i.p.r.u.s.P $ h.h.h.h.h.h.h.h.h.h.h.h.",
"h.h.h.h.h., a.i.i.i.i.i.t.i.i.9.w.9.i.p.i.i.i.i.=.` $.` *.t.i.i.i.;.W Q a./ + h.h.h.h.h.h.h.h.h.h.h.",
"h.h.h.h.h., y.i.i.i.i.i.i.i.i.i.p.i.i.i.i.i.i.i.i.p.i.p.p.i.i.i.i.p.` U 0.p.I # h.h.h.h.h.h.h.h.h.h.",
"h.h.h.h.h., s.i.i.i.i.i.i.i.i.i.i.i.i.i.i.i.i.i.i.i.t.i.i.i.i.i.i.i...5.i.i.i.d h.h.h.h.h.h.h.h.h.h.",
"h.h.h.h.h.e s.i.i.i.i.i.i.i.i.i.i.t.i.i.i.i.i.i.t.i.i.i.t.i.t.i.p.6.W u.i.i.p.5.- h.h.h.h.h.h.h.h.h.",
"h.h.h.h.h.e s.i.i.i.i.i.i.i.i.i.t.i.t.i.i.r.t.i.i.i.t.i.i.i.i.9.O.x $.p.i.i.i.7.W h.h.h.h.h.h.h.h.h.",
"h.h.h.h.h.2 y.i.i.t.i.t.i.i.i.i.i.i.t.i.i.*._ _ O.:.` ` $._ S ,.>.G @.i.i.t.i.i.-.X h.h.h.h.h.h.h.h.",
"h.h.h.h.h.> s.p.p.i.p.p.i.i.i.p.p.p.7.i.i.i.i.t.r.y.q.9.r.9.v 1.3.G #.i.i.i.i.i.y.- h.h.h.h.h.h.h.h.",
"h.h.h.h.h.= B B B U { { { { ] B B Q E ` -.t.p.i.t.i.p.i.p.7.( >.2.v r.i.i.i.i.i.y.> h.h.h.h.h.h.h.h.",
"h.h.h.h.h.h.h.h.h.h.h.h.h.h.h.h.h.h.h.h.= a ! s.i.e.! ' ` +.} G J ` i.i.i.i.i.i.y.& h.h.h.h.h.h.h.h.",
"h.h.h.h.h.h.h.h.h.h.h.h.h.h.h.h.h.h.h.h.h.h.O f t.0.n ^ F f.g.H R p.i.i.t.i.i.i.5.= h.h.h.h.h.h.h.h.",
"h.h.h.h.h.h.h.h.h.h.h.h.h.h.h.h.h.h.h.h.h.h.h.4 E i.8.i.t.%.o.:.i.i.i.t.i.t.i.p.T h.h.h.h.h.h.h.h.h.",
"h.h.h.h.h.h.h.h.h.h.h.h.h.h.h.h.h.h.h.h.h.h.h.5 I p.i.i.i.i.p.i.t.i.i.i.i.i.i.0.< h.h.h.h.h.h.h.h.h.",
"h.h.h.h.h.h.h.h.h.h.h.h.h.h.h.h.h.h.h.h.h.h.h.j e.p.i.i.i.i.i.i.i.t.i.t.i.p.0.g h.h.h.h.h.h.h.h.h.h.",
"h.h.h.h.h.h.h.h.h.h.h.h.h.h.h.h.h.h.a ] Q / #.t.i.i.i.i.i.i.i.i.i.i.i.i.i.^ u h.h.h.h.h.h.h.h.h.h.h.",
"h.h.h.h.h.h.h.h.h.h.h.h.h.h.h.h.h.h.Y d.i.i.i.i.t.i.i.i.i.i.i.i.i.i.i.4.j h.h.h.h.h.h.h.h.h.h.h.h.h.",
"h.h.h.h.h.h.h.h.h.h.h.h.h.h.h.h.h.h.j i.p.i.i.i.i.i.t.i.i.i.i.i.i.i.9.y + h.h.h.h.h.h.h.h.h.h.h.h.h.",
"h.h.h.h.h.h.h.h.h.h.h.h.h.h.h.h.h.h.r u.i.i.i.i.i.i.i.i.i.i.t.i.i.i.t.r.-.) n - h.h.h.h.h.h.h.h.h.h.",
"h.h.h.h.h.h.h.h.h.h.h.h.h.h.h.h.h.h.% w.i.i.i.i.i.i.i.i.t.i.i.i.i.i.i.i.i.p.i.-.M ; h.h.h.h.h.h.h.h.",
"h.h.h.h.h.h.h.h.h.h.h.h.h.h.h.h.h.h.+ *.7.7.i.i.i.i.i.i.i.i.i.i.i.t.i.i.i.i.i.p.i.*.s h.h.h.h.h.h.h.",
"h.h.h.h.h.h.h.h.h.h.h.h.h.h.h.h.h.h.. n ^ R R ~ ` -.i.i.i.t.i.i.i.i.t.i.i.i.i.u.i.p.y.n h.h.h.h.h.h.",
"h.h.h.h.h.h.h.h.h.h.h.h.h.h.h.h.h.h.h.h.h.h.h.h.h.- d ` d.t.t.i.t.t.i.i.i.i.i.i.i.i.i.i.j h.h.h.h.h.",
"h.h.h.h.h.h.h.h.h.h.h.h.h.h.h.h.h.h.h.h.h.h.h.h.h.h.h.# Y i.i.i.i.i.i.i.i.i.i.i.i.i.i.i.i.j h.h.h.h.",
"h.h.h.h.h.h.h.h.h.h.h.h.h.h.h.h.h.h.h.h.h.h.h.h.h.h.h.h.@ -.i.i.i.i.i.i.i.-.i.i.i.i.i.i.i.e.a h.h.h.",
"h.h.h.h.h.h.h.h.h.h.h.h.h.h.h.h.h.h.h.h.h.h.h.h.h.h.h.h.@ -.i.i.i.i.i.i.i.i.i.i.i.i.i.i.t.p.;.= h.h.",
"h.h.h.h.h.h.h.h.h.h.h.h.h.h.h.h.h.h.h.h.h.h.h.h.h.h.h.h.n u.i.i.i.i.i.t.i.i.i.i.i.i.i.i.t.i.p.m h.h.",
"h.h.h.h.h.h.h.h.h.h.h.h.h.h.h.h.h.h.h.h.h.h.h.h.h.h., I a.i.i.i.i.i.i.i.i.i.i.i.i.i.i.i.i.i.p.` 8 h.",
"h.h.h.h.h.h.h.h.h.h.h.h.h.q Q Y N k g p u p d j U _ w.i.u.t.i.i.i.i.i.t.i.i.i.i.i.i.i.i.i.i.i.0.0 h.",
"h.h.h.h.h.h.h.h.h.h.h.h.h.C p.p.i.t.r.r.q.9.r.i.p.p.i.i.p.i.i.t.i.i.i.i.i.i.i.i.i.i.i.i.i.i.t.9.u h.",
"h.h.h.h.h.h.h.h.h.h.h.h.h.T p.i.i.i.i.i.i.i.i.i.t.i.i.i.i.i.i.i.i.i.i.i.i.i.i.t.i.t.i.i.i.i.i.%.7 h.",
"h.h.h.h.h.h.h.h.h.h.h.h.h.' i.i.i.-.i.i.i.i.i.i.i.i.i.i.i.i.i.i.i.i.i.i.i.i.i.i.i.i.i.i.i.i.i.f h.h.",
"h.h.h.h.h.h.h.h.h.h.h.h.% 5.i.i.i.i.i.i.i.i.i.i.i.i.i.i.t.i.i.i.i.t.i.i.i.i.i.i.i.i.i.i.i.i.I o h.h.",
"h.h.h.h.h.h.h.h.h.h.h.h.> r.i.i.i.i.i.i.i.i.i.i.i.i.i.i.t.i.i.i.i.i.i.i.i.i.i.i.i.i.i.t.i.Q @ h.h.h.",
"h.h.h.h.h.h.h.h.h.h.h.h.s i.i.i.i.i.i.i.i.i.i.i.i.i.i.i.i.i.i.i.i.i.i.i.t.i.i.i.i.i.p.0.b # h.h.h.h.",
"h.h.h.h.h.h.h.h.h.h.h.h.P i.i.i.i.i.i.i.i.i.i.i.i.i.i.i.i.i.i.i.t.i.i.i.i.p.t.i.p.y.! 2 h.h.h.h.h.h.",
"h.h.h.h.h.h.h.h.h.h.h.h.E p.i.s.i.i.i.i.i.i.i.-.i.i.i.i.i.i.i.t.i.i.i.i.i.i.i.6.Q a h.h.h.h.h.h.h.h.",
"h.h.h.h.h.h.h.h.h.h.h.6 ' 7.i.p.i.i.i.i.i.i.i.i.i.i.i.i.i.i.p.p.i.i.9.#.) I k 0 h.h.h.h.h.h.h.h.h.h.",
"h.h.h.h.h.h.h.h.h.h.h.@ W *.6.e.e.e.e.e.t.s.t.u.t.t.y.9.0.;.' / I j c h.h.h.h.h.h.h.h.h.h.h.h.h.h.h.",
"h.h.h.h.h.h.h.h.h.h.h.h.h.h.h.h.h.h.a c V D Z g V V V z h.h.h.h.h.h.h.h.h.h.h.h.h.h.h.h.h.h.h.h.h.h."
};
