/* XPM */
static char *result[] = {
/* columns rows colors chars-per-pixel */
"50 50 98 2 ",
"   c gray2",
".  c #0C0C0C",
"X  c #121314",
"o  c #151518",
"O  c #1B1C1A",
"+  c #1D2414",
"@  c #1F2912",
"#  c #1D221A",
"$  c #232D16",
"%  c #23261F",
"&  c #232A1B",
"*  c #282F1F",
"=  c #263117",
"-  c #2B3C14",
";  c #2B341C",
":  c #2D3B19",
">  c #1C1825",
",  c #231F28",
"<  c #232423",
"1  c #2C2F25",
"2  c #2B2B2B",
"3  c #2D3522",
"4  c #303B20",
"5  c #2C430C",
"6  c #36510F",
"7  c #2F4114",
"8  c #324714",
"9  c #344B12",
"0  c #394F17",
"q  c #34451A",
"w  c #354919",
"e  c #394C1B",
"r  c #375112",
"t  c #3B5514",
"y  c #3F5A15",
"u  c #3C5419",
"i  c #3F5919",
"p  c #364920",
"a  c #405F0E",
"s  c #425F15",
"d  c #446315",
"f  c #486716",
"g  c #456915",
"h  c #4B6C16",
"j  c #476619",
"k  c #4C661E",
"l  c #4C6D1A",
"z  c #4D7315",
"x  c #4E721A",
"c  c #517715",
"v  c #557E16",
"b  c #527619",
"n  c #557C1D",
"m  c #5A7F1B",
"M  c #415426",
"N  c #455D23",
"B  c #424232",
"V  c #5F4E37",
"C  c #486026",
"Z  c #4B622C",
"A  c #577521",
"S  c #5A7F21",
"D  c #5A7228",
"F  c #747D3D",
"G  c #583644",
"H  c #5B3649",
"J  c #68394F",
"K  c #614344",
"L  c #767840",
"P  c #7C4661",
"I  c #7D5164",
"U  c #893A66",
"Y  c #A44676",
"T  c #A64B74",
"R  c #578117",
"E  c #588315",
"W  c #5D8B16",
"Q  c #598419",
"!  c #5D8A1A",
"~  c #629416",
"^  c #659B14",
"/  c #689E16",
"(  c #63931B",
")  c #669D19",
"_  c #77BC0E",
"`  c #78BC0F",
"'  c #6BA315",
"]  c #6FAE12",
"[  c #6FA519",
"{  c #71AD15",
"}  c #75B313",
"|  c #78B713",
" . c #77B913",
".. c #79BC11",
"X. c #7BC20E",
"o. c #7CC210",
"O. c #81CA10",
"+. c None",
/* pixels */
"+.+.+.+.+.+.+.+.+.+.+.+.+.+.+.+.+.+.+.+.+.+.+.+.+.+.+.+.+.+.+.+.+.+.+.+.+.+.+.+.+.+.+.+.+.+.+.+.+.+.",
"+.+.+.+.+.+.+.+.+.+.+.+.+.+.+.+.+.+.+.+.+.+.+.+.+.+.+.+.+.+.+.+.+.+.+.+.+.+.+.+.+.+.+.+.+.+.+.+.+.+.",
"+.+.+.+.+.+.+.+.+.+.+.+.+.+.+.+.+.+.+.+.+.+.+.+.+.+.+.+.+.+.+.+.+.+.+.+.+.+.+.+.+.+.+.+.+.+.+.+.+.+.",
"+.+.+.+.+.+.+.+.+.+.+.+.+.+.+.+.+.+.+.+.+.+.+.+.+.+.+.+.+.+.+.+.+.+.+.+.+.+.+.+.+.+.+.+.+.+.+.+.+.+.",
"+.+.+.+.+.+.+.+.+.+.+.+.+.+.+.+.+.+.+.+.+.+.+.+.+.+.+.+.+.+.+.+.+.2 +.+.+.+.+.+.+.+.+.+.+.+.+.+.+.+.",
"+.+.+.+.+.+.+.+.+.+.+.+.+.+.+.+.+.+.+.+.+.+.+.+.< +.+.+.+.+.+.+.+.+.+.+.+.+.+.+.+.+.+.+.+.+.+.+.+.+.",
"+.+.+.+.+.+.+.+.+.+.+.+.+.+.+.+.+.+.+.+.+.+.+.+.+.+.+.+.+.+.+.+.+.+.+.+.+.+.+.+.+.+.+.+.+.+.+.+.+.+.",
"+.+.+.+.+.+.+.+.+.+.+.+.+.+.+.+.2 +.+.+.+.+.O . +.+.+.+.+.< . +.+.+.+.+.+.+.+.+.+.+.+.+.+.+.+.+.+.+.",
"+.+.+.+.+.+.+.+.+.+.+.+.+.+.+.+.< +.+.+.+.+..   +.+.+.+.+.. . +.+.+.+.+.+.+.+.+.+.+.+.+.+.+.+.+.+.+.",
"+.+.+.+.+.+.+.+.+.+.+.+.+.+.@ w e +.+.+.+.+.X +.< +.+.+.+.. +.+.+.> +.+.+.+.+.+.+.+.+.+.+.+.+.+.+.+.",
"+.+.+.+.+.+.+.+.+.+.$ i z ~ { ..o.b +.+.+.+.+.+.m N +.+.+.+.+.+.+.i & +.+.+.+.+.+.+.+.+.+.+.+.+.+.+.",
"+.+.+.+.+.+.+.+ u Q } ..X.X.` ` ..| Q +.+.+.+.! o.[ M +.+.+.+.+.W X.' 8 +.+.+.+.+.+.+.+.+.+.+.+.+.+.",
"+.+.+.+.+.+ f ' X.X.X.` ` ` ` ` ` ` o.| [ [ } X._ X.} Q d d Q [ X.` X.o.d +.+.+.+.+.+.+.+.+.+.+.+.+.",
"+.+.+.+.& / X.X.` ` ` ` _ _ ` ` ` ` ` ..X._ ` ` ..` ..X.o.o.o..._ } W ' ] i +.+.+.+.+.+.+.+.+.+.+.+.",
"+.+.+.+.+.W X.` ` | ` ` ` ` ` ` ` ` ` ` ` ...._ _ ..` ` ` ` ....` ` ' i ^ } : +.+.+.+.+.+.+.+.+.+.+.",
"+.+.+.+.+.: | ` _ _ ` ` ` | ` ` ` ` ` ` ` | _ _ .._ ` ` ` ` ` ` ` ..] Q o.o.~ O +.+.+.+.+.+.+.+.+.+.",
"+.+.+.+.+.+.b o._ ` ` ` ` ` ` ` ` ` | ` ` ` ` ` ` ` ` ` ` ` ` ` ..X.! / ` ` X.y +.+.+.+.+.+.+.+.+.+.",
"+.+.+.+.+.+.; } ` ` ` ` ` ` ` ` ` ` ` ` ` ` ` ` ` ` ` ` ` ` ` ` X.} n | ` ` ` [ & +.+.+.+.+.+.+.+.+.",
"+.+.+.+.+.+.+.h X.` ` ` ` ` _ | ` ` ` ` ` ` X.` ` ` ` ...._ X.o.] e ~ X.` ` ` X.y +.+.+.+.+.+.+.+.+.",
"+.+.+.+.+.+.+.3 { ` ` ` ` ` ` ` ` ` ` ` ` } ! / } ` X.o.o...' S 3 +.{ ` ` ` ` X.W +.+.+.+.+.+.+.+.+.",
"+.+.+.+.+.+.+.+.f ` ` ` ` ` ` ` ` X.X.o.` ` } ~ Q Q E E k Z +.+.+.C ..` | _ ` X.' 1 +.+.+.+.+.+.+.+.",
"+.+.+.+.+.+.+.+.* ' ` _ _ o.X.o.} [ ~ W / ..X.` o.' +.+.+.+.+.+.+.v X.` ` _ _ ` } ; +.+.+.+.+.+.+.+.",
"+.+.+.+.+.+.+.+.+.r X.X.../ z t e +.+.+.< 9 / ..` / N B H G +.+.e } ` ` ` ` ` ` | q +.+.+.+.+.+.+.+.",
"+.+.+.+.+.+.+.+.+.O E E 0 +.+.+.+.+.+.+.+.+.$ ' ` X.o.k U T Y K ' X.` ` ` ` ` ` ..- +.+.+.+.+.+.+.+.",
"+.+.+.+.+.+.+.+.+.+.O +.+.+.+.+.+.+.+.+.+.+.+.q _ ] D I P J V / X._ ` ` _ _ ` ` } ; +.+.+.+.+.+.+.+.",
"+.+.+.+.+.+.+.+.+.+.+.+.+.+.+.+.+.+.+.+.+.+.+.+.c ) A F F ( _ ` ` ` ` ` ` ` ` X.^ < +.+.+.+.+.+.+.+.",
"+.+.+.+.+.+.+.+.+.+.+.+.+.+.+.+.+.+.+.+.+.+.+.+.8 X.X._ _ X.` ` ` ` ` ` ` ` ` X.h +.+.+.+.+.+.+.+.+.",
"+.+.+.+.+.+.+.+.+.+.+.+.+.+.+.+.+.+.+.+.+.+.+.+.3 { ` ` _ | ` ` ` ` | ` ` | ` ..7 +.+.+.+.+.+.+.+.+.",
"+.+.+.+.+.+.+.+.+.+.+.+.+.+.+.+.+.+.+.+.+.+.+.+.; { _ ` ` ` ` ` ` ` ` ` ` ` ` ' < +.+.+.+.+.+.+.+.+.",
"+.+.+.+.+.+.+.+.+.+.+.+.+.+.+.+.+.+.+.+.+.+.+.+.4 } ` ` ` ` ` ` ` ` ` ` ` ` X.z +.+.+.+.+.+.+.+.+.+.",
"+.+.+.+.+.+.+.+.+.+.+.+.+.+.+.+.+.+.+.+.+.+.+.+.t X.` ` ` ` ` ` ` ` ` ` ` ` ..- +.+.+.+.+.+.+.+.+.+.",
"+.+.+.+.+.+.+.+.+.+.+.+.+.+.+.+.+.+.+.+.+.+.+.# ^ ` ` ` ` ` ` ` _ ` ` ` ` X.~ o +.+.+.+.+.+.+.+.+.+.",
"+.+.+.+.+.+.+.+.+.+.+.+.+.+.+.+.+.+.+.+.+.+.+.h o.` ` ` ` ` ` ` ` ` ` ` ` | w +.+.+.+.+.+.+.+.+.+.+.",
"+.+.+.+.+.+.+.+.+.+.+.+.+.+.+.+.+.+.+.+.+.+.q ..` ` ` _ ` ` ` ` ` ` ` ` X.Q +.+.+.+.+.+.+.+.+.+.+.+.",
"+.+.+.+.+.+.+.+.+.+.+.+.+.+.+.+.+.+.+.+.+.# / X.` ` ` ` ` | _ ..` ` ..` { = +.+.+.+.+.+.+.+.+.+.+.+.",
"+.+.+.+.+.+.+.+.+.+.+.+.+.+.+.+.+.+.+.+.+.v X.` ` ` ` ` ` ` ` ` ` ` ` o.t +.+.+.+.+.+.+.+.+.+.+.+.+.",
"+.+.+.+.+.+.+.+.+.+.+.+.+.+.+.+.+.+.+.+.h o.` ` ` ` ` ` ` ` ` ` ` ` X.v +.+.+.+.+.+.+.+.+.+.+.+.+.+.",
"+.+.+.+.+.+.+.+.+.+.+.+.+.+.+.+.+.+.+.f o.` ` ` ` ` ` ` ` ` ` ` ` o.v o +.+.+.+.+.+.+.+.+.+.+.+.+.+.",
"+.+.+.+.+.+.+.+.+.+.+.+.+.+.+.+.+.+.s ..` ` ` ` ` ` ` ` ` ` ` ` ` } r 9 6 t t a f d f z b q +.+.+.+.",
"+.+.+.+.+.+.+.+.+.+.+.+.+.+.+.+.+.i ..` ` ` | _ ` ` | ` ` _ ` ` ..` o.o.o.o.o.o.o.o.o.o.O.j +.+.+.+.",
"+.+.+.+.+.+.+.+.+.+.+.+.+.+.+.+.e } ...._ .._ ..` ` ` ` ` ` ` ` ` ` ` ` ` ` ` ` ` ` ` ` X.f +.+.+.+.",
"+.+.+.+.+.+.+.+.+.+.+.+.+.+.+.: ] X......._ _ ..` ` ` ` ` ` ` ` ` ` ` ` ` ` ` ` .._ ` ` o.h +.+.+.+.",
"+.+.+.+.+.+.+.+.+.+.+.+.+.+.$ ' X._ ` ` _ _ .._ ` ` ` ` ` ` ` ` ` ` ` ` ` ` ` ` _ ` ` ` o.h +.+.+.+.",
"+.+.+.+.+.+.+.+.+.+.+.+.+.# W o.` ` ` ` .._ _ ..` ` ` ..` ` ` ..` ` ` ` ` ` ` ` | ` ` ` O.x +.+.+.+.",
"+.+.+.+.+.+.+.+.+.+.+.+.+.z o...` ` ` ..` ` ..` ` ` ` ` ` ` ` ` ` ` ` ` ` | ` ` | ` ` ` X.x +.+.+.+.",
"+.+.+.+.+.+.+.+.+.+.+.+.d o.` ` ` ` ` ` ` ` ` ` ..` ` ` ` ` ` ` ` ` ` ` ` ` ` ` ` ` ` ` o.h +.+.+.+.",
"+.+.+.+.+.+.+.+.+.+.+.q ..X.....` ` ..X.` ` ` ` ` ` ` ` ` ` ....` ` ` ` ` ` ` ` ` ` ....o.l +.+.+.+.",
"+.+.+.+.+.+.+.+.+.+.= { o.X.o.X.o.X.X.X.X.o.X.o.o.o.X.o.o.X.X.o.o...o.o.X.o...o.o.X.....O.k +.+.+.+.",
"+.+.+.+.+.+.+.+.+.+.w ! Q E Q Q Q Q E v v v v v z l l x x z z z f y y y y y y y 6 5 5 8 u = +.+.+.+.",
"+.+.+.+.+.+.+.+.+.+.+.+.+.+.+.+.+.+.+.+.+.+.+.+.+.+.+.+.+.+.+.+.+.+.+.+.+.+.+.+.+.+.+.+.+.+.+.+.+.+."
};
