/* XPM */
static char *result[] = {
/* columns rows colors chars-per-pixel */
"50 50 123 2 ",
"   c black",
".  c #010101",
"X  c #020202",
"o  c gray1",
"O  c #040404",
"+  c gray2",
"@  c #060606",
"#  c #070707",
"$  c gray3",
"%  c #090909",
"&  c gray4",
"*  c #0B0B0B",
"=  c #0C0C0C",
"-  c gray5",
";  c #0E0E0E",
":  c gray6",
">  c #101010",
",  c #111111",
"<  c gray7",
"1  c #131313",
"2  c gray8",
"3  c #151515",
"4  c #161616",
"5  c gray9",
"6  c #181818",
"7  c #191919",
"8  c gray10",
"9  c #1E1E1E",
"0  c gray12",
"q  c #202020",
"w  c gray13",
"e  c #232323",
"r  c gray14",
"t  c #252525",
"y  c gray15",
"u  c #272727",
"i  c #282828",
"p  c gray16",
"a  c gray17",
"s  c #2C2C2C",
"d  c #2D2D2D",
"f  c gray18",
"g  c #2F2F2F",
"h  c #313131",
"j  c #323232",
"k  c gray20",
"l  c #373737",
"z  c gray22",
"x  c #3A3A3A",
"c  c gray23",
"v  c #3C3C3C",
"b  c gray24",
"n  c #3E3E3E",
"m  c #3F3F3F",
"M  c #414141",
"N  c gray27",
"B  c gray28",
"V  c #484848",
"C  c #494949",
"Z  c #4B4B4B",
"A  c #4C4C4C",
"S  c #4E4E4E",
"D  c gray31",
"F  c #505050",
"G  c gray32",
"H  c #535353",
"J  c gray33",
"K  c #555555",
"L  c #565656",
"P  c #585858",
"I  c gray35",
"U  c #5A5A5A",
"Y  c #5D5D5D",
"T  c gray37",
"R  c #5F5F5F",
"E  c #606060",
"W  c gray38",
"Q  c #626262",
"!  c gray39",
"~  c #646464",
"^  c #656565",
"/  c gray40",
"(  c #676767",
")  c #686868",
"_  c DimGray",
"`  c gray42",
"'  c gray43",
"]  c #6F6F6F",
"[  c gray44",
"{  c #717171",
"}  c gray45",
"|  c #747474",
" . c gray46",
".. c #767676",
"X. c #777777",
"o. c gray47",
"O. c #797979",
"+. c gray48",
"@. c #7C7C7C",
"#. c #838383",
"$. c #848484",
"%. c #868686",
"&. c #8B8B8B",
"*. c gray55",
"=. c #8E8E8E",
"-. c gray56",
";. c gray57",
":. c gray59",
">. c gray60",
",. c #9D9D9D",
"<. c gray63",
"1. c gray66",
"2. c #A9A9A9",
"3. c gray67",
"4. c #AEAEAE",
"5. c gray71",
"6. c #C3C3C3",
"7. c gray79",
"8. c #CBCBCB",
"9. c #DADADA",
"0. c gray91",
"q. c gray94",
"w. c None",
/* pixels */
"w.w.w.w.w.w.w.w.w.w.w.w.w.w.w.w.w.w.w.w.w.w.w.w.w.w.w.w.w.w.w.w.w.w.w.w.w.w.w.w.w.w.w.w.w.w.w.w.w.w.",
"w.w.w.w.w.w.w.w.w.w.w.w.w.0.6.,.&.+.} ^ ~ ~ ^ R H H H H H K Q ~ ( ..%.:.2.9.q.w.w.w.w.w.w.w.w.w.w.w.",
"w.w.w.w.w.w.w.w.w.w.K n 3 w 9 6 3 < , : : : : ; - - - - - - : : > < 2 5 8 w 7 , f b A w.w.w.w.w.w.w.",
"w.w.w.w.w.w.w.w.W 0 .                                                               + 2 U w.w.w.w.w.",
"w.w.w.w.w.w.w.w.5                                                                       O W w.w.w.w.",
"w.w.w.w.w.w.w.B                                                                           u w.w.w.w.",
"w.w.w.w.w.w.w.4                                                                           $ 5.w.w.w.",
"w.w.w.w.w.w.w.$                                                                           # <.w.w.w.",
"w.w.w.w.w.w.w.r                                                                           - 7.w.w.w.",
"w.w.w.w.w.w.w.Z .                                                                         p w.w.w.w.",
"w.w.w.w.w.w.w.w.5                                                                       O Y w.w.w.w.",
"w.w.w.w.w.w.w.w.S                                                                       h w.w.w.w.w.",
"w.w.w.w.w.w.w.w.w.i                                                                 o l w.w.w.w.w.w.",
"w.w.w.w.w.w.w.w.w.{ %                             = l l l l l l l l x v , $ 2 e z I E w.w.w.w.w.w.w.",
"w.w.w.w.w.w.w.w.w.w.V                             ; =.w.w.w.w.w.w.w.w.w.w.w.w.w.w.w.w.w.w.w.w.w.w.w.",
"w.w.w.w.w.w.w.w.w.w.w.t                             8 w.w.w.w.w.w.w.w.w.w.w.w.w.w.w.w.w.w.w.w.w.w.w.",
"w.w.w.w.w.w.w.w.w.w.w.w.=                             z w.w.w.w.w.w.w.w.w.w.w.w.w.w.w.w.w.w.w.w.w.w.",
"w.w.w.w.w.w.w.w.w.w.w.w.Y .                           O J w.w.w.w.w.w.w.w.w.w.w.w.w.w.w.w.w.w.w.w.w.",
"w.w.w.w.w.w.w.w.w.w.w.w.w.b                             : X.w.w.w.w.w.w.w.w.w.w.w.w.w.w.w.w.w.w.w.w.",
"w.w.w.w.w.w.w.w.w.w.w.w.w.w.w                             w w.w.w.w.w.w.w.w.w.w.w.w.w.w.w.w.w.w.w.w.",
"w.w.w.w.w.w.w.w.w.w.w.w.w.w. .-                             c w.w.w.w.w.w.w.w.w.w.w.w.w.w.w.w.w.w.w.",
"w.w.w.w.w.w.w.w.w.w.w.w.w.w.w.G X                           @ P w.w.w.w.w.w.w.w.w.w.w.w.w.w.w.w.w.w.",
"w.w.w.w.w.w.w.w.w.w.w.w.w.w.w.w.j                             1 O.w.w.w.w.w.w.w.w.w.w.w.w.w.w.w.w.w.",
"w.w.w.w.w.w.w.w.w.w.w.w.w.w.w.w.w.8                             y w.w.w.w.w.w.w.w.w.w.w.w.w.w.w.w.w.",
"w.w.w.w.w.w.w.w.w.w.w.w.w.w.w.w.w.( *                             M w.w.w.w.w.w.w.w.w.w.w.w.w.w.w.w.",
"w.w.w.w.w.w.w.w.w.w.w.w.w.w.w.w.w.w.C X                           + E w.w.w.w.w.w.w.w.w.w.w.w.w.w.w.",
"w.w.w.w.w.w.w.w.w.w.w.w.w.w.w.w.w.w.w.d                             2 w.w.w.w.w.w.w.w.w.w.w.w.w.w.w.",
"w.w.w.w.w.w.w.w.w.w.w.w.w.w.w.w.w.w.w.w.4                             a w.w.w.w.w.w.w.w.w.w.w.w.w.w.",
"w.w.w.w.w.w.w.w.w.w.w.w.w.w.w.w.w.w.w.w._ $                             C w.w.w.w.w.w.w.w.w.w.w.w.w.",
"w.w.w.w.w.w.w.w.w.w.w.w.w.w.w.w.w.w.w.w.w.V                             + [ w.w.w.w.w.w.w.w.w.w.w.w.",
"w.w.w.w.w.w.w.w.w.w.w.w.w.w.w.w.w.w.w.w.w.w.d                             5 w.w.w.w.w.w.w.w.w.w.w.w.",
"w.w.w.w.w.w.w.w.w.w.w.w.w.w.w.w.w.w.w.w.w.w.w.4                             k w.w.w.w.w.w.w.w.w.w.w.",
"w.w.w.w.w.w.w.w.w.w.w.w.w.w.w.w.w.w.w.w.w.w.w./ +                             N w.w.w.w.w.w.w.w.w.w.",
"w.w.w.w.w.w.w.w.w.w.w.w.w.w.w.w.w.w.w.w.w.w.w.w.V                             * ] w.w.w.w.w.w.w.w.w.",
"w.w.w.w.w.w.w.w.w.w.w.w.w.w.w.w.w.w.w.w.w.w.w.w.w.s                             e w.w.w.w.w.w.w.w.w.",
"w.w.w.w.w.w.w.w.w.w.w.w.w.w.w.w.w.w.w.w.w.w.w.w.w.w.4                             N w.w.w.w.w.w.w.w.",
"w.w.w.w.w.w.w.w.w.w.w.w.w.w.w.w.w.w.w.w.w.w.w.w.w.w.) %                           + U w.w.w.w.w.w.w.",
"w.w.w.w.w.w.w.w.w.w.w.w.w.w. .' ) ) W R R R R R R T [ 0                             7 w.w.w.w.w.w.w.",
"w.w.w.w.w.w.w.w.w.w.g 1 $ .                                                           g w.w.w.w.w.w.",
"w.w.w.w.w.w.w.w.F :                                                                   + U w.w.w.w.w.",
"w.w.w.w.w.w.w.+.;                                                                       < w.w.w.w.w.",
"w.w.w.w.w.w.w.y                                                                           m w.w.w.w.",
"w.w.w.w.w.w.*..                                                                           & 4.w.w.w.",
"w.w.w.w.w.w.=..                                                                           @ >.w.w.w.",
"w.w.w.w.w.w.w.8                                                                           > 8.w.w.w.",
"w.w.w.w.w.w.w.c                                                                           z w.w.w.w.",
"w.w.w.w.w.w.w.w.1                                                                       % w.w.w.w.w.",
"w.w.w.w.w.w.w.w._ $                                                                   . D w.w.w.w.w.",
"w.w.w.w.w.w.w.w.w.W q * +                                                       O & 8 S w.w.w.w.w.w.",
"w.w.w.w.w.w.w.w.w.w.w.w.w.w.1.;.$.@. .` ! R R P H J J J J L R R Q ` | @.#.-.3.o.w.w.w.w.w.w.w.w.w.w."
};
