/* XPM */
static char *result[] = {
/* columns rows colors chars-per-pixel */
"50 50 98 2 ",
"   c #0C0C0C",
".  c #0D0F12",
"X  c #041419",
"o  c #0E1519",
"O  c #0D1A1E",
"+  c gray9",
"@  c #061C22",
"#  c #0D1F27",
"$  c #05252D",
"%  c #09252E",
"&  c #172327",
"*  c #16272C",
"=  c #19272E",
"-  c #14282D",
";  c #072630",
":  c #092531",
">  c #062C36",
",  c #0B2833",
"<  c #142B34",
"1  c #1D2930",
"2  c #152D38",
"3  c #06333F",
"4  c #15323D",
"5  c #18303B",
"6  c #232326",
"7  c #2B2E30",
"8  c #043643",
"9  c #0B3744",
"0  c #0A3846",
"q  c #0C3D4B",
"w  c #193B43",
"e  c #123E4C",
"r  c #323E52",
"t  c #523D55",
"y  c #6F3F5C",
"u  c #7A3C54",
"i  c #15404F",
"p  c #0C4455",
"a  c #0E4758",
"s  c #0E4A5B",
"d  c #144352",
"f  c #1E4A55",
"g  c #1E4458",
"h  c #124D5E",
"j  c #3B425A",
"k  c #0D4D60",
"l  c #124F61",
"z  c #0D5267",
"x  c #0D566C",
"c  c #0F596D",
"v  c #135264",
"b  c #185465",
"n  c #115A6E",
"m  c #0C5D74",
"M  c #0F5F7B",
"N  c #125D73",
"B  c #3C4E69",
"V  c #225469",
"C  c #255872",
"Z  c #345972",
"A  c #0F6076",
"S  c #07657F",
"D  c #0B637D",
"F  c #126279",
"G  c #42516E",
"H  c #8B3E61",
"J  c #84596E",
"K  c #A3446C",
"L  c #AC446F",
"P  c #B44876",
"I  c #B44D7B",
"U  c #0A6781",
"Y  c #0C6A85",
"T  c #076C89",
"R  c #176A87",
"E  c #0E728D",
"W  c #0D7391",
"Q  c #0A7997",
"!  c #0B7D9D",
"~  c #197390",
"^  c #306D86",
"/  c #6F6B84",
"(  c #0683A2",
")  c #0882A3",
"_  c #058AAD",
"`  c #0989AB",
"'  c #068EB2",
"]  c #098CB1",
"[  c #0592B7",
"{  c #0695BB",
"}  c #0698BE",
"|  c #0897C0",
" . c #019EC7",
".. c #019EC8",
"X. c #01A2CC",
"o. c #01A5D1",
"O. c #01A9D5",
"+. c None",
/* pixels */
"+.+.+.+.+.+.+.+.+.+.+.+.+.+.+.+.+.+.+.+.+.+.+.+.+.+.+.+.+.+.+.+.+.+.+.+.+.+.+.+.+.+.+.+.+.+.+.+.+.+.",
"+.+.+.+.+.+.+.+.+.+.+.+.+.+.+.+.+.+.+.+.+.+.+.+.+.+.+.+.+.+.+.+.+.+.+.+.+.+.+.+.+.+.+.+.+.+.+.+.+.+.",
"+.+.+.+.+.+.+.+.+.+.+.+.+.+.+.+.+.+.+.+.+.+.+.+.+.+.+.+.+.+.+.+.+.+.+.+.+.+.+.+.+.+.+.+.+.+.+.+.+.+.",
"+.+.+.+.+.+.+.+.+.+.+.+.+.+.+.+.+.+.+.+.+.+.+.+.+.+.+.+.+.+.+.+.+.+.+.+.+.+.+.+.+.+.+.+.+.+.+.+.+.+.",
"+.+.+.+.+.+.+.+.+.+.+.+.+.+.+.+.+.+.+.+.+.+.+.+.+.+.+.+.+.+.+.+.+.+.+.+.+.+.+.+.7 +.+.+.+.+.+.+.+.+.",
"+.+.+.+.+.+.+.+.+.+.+.+.+.+.+.+.+.+.+.+.+.+.+.+.+.+.+.+.+.+.+.+.+.+.+.+.+.+.+.+.+.6 +.+.+.+.+.+.+.+.",
"+.+.+.+.+.+.+.+.+.+.+.+.+.+.+.+.+.+.+.+.+.+.+.+.+.+.+.+.+.+.+.+.+.+.6 +.+.+.+.+.+.6 +.+.+.+.+.+.+.+.",
"+.+.+.+.+.+.+.+.+.+.+.+.+.+.+.+.+.+.+.+.+.+.+.+.+.+.+.+.+.+.+.+.+.+.+.+.+.+.+.+.+.+.+.+.+.+.+.+.+.+.",
"+.+.+.+.< F F F F F F F F A A m N d +.+.+.+.+.+.+.+.& +.+.+.+.+.+ 6 +.+.+.+.  +.+.+.5 +.+.+.+.+.+.+.",
"+.+.+.+.9 X.X.X.X.X.X.X.X.X.X.X.O.D +.+.+.+.+.+.+.+.d w +.+.+.+.  +.+.+.+.+.  +.+.w F +.+.+.+.+.+.+.",
"+.+.+.+.9 .. . . . . . . . . . .o.D +.+.+.+.+.+.+.+.v F +.+.+.+.+.+.1 +.+.+.+.+.+.N Y +.+.+.+.+.+.+.",
"+.+.+.+.e .... . . . . . . ... .o.A +.+.+.+.+.+.+.+.k | h +.+.+.+.A Y 6 +.+.+.+.e { S +.+.+.+.+.+.+.",
"+.+.+.+.e  ... ... . . . . . . .o.D +.+.+.+.+.+.+.+.h o.{ E N c E { } Y h f f n ` O.x +.+.+.+.+.+.+.",
"+.+.+.+.0 .... . . . . . ... . .X.D +.+.+.+.+.+.+.+.h X.X.X. . .X. .X.X.{ ` ]  .X.X.n +.+.+.+.+.+.+.",
"+.+.+.+.0  . . . . . . . . . . .o.D +.+.+.+.+.+.+.+.l X. . . . . . . . .X.X.X.X...X.N +.+.+.+.+.+.+.",
"+.+.+.+.0  ... . . ... . . . ...o.A +.+.+.+.+.+.+.+.l X. . . . . . . . . . . .` ..X.m +.+.+.+.+.+.+.",
"+.+.+.+.3  ... . . . . . . ... .X.A +.+.+.+.+.+.+.+.h X... ... . . . . .....X.R S } N +.+.+.+.+.+.+.",
"+.+.+.+.> } .. . ... . . . . . .o.D +.+.+.+.+.+.+.+.h X. . . . . . . . . .......x Y v +.+.+.+.+.+.+.",
"+.+.+.+.% { .. . . . . . . . . .X.M +.+.+.+.+.+.+.+.d o. ... . . ... . . . ... .M X.k +.+.+.+.+.+.+.",
"+.+.+.+.% { X. . . . . ... . . .X.Q d l b b b b v e S X. . . . . . . . . . .X.! R o.h +.+.+.+.+.+.+.",
"+.+.+.+.% } ...... . . . . . . ...X..... .X... . . .X. . ... . . . . . ..... .x ' X.s +.+.+.+.+.+.+.",
"+.+.+.+.: } .... . . . . . ... . . ... . . . . . . . . ... . . . ... .......M r X.X.a +.+.+.+.+.+.+.",
"+.+.+.+.% } X. . . . ... . ..... . . . . . . . . . . . . . . . .......X...R u G X.X.a +.+.+.+.+.+.+.",
"+.+.+.+.$ [ X. . . . . ... . ... . . . . . . . . . . . . . .X.X.X.X...] Z H P B ..X.a +.+.+.+.+.+.+.",
"+.+.+.+.% [ o.X.X.X.o.X.o.X.X.X.o.X.o.o.o.o.o.o.X.X... . . .[ ) Q W D r K I K V X.X.p +.+.+.+.+.+.+.",
"+.+.+.+.+ m U U S Y T T T T T Y S S S S S S S U U Y ' X. .X.) E ! ` | ` y I J E X.X.p +.+.+.+.+.+.+.",
"+.+.+.+.+.+.+.+.+.+.+.+.+.+.+.+.+.+.+.+.+.+.+.+.+.+.m o. . ...X.X...X.X.j L t [ X.X.q +.+.+.+.+.+.+.",
"+.+.+.+.+.+.+.+.+.+.+.+.+.+.+.+.+.+.+.+.+.+.+.+.+.+.m X. ... . . .X.| ~ J u N X. . .i +.+.+.+.+.+.+.",
"+.+.+.+.+.+.+.+.+.+.+.+.+.+.+.+.+.+.+.+.+.+.+.+.+.+.A o. . . . . .X.W V / ^ |  . . .e +.+.+.+.+.+.+.",
"+.+.+.+.+.+.+.+.+.+.+.+.+.+.+.+.+.+.+.+.+.+.+.+.+.+.m X. . . . . . .| X.} X.X. . . .8 +.+.+.+.+.+.+.",
"+.+.+.+.+.+.+.+.+.+.+.+.+.+.+.+.+.+.+.+.+.+.+.+.+.+.A o... . . . . . . . . . . . . .8 +.+.+.+.+.+.+.",
"+.+.+.+.+.+.+.+.+.+.+.+.+.+.+.+.+.+.+.+.+.+.+.+.+.+.m X. . . . . . . . . . . . . . .3 +.+.+.+.+.+.+.",
"+.+.+.+.+.+.+.+.+.+.+.+.+.+.+.+.+.+.+.+.+.+.+.+.+.+.z X... . . . . . . . . . . ...| > +.+.+.+.+.+.+.",
"+.+.+.+.+.+.+.+.+.+.+.+.+.+.+.+.+.+.+.+.+.+.+.+.+.+.v X... . . . ... . . . . . .X.} % +.+.+.+.+.+.+.",
"+.+.+.+.+.+.+.+.+.+.+.+.+.+.+.+.+.+.+.+.+.+.+.+.+.+.h X. . . . . . . . . ... . . .{ % +.+.+.+.+.+.+.",
"+.+.+.+.+.+.+.+.+.+.+.+.+.+.+.+.+.+.+.+.+.+.+.+.+.+.v X... . . . . ... . . . . .X.{ < +.+.+.+.+.+.+.",
"+.+.+.+.+.+.+.+.+.+.+.+.+.+.+.+.+.+.+.+.+.+.+.+.+.+.h X..... . . . . . . . ... .X.{ 5 +.+.+.+.+.+.+.",
"+.+.+.+.+.+.+.+.+.+.+.+.+.+.+.+.+.+.+.+.+.+.+.+.+.+.h X. . ... . . ... . . . . ...[ 4 +.+.+.+.+.+.+.",
"+.+.+.+.+.+.+.+.+.+.+.+.+.+.+.+.+.+.+.+.+.+.+.+.+.+.h X... . . ... . . . . . . .X.[ , +.+.+.+.+.+.+.",
"+.+.+.+.+.+.+.+.+.+.+.+.+.+.+.+.+.+.+.+.+.+.+.+.+.+.p X. . . . . . . . ... . . .X.[ % +.+.+.+.+.+.+.",
"+.+.+.+.+.+.+.+.+.+.+.+.+.+.+.+.+.+.+.+.+.+.+.+.+.+.s X. . . . . ... . . . . .....' @ +.+.+.+.+.+.+.",
"+.+.+.+.+.+.+.+.+.+.+.+.+.+.+.+.+.+.+.+.+.+.+.+.+.+.k X. . . . . . . . . ... . .X._ X +.+.+.+.+.+.+.",
"+.+.+.+.+.+.+.+.+.+.+.+.+.+.+.+.+.+.+.+.+.+.+.+.+.+.p X... . . . . . . . . . . .X._ X +.+.+.+.+.+.+.",
"+.+.+.+.+.+.+.+.+.+.+.+.+.+.+.+.+.+.+.+.+.+.+.+.+.+.0 X. . . . . . ... . . . . ..._ * +.+.+.+.+.+.+.",
"+.+.+.+.+.+.+.+.+.+.+.+.+.+.+.+.+.+.+.+.+.+.+.+.+.+.9 X. . . . . . . . . . . . .X._ - +.+.+.+.+.+.+.",
"+.+.+.+.+.+.+.+.+.+.+.+.+.+.+.+.+.+.+.+.+.+.+.+.+.+.9  . .X. . . ... . . ..... .X.( O +.+.+.+.+.+.+.",
"+.+.+.+.+.+.+.+.+.+.+.+.+.+.+.+.+.+.+.+.+.+.+.+.+.+.9 o.o.o.X.o.o.o.X.X.X.o.o.X.o.! . +.+.+.+.+.+.+.",
"+.+.+.+.+.+.+.+.+.+.+.+.+.+.+.+.+.+.+.+.+.+.+.+.+.+.< Y Y Y Y Y Y Y U U Y Y Y S U z . +.+.+.+.+.+.+.",
"+.+.+.+.+.+.+.+.+.+.+.+.+.+.+.+.+.+.+.+.+.+.+.+.+.+.+.+.+.+.+.+.+.+.+.+.+.+.+.+.+.+.+.+.+.+.+.+.+.+.",
"+.+.+.+.+.+.+.+.+.+.+.+.+.+.+.+.+.+.+.+.+.+.+.+.+.+.+.+.+.+.+.+.+.+.+.+.+.+.+.+.+.+.+.+.+.+.+.+.+.+."
};
