/* XPM */
static char *result[] = {
/* columns rows colors chars-per-pixel */
"50 50 109 2 ",
"   c black",
".  c #010101",
"X  c #020202",
"o  c gray1",
"O  c #040404",
"+  c gray2",
"@  c #060606",
"#  c #070707",
"$  c gray3",
"%  c #090909",
"&  c gray4",
"*  c #0B0B0B",
"=  c #0C0C0C",
"-  c gray5",
";  c #0E0E0E",
":  c gray6",
">  c #101010",
",  c #111111",
"<  c gray7",
"1  c #131313",
"2  c gray8",
"3  c #151515",
"4  c #161616",
"5  c gray9",
"6  c #181818",
"7  c #191919",
"8  c gray10",
"9  c #1B1B1B",
"0  c gray11",
"q  c #1D1D1D",
"w  c #1E1E1E",
"e  c gray12",
"r  c #202020",
"t  c #222222",
"y  c #232323",
"u  c gray14",
"i  c gray15",
"p  c #282828",
"a  c #2A2A2A",
"s  c gray17",
"d  c #2C2C2C",
"f  c #2D2D2D",
"g  c gray18",
"h  c gray19",
"j  c #313131",
"k  c #323232",
"l  c gray20",
"z  c #353535",
"x  c gray21",
"c  c #373737",
"v  c gray22",
"b  c #393939",
"n  c #3A3A3A",
"m  c gray23",
"M  c #3C3C3C",
"N  c gray24",
"B  c #3E3E3E",
"V  c #3F3F3F",
"C  c gray25",
"Z  c #414141",
"A  c #444444",
"S  c gray27",
"D  c #464646",
"F  c gray28",
"G  c #484848",
"H  c #494949",
"J  c gray29",
"K  c #4B4B4B",
"L  c #4C4C4C",
"P  c #4E4E4E",
"I  c #515151",
"U  c gray32",
"Y  c #535353",
"T  c gray33",
"R  c #565656",
"E  c gray34",
"W  c #585858",
"Q  c gray35",
"!  c #5B5B5B",
"~  c #5D5D5D",
"^  c #606060",
"/  c gray38",
"(  c #626262",
")  c gray39",
"_  c #676767",
"`  c DimGray",
"'  c gray42",
"]  c #6D6D6D",
"[  c gray44",
"{  c #727272",
"}  c #747474",
"|  c gray46",
" . c #7B7B7B",
".. c gray49",
"X. c #7E7E7E",
"o. c #808080",
"O. c #838383",
"+. c #848484",
"@. c #8B8B8B",
"#. c gray57",
"$. c #A0A0A0",
"%. c #A5A5A5",
"&. c #B2B2B2",
"*. c #B6B6B6",
"=. c #C6C6C6",
"-. c #CDCDCD",
";. c gray82",
":. c #DDDDDD",
">. c None",
/* pixels */
">.>.>.>.>.>.>.>.>.>.>.>.>.>.>.>.>.>.>.>.>.>.>.>.>.>.>.>.>.>.>.>.>.>.>.>.>.>.>.>.>.>.>.>.>.>.>.>.>.>.",
">.>.>.>.>.>.>.>.>.>.>.>.>.>.>.>.>.>.>.>.>.>.>.>.>.>.>.>.=.%.*.:.>.>.>.>.>.>.>.>.>.>.>.>.>.>.>.>.>.>.",
">.>.>.>.>.>.>.>.>.>.>.>.>.>.>.>.>.>.>.>.>.>.>.o.n v r ; 5 2 3 7 7 b b >.>.>.>.>.>.>.>.>.>.>.>.>.>.>.",
">.>.>.>.>.>.>.>.>.>.>.>.>.>.>.>.>.>.>.>.J g 7 # X                   . @ 0 l R >.>.>.>.>.>.>.>.>.>.>.",
">.>.>.>.>.>.>.>.>.>.>.>.>.>.>.>.>.] n < X                                     2 Q >.>.>.>.>.>.>.>.>.",
">.>.>.>.>.>.>.>.>.>.>.>.>.>.>.P p o                                             O F >.>.>.>.>.>.>.>.",
">.>.>.>.>.>.>.>.>.>.>.>.>.} d o                                                   - O.>.>.>.>.>.>.>.",
">.>.>.>.>.>.>.>.>.>.>.>.L =                                                         v >.>.>.>.>.>.>.",
">.>.>.>.>.>.>.>.>.>.>.y                                                             8 >.>.>.>.>.>.>.",
">.>.>.>.>.>.>.>.>.>.6                                                               - >.>.>.>.>.>.>.",
">.>.>.>.>.>.>.>.#.9                                                                 a >.>.>.>.>.>.>.",
">.>.>.>.>.>.>.>.y                                                                 O _ >.>.>.>.>.>.>.",
">.>.>.>.>.>.>.z                                                                 = ) >.>.>.>.>.>.>.>.",
">.>.>.>.>.>.~ X                                 & e 9 N J D h t y ; O       X y _ >.>.>.>.>.>.>.>.>.",
">.>.>.>.>.>.w                               < J >.>.>.>.>.>.>.>.>.>.T F 5 i G >.>.>.>.>.>.>.>.>.>.>.",
">.>.>.>.>.C                             X m >.>.>.>.>.>.>.>.>.>.>.>.>.>.>.>.>.>.>.>.>.>.>.>.>.>.>.>.",
">.>.>.>.>.q                           @ W >.>.>.>.>.>.>.>.>.>.>.>.>.>.>.>.>.>.>.>.>.>.>.>.>.>.>.>.>.",
">.>.>.>.~ X                         o S >.>.>.>.>.>.>.>.>.>.>.>.>.>.>.>.>.>.>.>.>.>.>.>.>.>.>.>.>.>.",
">.>.>.>.M                           x >.>.>.>.>.>.>.>.>.>.>.>.>.>.>.>.>.>.>.>.>.>.>.>.>.>.>.>.>.>.>.",
">.>.>.>.7                         0 >.>.>.>.>.>.>.>.>.>.>.>.>.>.>.>.>.>.>.>.>.>.>.>.>.>.>.>.>.>.>.>.",
">.>.>.>.;                       X U >.>.>.>.>.>.>.>.>.>.>.>.>.>.>.>.>.>.>.>.>.>.>.>.>.>.>.>.>.>.>.>.",
">.>.>....                       6 >.>.>.>.>.>.>.>.>.>.>.>.>.>.>.>.>.>.>.>.>.>.>.>.>.>.>.>.>.>.>.>.>.",
">.>.>.|                         s >.>.>.>.>.>.>.>.>.>.>.>.>.>.>.>.>.>.>.>.>.>.>.>.>.>.>.>.>.>.>.>.>.",
">.>.>.P                         _ >.>.>.>.>.>.>.>.>.>.>.>.>.>.>.>.>.>.>.>.>.>.>.>.>.>.>.>.>.>.>.>.>.",
">.>.>.B                       o >.>.>.>.>.>.>.>.>.>.>.>.>.>.>.>.>.>.>.>.>.>.>.>.>.>.>.>.>.>.>.>.>.>.",
">.>.>.b                       O >.>.>.>.>.>.>.>.>.>.>.>.>.>.>.>.>.>.>.>.>.>.>.>.>.>.>.>.>.>.>.>.>.>.",
">.>.>.A                         ^ >.>.>.>.>.>.>.>.>.>.>.>.>.>.>.>.>.>.>.>.>.>.>.>.>.>.>.>.>.>.>.>.>.",
">.>.>.^                         N >.>.>.>.>.>.>.>.>.>.>.>.>.>.>.>.>.>.>.>.>.>.>.>.>.>.>.>.>.>.>.>.>.",
">.>.>.X.                        t >.>.>.>.>.>.>.>.>.>.>.>.>.>.>.>.>.>.>.>.>.>.>.>.>.>.>.>.>.>.>.>.>.",
">.>.>.>.#                       + ) >.>.>.>.>.>.>.>.>.>.>.>.>.>.>.>.>.>.>.>.>.>.>.>.>.>.>.>.>.>.>.>.",
">.>.>.>.1                         w >.>.>.>.>.>.>.>.>.>.>.>.>.>.>.>.>.>.>.>.>.>.>.>.>.>.>.>.>.>.>.>.",
">.>.>.>.u                         . I >.>.>.>.>.>.>.>.>.>.>.>.>.>.>.>.>.>.>.>.>.>.>.>.>.>.>.>.>.>.>.",
">.>.>.>.C .                         $ { >.>.>.>.>.>.>.>.>.>.>.>.>.>.>.>.>.>.>.>.>.>.>.>.>.>.>.>.>.>.",
">.>.>.>.@.-                           = R >.>.>.>.>.>.>.>.>.>.>.>.>.>.>.>.>.>.>.>.>.>.>.>.>.>.>.>.>.",
">.>.>.>.>.f                             * V >.>.>.>.>.>.>.>.>.>.>.>.>.>.>.>.>.>.>.>.>.>.>.>.>.>.>.>.",
">.>.>.>.>. .$                             . a ! >.>.>.>.>.>.>.>.>.>.>.>.>.>.>.>.>.>.>.>.>.>.>.>.>.>.",
">.>.>.>.>.>.Z                                 # 0 n >.>.>.>.>.P p 7 % o X @ , h | >.>.>.>.>.>.>.>.>.",
">.>.>.>.>.>.>.8                                     O * - = @                   ; Y >.>.>.>.>.>.>.>.",
">.>.>.>.>.>.>.} &                                                                 , | >.>.>.>.>.>.>.",
">.>.>.>.>.>.>.>.! *                                                                 c >.>.>.>.>.>.>.",
">.>.>.>.>.>.>.>.>./ =                                                               : >.>.>.>.>.>.>.",
">.>.>.>.>.>.>.>.>.>.' 8                                                               &.>.>.>.>.>.>.",
">.>.>.>.>.>.>.>.>.>.>.>.p X                                                         1 >.>.>.>.>.>.>.",
">.>.>.>.>.>.>.>.>.>.>.>.>.E 4                                                       A >.>.>.>.>.>.>.",
">.>.>.>.>.>.>.>.>.>.>.>.>.>.>.H 5                                                 a >.>.>.>.>.>.>.>.",
">.>.>.>.>.>.>.>.>.>.>.>.>.>.>.>.>.P e +                                       % M >.>.>.>.>.>.>.>.>.",
">.>.>.>.>.>.>.>.>.>.>.>.>.>.>.>.>.>.>.( k 6 $ X                         X > j [ >.>.>.>.>.>.>.>.>.>.",
">.>.>.>.>.>.>.>.>.>.>.>.>.>.>.>.>.>.>.>.>.>.>.A C 8 , 1 = % $ * > 5 3 B G >.>.>.>.>.>.>.>.>.>.>.>.>.",
">.>.>.>.>.>.>.>.>.>.>.>.>.>.>.>.>.>.>.>.>.>.>.>.>.>.;.$.` K S ! +.-.>.>.>.>.>.>.>.>.>.>.>.>.>.>.>.>.",
">.>.>.>.>.>.>.>.>.>.>.>.>.>.>.>.>.>.>.>.>.>.>.>.>.>.>.>.>.>.>.>.>.>.>.>.>.>.>.>.>.>.>.>.>.>.>.>.>.>."
};
