/* XPM */
static char *result[] = {
/* columns rows colors chars-per-pixel */
"50 50 116 2 ",
"   c #050606",
".  c #080707",
"X  c #050906",
"o  c #0C0D0C",
"O  c #110C0F",
"+  c #0B150E",
"@  c #11100E",
"#  c #0F0F12",
"$  c #140F13",
"%  c #141314",
"&  c #191216",
"*  c #141A15",
"=  c #1C151A",
"-  c #151A19",
";  c #1B1A1C",
":  c #22161E",
">  c #20181E",
",  c #1B201B",
"<  c #1D1D20",
"1  c #241A21",
"2  c #291C25",
"3  c #2D1C29",
"4  c #331E2D",
"5  c #242324",
"6  c #2D2329",
"7  c #262A2B",
"8  c #2C2F2F",
"9  c #31222D",
"0  c #362731",
"q  c #3A2334",
"w  c #392835",
"e  c #3F2539",
"r  c #3D2B39",
"t  c #2E3235",
"y  c #333534",
"u  c #43253B",
"i  c #48263E",
"p  c #432A3D",
"a  c #48293F",
"s  c #462D40",
"d  c #4B2D43",
"f  c #522D45",
"g  c #5F2E44",
"h  c #542E4B",
"j  c #4E3145",
"k  c #4E3048",
"l  c #56314D",
"z  c #59324D",
"x  c #5E3454",
"c  c #593D57",
"v  c #5C3E59",
"b  c #623249",
"n  c #683D4C",
"m  c #71354F",
"M  c #623556",
"N  c #693656",
"B  c #663659",
"V  c #6A375C",
"C  c #653C5B",
"Z  c #6A3A5D",
"A  c #753753",
"S  c #6E3B61",
"D  c #723D64",
"F  c #7A3D60",
"G  c #773E68",
"H  c #7B3F69",
"J  c #554255",
"K  c #7B426C",
"L  c #803D58",
"P  c #8C3F61",
"I  c #854F6A",
"U  c #9F486E",
"Y  c #834573",
"T  c #884677",
"R  c #844976",
"E  c #8B4877",
"W  c #8B4579",
"Q  c #8D497B",
"!  c #924B7F",
"~  c #905A70",
"^  c #96547B",
"/  c #B34D7B",
"(  c #954D82",
")  c #994C85",
"_  c #9C4F88",
"`  c #9D5087",
"'  c #9D5189",
"]  c #A05E80",
"[  c #A2538D",
"{  c #A65391",
"}  c #AA5694",
"|  c #AB5997",
" . c #AE5799",
".. c #AF5999",
"X. c #B05798",
"o. c #B35A9D",
"O. c #A66984",
"+. c #BC5DA3",
"@. c #BF5FA8",
"#. c #BE60A5",
"$. c #C462AC",
"%. c #C964AF",
"&. c #CC64B2",
"*. c #CE68B6",
"=. c #D166B6",
"-. c #D268B7",
";. c #D467B9",
":. c #DB67BC",
">. c #D569BA",
",. c #D969BD",
"<. c #DD6BC1",
"1. c #E16DC4",
"2. c #E36EC8",
"3. c #E670C7",
"4. c #E371C8",
"5. c None",
/* pixels */
"5.5.5.5.5.5.5.5.5.5.5.5.5.5.5.5.5.5.5.5.5.5.5.5.5.5.5.5.5.5.5.5.5.5.5.5.5.5.5.5.5.5.5.5.5.5.5.5.5.5.",
"5.5.5.5.5.5.5.5.5.5.5.5.5.5.5.5.5.5.5.5.5.5.5.5.5.5.5.5.5.5.5.5.5.5.5.5.5.5.5.5.5.5.5.5.5.5.5.5.5.5.",
"5.5.5.5.5.5.5.5.5.5.5.5.5.5.5.5.5.5.5.5.5.5.5.5.5.5.5.5.5.5.5.5.5.5.5.5.5.5.5.5.5.5.5.5.5.5.5.5.5.5.",
"5.5.5.5.5.5.5.5.5.5.5.5.t 5.5.5.5.5.5.5.5.5 5.7 5.5.5.5.5.5.5.5 5.5.5.5.5.5.5.5.5.5.5.5.5.5.5.5.5.5.",
"5.5.5.5.5.5.5.5.5.5.5.; 5.5.5.5.5.5.5.5.5.5.; 5.5.5.5.5.5.5.5.5.5.5.5.5.5.5.5.5.5.5.5.5.5.5.5.5.5.5.",
"5.5.5.5.5.5.5.5.5.5.5.< 5.5.5.5.5.5.5.5.5.5.7 5.5.5.5.5.5.5.5.5.5 p q 2 5.5.5.5.5.5.5.5.5.5.5.5.5.5.",
"5.5.5.5.5.5.5.5.5.5.5.; 5.5.5.5 % 5.5.5.5.5.y 5.% - 5.5.5.5.5.5.j &.%.$.X.( K C k 9 5.5.5.5.5.5.5.5.",
"5.5.5.5.5.5.5.5.5.5.5.- 5.5.5.,   - 5.5.5.5.8 5.o o 5.5.5.5.5.5.K 3.:.,.1.1.2.,.;.%.[ K p 5.5.5.5.5.",
"5.5.5.5.5.5.5.5.5.5.5.& t 5.5.5.  5.5.5.5.5.< 5.$ % 5.5.5.5.5.r $.,.,.,.,.,.,.,.,.,.1.1.-. .f o 5.5.",
"5.5.5.5.5.5.5.5.5.5.p X.R 5.5.5.5.5.5.5.5.s ( v 5.5.5.5.5.5.r | :.,.,.,.,.,.,.,.,.,.,.:.,.4.Z 5.5.5.",
"5.5.5.5.5.5.5.5.+ B -.<.<.! J 5.5.5.5.5.J o.<.%.Q 5.5.5.5.R $.<.,.,.,.,.,.,.,.,.,.,.,.,.1. .> 5.5.5.",
"5.5.5.5.5.5.5.o B { ( &.,.1.%.' R S R { -.<.;.<.<.*.$.%.;.<.<.,.,.,.,.,.;.,.,.,.,.,.,.,.;.u 5.5.5.5.",
"5.5.5.5.5.5.* B ' d $.,.,.,.,.4.<.<.<.1.;.<.;.:.:.:.<.<.<.,.,.,.,.,.,.,.,.,.,.,.,.,.,.4.K , 5.5.5.5.",
"5.5.5.5.5.5.h ,.,.R $.,.,.,.,.,.,.,.,.,.<.:.<.;.,.:.:.:.,.,.,.,.,.,.,.,.,.,.,.,.,.,.,.#.: 5.5.5.5.5.",
"5.5.5.5.5.q %.<.1.X.E 1.:.,.>.,.,.,.,.,.;.<.;.<.>.<.<.<.1.1.<.1.1.1.,.,.,.,.:.,.,.,.,.z 5.5.5.5.5.5.",
"5.5.5.5.%  .<.,.,.,.D ( ,.<.1.,.<.<.,.<.<.<.:.<.<.$.} ) ( W Y Q ( | +.=.<.1.,.,.,.4.! ; 5.5.5.5.5.5.",
"5.5.5.5.B <.,.,.,.<.Y g F ! } o.X.o.+. .{ ` } $.B 9 5.5.5.5.5.5.5.5.6 p M Y } &.<.$.2 5.5.5.5.5.5.5.",
"5.5.5.1 %.<.:.,.,.1.E P / L z } { {  .+.#.&.o.9 5.5.5.5.5.5.5.5.5.5.5.5.5.5.5.w x e 5.5.5.5.5.5.5.5.",
"5.5.- V <.,.,.,.,.<. .m / A X.2.1.1.<.,.:.=.4 5.5.5.5.5.5.5.5.5.5.5.5.5.5.5.5.5.5.5.5.5.5.5.5.5.5.5.",
"5.5.; #.<.,.:.,.,.,.:.N U b [ +.;.#.%.,.<.| % 5.5.5.5.5.5.5.5.5.5.5.5.5.5.5.5.5.5.5.5.5.5.5.5.5.5.5.",
"5.5.d <.,.,.,.,.,.,.<.+.f n O.~ z M S 4.:.#.& 5.5.5.5.5.5.5.5.5.5.5.5.5.5.5.5.5.5.5.5.5.5.5.5.5.5.5.",
"5.5.D 1.,.,.,.,.,.,.,.1.} I ] ^ +.o.} ,.,.,.( 9 q p j j j j p 0 5.5.5.5.5.5.5.5.5.5.5.5.5.5.5.5.5.5.",
"5.5.W 1.,.,.,.,.,.,.,.,.<.-.&.,.<.:.<.,.,.,.<.>.&.>.,.-.,.,.&.%.o.[ Q D h 6 5.5.5.5.5.5.5.5.5.5.5.5.",
"5.o _ 1.,.,.,.,.,.,.,.;.,.,.,.,.,.,.,.,.,.,.,.,.<.,.,.,.,.,.,.,.<.<.1.1.<.%.Q p ; 5.5.5.5.5.5.5.5.5.",
"5.2 +.<.,.,.,.,.,.,.,.,.,.,.,.,.,.,.,.,.,.,.,.,.,.,.,.,.,.,.,.,.>.<.;.;.,.<.<.,.} p * 5.5.5.5.5.5.5.",
"5.1 #.:.,.,.,.,.,.,.,.,.,.,.,.,.,.,.,.,.,.:.,.,.;.,.,.,.,.,.,.,.,.,.:.<.,.,.:.<.<.,.K < 5.5.5.5.5.5.",
"5.&  .<.,.,.,.,.,.,.,.,.,.,.,.,.,.,.,.,.:.,.,.<.<.<.<.,.,.,.,.,.,.,.,.,.,.,.,.;.,.,.1.' & 5.5.5.5.5.",
"5.%  .<.,.,.,.,.,.,.,.,.,.,.,.,.,.,.<.<.<.,.&.o.{ ' { $.-.1.,.,.,.,.,.,.,.,.>.<.,.:.>.1.( & 5.5.5.5.",
"5.# } <.,.,.,.,.,.,.,.,.,.,.,.,.,.<.<.o.K l 9 5.5.5.5.= q x o.<.<.:.:.,.,.,.,.,.,.,.,.,.4.D o 5.5.5.",
"5.. ( 1.,.,.,.,.,.,.;.,.,.,.,.,.,.-.D % 5.5.5.5.5.5.5.5.5.5.& S *.<.,.,.,.,.,.,.,.,.,.,.:.,.u 5.5.5.",
"5.  K 1.,.,.,.,.,.,.,.,.,.,.,.,.,.h X 5.5.5.5.5.5.5.5.5.5.5.5.o u &.<.,.,.,.,.,.,.,.,.,.,.1.} o 5.5.",
"5.5.l <.,.,.,.,.,.,.,.,.,.,.,.1.Q X 5.5.5.5.5.5.5.5.5.5.5.5.5.5.+ i ,.;.,.,.,.,.,.,.,.:.,.,.,.u 5.5.",
"5.5.4 ;.,.,.,.,.,.,.,.,.,.,.,.1.x 5.5.5.5.5.5.5.5.5.5.5.5.5.5.5.5.  _ 1.,.,.,.,.,.,.,.,.,.,.<.R & 5.",
"5.5.; X.1.,.,.,.,.,.,.,.;.,.,.1.z 5.5.5.5.5.5.5.5.5.5.5.5.5.5.5.5.5.d 1.,.,.,.,.,.,.,.;.,.,.<.o.o 5.",
"5.5.- Z 1.,.,.,.,.,.,.,.,.,.,.4.M 5.5.5.5.5.5.5.5.5.5.5.5.5.5.5.5.5.e ,.,.,.,.,.,.,.,.,.,.,.<.+.O 5.",
"5.5.5.2 *.,.,.,.,.,.,.,.,.,.,.<.' . 5.5.5.5.5.5.5.5.5.5.5.5.5.5.5.5.u <.,.,.,.,.,.,.,.,.,.,.<.o.$ 5.",
"5.5.5.* D 1.,.,.,.,.,.,.,.,.,.,.<.x o 5.5.5.5.5.5.5.5.5.5.5.5.5.5.o E <.,.,.,.,.,.,.,.,.,.;.1.! o 5.",
"5.5.5.5.% ` 4.,.,.,.,.,.,.,.,.,.,.,.x o 5.5.5.5.5.5.5.5.5.5.5.5.1 K <.,.,.,.,.,.,.,.,.,.,.,.<.k 5.5.",
"5.5.5.5.5.: [ <.,.,.,.,.,.,.;.,.,.<.,.[ l 9 ; 5.5.5.5.5.5.; 2 z +.<.,.;.,.,.,.,.,.,.,.,.,.2.[ O 5.5.",
"5.5.5.5.5.5.> ` 1.,.,.,.,.,.,.,.,.,.,.1.<.&.} W S V G E ! { $.,.<.,.,.,.,.,.,.,.,.,.:.,.1.+.6 5.5.5.",
"5.5.5.5.5.5.5.& ! <.,.,.,.,.,.,.,.,.,.,.,.<.<.1.1.1.1.1.<.<.,.,.,.,.,.,.:.,.,.,.,.,.,.1.o.4 5.5.5.5.",
"5.5.5.5.5.5.5.5.@ Z -.1.,.,.,.,.,.,.,.,.,.,.,.,.,.,.,.,.,.,.,.,.,.,.,.,.,.,.,.:.,.<.,.E 1 5.5.5.5.5.",
"5.5.5.5.5.5.5.5.5.5.q ( ,.1.<.:.,.,.,.,.,.,.,.,.,.,.,.,.,.,.,.,.,.,.,.,.,.,.<.2.-.( u 5.5.5.5.5.5.5.",
"5.5.5.5.5.5.5.5.5.5.5.5.p Q &.1.,.,.,.,.;.,.,.,.,.,.,.,.,.,.,.,.,.,.,.<.1.,.+.K e & 5.5.5.5.5.5.5.5.",
"5.5.5.5.5.5.5.5.5.5.5.5.5.5.q K o.;.:.<.,.<.,.:.,.,.,.,.,.:.<.<.<.1.-.X.Y f 1 5.5.5.5.5.5.5.5.5.5.5.",
"5.5.5.5.5.5.5.5.5.5.5.5.5.5.5.5.; e B Y { +.&.-.;.,.,.-.&.$.+._ R Z q 5.5.5.5.5.5.5.5.5.5.5.5.5.5.5.",
"5.5.5.5.5.5.5.5.5.5.5.5.5.5.5.5.5.5.5.5.5.= 3 u p s p q 4 2 5.5.5.5.5.5.5.5.5.5.5.5.5.5.5.5.5.5.5.5.",
"5.5.5.5.5.5.5.5.5.5.5.5.5.5.5.5.5.5.5.5.5.5.5.5.5.5.5.5.5.5.5.5.5.5.5.5.5.5.5.5.5.5.5.5.5.5.5.5.5.5.",
"5.5.5.5.5.5.5.5.5.5.5.5.5.5.5.5.5.5.5.5.5.5.5.5.5.5.5.5.5.5.5.5.5.5.5.5.5.5.5.5.5.5.5.5.5.5.5.5.5.5.",
"5.5.5.5.5.5.5.5.5.5.5.5.5.5.5.5.5.5.5.5.5.5.5.5.5.5.5.5.5.5.5.5.5.5.5.5.5.5.5.5.5.5.5.5.5.5.5.5.5.5."
};
