/* XPM */
static char *result[] = {
/* columns rows colors chars-per-pixel */
"50 50 88 1 ",
"  c #060606",
". c #060F0A",
"X c #0C0D0C",
"o c #0B110E",
"O c #0F1411",
"+ c #0E1811",
"@ c #131112",
"# c #181416",
"$ c #121D16",
"% c #1D171A",
"& c #141E1A",
"* c #1B1B1B",
"= c #17261E",
"- c #1D231F",
"; c #14291F",
": c #18281F",
"> c #1E2122",
", c #172D22",
"< c #1C2A23",
"1 c #193226",
"2 c #1F362B",
"3 c #1C3C2C",
"4 c #232322",
"5 c #232E26",
"6 c #332126",
"7 c #23332D",
"8 c #223D2F",
"9 c #2D3033",
"0 c #243E32",
"q c gray21",
"w c #303832",
"e c #582B3F",
"r c #453039",
"t c #48373C",
"y c #1B422E",
"u c #1E4532",
"i c #1F4C35",
"p c #1F4F38",
"a c #204634",
"s c #214935",
"d c #2A473A",
"f c #254C39",
"g c #2B4C3A",
"h c #22533B",
"j c #24583E",
"k c #583946",
"l c #603145",
"z c #69324A",
"x c #763450",
"c c #344E40",
"v c #2B5342",
"b c #255C41",
"n c #285B41",
"m c #266245",
"M c #296446",
"N c #296649",
"B c #2A6C4C",
"V c #26734D",
"C c #2B724E",
"Z c #2C7552",
"A c #2D7B55",
"S c #2F7E59",
"D c #317452",
"F c #307956",
"G c #317F58",
"H c #8D3B5F",
"J c #983F66",
"K c #9B3E68",
"L c #8E546B",
"P c #A94875",
"I c #AF4B7A",
"U c #B54D7E",
"Y c #2D835A",
"T c #31855C",
"R c #39815F",
"E c #328A5F",
"W c #338C62",
"Q c #339465",
"! c #359768",
"~ c #359C6B",
"^ c #36A16D",
"/ c #38A36F",
"( c #37A570",
") c #38A671",
"_ c #37A872",
"` c #39AA74",
"' c #A96A85",
"] c None",
/* pixels */
"]]]]]]]]]]]]]]]]]]]]]]]]]]]]]]]]]]]]]]]]]]]]]]]]]]",
"]]]]]]]]]]]]]]]]]]]]]]]]]]]]]]]]]]]]]]]]]]]]]]]]]]",
"]]]]]]]]]]]]]]]]]]]]]]]]]]]]]]]]]]]]]]]]]]]]]]]]]]",
"]]]]]]]]]]]]]]]]]]]]]]]]]]]]]]]]]]]]]]]]]]]]]]]]]]",
"]]]]]]]]]]]]]]]]]]]]]]]]]]]]]]]]]]]]]]]]]]]]]]]]]]",
"]]]]]]]]]]]]]]]]]]]]]]]]]]]]]]]]]]]]]]]]]]]]]]]]]]",
"]]]]]]]]]]]]]]]]]]]]]]]]]]]]]]]]]]]]]]]]]]]]]]]]]]",
"]]]]]]]]]]]]]]]]]]]]]]]]]]]]]9]]]]]]]]]]*]]]]]]]]]",
"]]]]]]]]]]]]]]]]]]]]]4]]]]]]]]*]]]]]]]]]>]]]]]]]]]",
"]]]$DZZCMNmjjhiua2a75@]]]]]]]]>]]]]]]]]]]]]]]]]]]]",
"]]]<~__//(////^^^~~~Y+]]]]]q@]*]]]]*@]]]]=<]]]]]]]",
"]]];~^^~^^^^^^^^^^^^~3]]]]]* ]*]]]]XX]]]&WT@]]]]]]",
"]]]3^^^^^^^^^^^^^^^^^A5]]]]]]]<]]]]]]]]]b`N4]]]]]]",
"]]]u^^^^^^^^^^^^^^^^^^Ad]]]]]MY7]]]]]]]f~^2]]]]]]]",
"]]]p)^^^^^^^^^^^^^^^^^^QABBCY~(Yv]]]]dm~(!$]]]]]]]",
"]]]b)^^^^^^^^~^^^~^^^^^~(^~((^^^!YZZAQ~^^Go]]]]]]]",
"]]]M/^^^^^^^^^^^^^^^^^^^^^^^^^~^^^^(_)^^/h]]]]]]]]",
"]]]B)^^^^^^^^^^^^^^^^^^^^^^^^^^^^/QZBCQ^^3]]]]]]]]",
"]]*A/^^^^^^^^^^^^^^^^^^^~^^^^^^^^^WAC1sQ~<]]]]]]]]",
"]]4W_(()^////^/^^^^^^^^^^^^^^^^^^^/)Eb~!YX]]]]]]]]",
"]]4hNCDZYTYTWW!Q!~~^~^^/^^^^^^~^^^^)mZ)_j]]]]]]]]]",
"]]]]]]]]]]]]]]]]180yuufi!^^^^^^^^^)Y,~^)3]]]]]]]]]",
"]]]]]]]]]]]]]]]]]]]]]]]y^^/^^^^^//VkeY_!<]]]]]]]]]",
"]]]]]]]]]]]]]]]]]]]]]]>E/^)///~QTgzIHj_Y*]]]]]]]]]",
"]]]]]]]]]]]]]]]]]]]]]]s(^!VBNmms6LUIKd`A@]]]]]]]]]",
"]]]]]]]]]]]]]]]]]]]]]XC(^~TTQ!^/ArPUHn`N]]]]]]]]]]",
"]]]]]]]]]]]]]]]]]]]]]:!/^^//^^^/^dkxtQ)n]]]]]]]]]]",
"]]]]]]]]]]]]]]]]]]]]]s/^^^^^^^^A8L'9Y^)s]]]]]]]]]]",
"]]]]]]]]]]]]]]]]]]]]XA(^^^^^^^!jARS~(~(u]]]]]]]]]]",
"]]]]]]]]]]]]]]]]]]]];~/^^^^^^^//////^^~,]]]]]]]]]]",
"]]]]]]]]]]]]]]]]]]]]u)^^^^^^^^^^^^^^^^~<]]]]]]]]]]",
"]]]]]]]]]]]]]]]]]]]]m/^^^^^^^^^^^^^^^/E>]]]]]]]]]]",
"]]]]]]]]]]]]]]]]]]]*A(^^^^^^^^^^^^^^^/A*]]]]]]]]]]",
"]]]]]]]]]]]]]]]]]]]OT^~^^^^^^^~^^^^^^(B%]]]]]]]]]]",
"]]]]]]]]]]]]]]]]]]]XW/^^^~^^^^^^^~^^^/N@]]]]]]]]]]",
"]]]]]]]]]]]]]]]]]]]XW^^^^^^^^^^^^^^^^(B#]]]]]]]]]]",
"]]]]]]]]]]]]]]]]]]]&Q^^^^^^^^^^^^^^^^)m%]]]]]]]]]]",
"]]]]]]]]]]]]]]]]]]]&Q(^^^^~^^^~^^^~^^_j]]]]]]]]]]]",
"]]]]]]]]]]]]]]]]]]].W(^^^^^^^^^^^^^^^)h]]]]]]]]]]]",
"]]]]]]]]]]]]]]]]]]]oW^^^^^^^^^^^^^^^^)3]]]]]]]]]]]",
"]]]]]]]]]]]]]]]]]]]OW/^^^^^^^^^^~^^^^)3]]]]]]]]]]]",
"]]]]]]]]]]]]]]]]]]]XE/^^^^^^^^^^^^^^^(3]]]]]]]]]]]",
"]]]]]]]]]]]]]]]]]]]@A/^^^^^~^^^^^^^^^)y]]]]]]]]]]]",
"]]]]]]]]]]]]]]]]]]]%N(^^^^^^^^^^^^^^^)3]]]]]]]]]]]",
"]]]]]]]]]]]]]]]]]]]]h(^^^^^^^^^^^^^^/)y]]]]]]]]]]]",
"]]]]]]]]]]]]]]]]]]]]3((^^^/^^////////`y]]]]]]]]]]]",
"]]]]]]]]]]]]]]]]]]]]&WQQQQEEWETTTACZZB;]]]]]]]]]]]",
"]]]]]]]]]]]]]]]]]]]]%<<==7]]]]]]]]]]]]]]]]]]]]]]]]",
"]]]]]]]]]]]]]]]]]]]]]]]]]]]]]]]]]]]]]]]]]]]]]]]]]]",
"]]]]]]]]]]]]]]]]]]]]]]]]]]]]]]]]]]]]]]]]]]]]]]]]]]"
};
