/* XPM */
static char *result[] = {
/* columns rows colors chars-per-pixel */
"50 50 230 2 ",
"   c #4C0E05",
".  c #5E1304",
"X  c #6A1803",
"o  c #741C12",
"O  c #703011",
"+  c #132A7C",
"@  c #2E2A68",
"#  c #483248",
"$  c #3F535F",
"%  c #524B4F",
"&  c #785348",
"*  c #78694D",
"=  c #777758",
"-  c #735473",
";  c #566C6E",
":  c #646977",
">  c #757571",
",  c #851700",
"<  c #8B2806",
"1  c #A62E06",
"2  c #AC3C05",
"3  c #A83908",
"4  c #B33C07",
"5  c #AE3C10",
"6  c #913826",
"7  c #C13D05",
"8  c #D42D33",
"9  c #98460F",
"0  c #98461A",
"q  c #A94609",
"w  c #BA4305",
"e  c #B54508",
"r  c #BC4908",
"t  c #A9550E",
"y  c #B9560D",
"u  c #A44217",
"i  c #B44915",
"p  c #B65616",
"a  c #BE6914",
"s  c #965123",
"d  c #944F35",
"f  c #A65033",
"g  c #967C3D",
"h  c #A86B2D",
"j  c #B67524",
"k  c #B36935",
"l  c #C74907",
"z  c #D24B05",
"x  c #CA580B",
"c  c #D95704",
"v  c #C95917",
"b  c #C9640A",
"n  c #D9680D",
"m  c #C86813",
"M  c #D56818",
"N  c #CC7515",
"B  c #D57515",
"V  c #DA7918",
"C  c #E1760D",
"Z  c #E47718",
"A  c #C26A21",
"S  c #DA6C2D",
"D  c #CA7924",
"F  c #CD7330",
"G  c #B03D64",
"H  c #CF3349",
"J  c #91564B",
"K  c #8B5955",
"L  c #B74E43",
"P  c #977749",
"I  c #946F50",
"U  c #B0714F",
"Y  c #A97459",
"T  c #8E506F",
"R  c #984B77",
"E  c #934B7B",
"W  c #9B577B",
"Q  c #A64669",
"!  c #B94564",
"~  c #B3496B",
"^  c #B5586A",
"/  c #A54976",
"(  c #B44D74",
")  c #A75578",
"_  c #8A7173",
"`  c #847977",
"'  c #AA7965",
"]  c #C35257",
"[  c #CA516D",
"{  c #528470",
"}  c #6F8A7B",
"|  c #98873C",
" . c #AF8D38",
".. c #D6850C",
"X. c #DB8419",
"o. c #E3840F",
"O. c #E58916",
"+. c #E59415",
"@. c #F2A118",
"#. c #CF8E2D",
"$. c #D5842B",
"%. c #DD982D",
"&. c #ED8622",
"*. c #E69525",
"=. c #DAA436",
"-. c #E2A12C",
";. c #E6A83A",
":. c #978649",
">. c #90845F",
",. c #AA9548",
"<. c #AC9150",
"1. c #BEA552",
"2. c #968F6E",
"3. c #868777",
"4. c #AC8173",
"5. c #D29247",
"6. c #CAB157",
"7. c #ECB143",
"8. c #C7886E",
"9. c #D6977A",
"0. c #CDB869",
"q. c #DAC169",
"w. c #E5CF73",
"e. c #17368B",
"r. c #0E4A93",
"t. c #2F5494",
"y. c #3E739C",
"u. c #2854AF",
"i. c #1873B9",
"p. c #2A6DAE",
"a. c #3878AB",
"s. c #296CBB",
"d. c #3969BD",
"f. c #2C74B9",
"g. c #377AB8",
"h. c #535B8F",
"j. c #75558B",
"k. c #795A96",
"l. c #506692",
"z. c #5B7498",
"x. c #756988",
"c. c #716E8A",
"v. c #75669B",
"b. c #637499",
"n. c #525DA6",
"m. c #675EA6",
"M. c #4A6CA7",
"N. c #5261AB",
"B. c #5968AA",
"V. c #4974A6",
"C. c #5876A8",
"Z. c #4669B9",
"A. c #546AB5",
"S. c #576BB7",
"D. c #4B73BA",
"F. c #5772B7",
"G. c #6B62A6",
"H. c #6867AB",
"J. c #7364A4",
"K. c #7868A5",
"L. c #696EB4",
"P. c #6373B1",
"I. c #7872B1",
"U. c #1E6ECE",
"Y. c #1E71CF",
"T. c #1F74D1",
"R. c #286DC5",
"E. c #226ECC",
"W. c #2B6EC9",
"Q. c #346EC5",
"!. c #356DC7",
"~. c #2A74C4",
"^. c #2876C7",
"/. c #2371CC",
"(. c #2B73CB",
"). c #3674C5",
"_. c #2776D1",
"`. c #466EC0",
"'. c #4D72C1",
"]. c #895789",
"[. c #935485",
"{. c #975A88",
"}. c #885B93",
"|. c #945C90",
" X c #A65585",
".X c #93658D",
"XX c #847589",
"oX c #89639A",
"OX c #B8618B",
"+X c #876CA7",
"@X c #3B85BA",
"#X c #3994B9",
"$X c #77968E",
"%X c #688A99",
"&X c #718C94",
"*X c #67AB8B",
"=X c #75B798",
"-X c #4884BD",
";X c #5A86B7",
":X c #5091B0",
">X c #668DA4",
",X c #76B5AD",
"<X c #7DC2B1",
"1X c #3682CB",
"2X c #3E8FCD",
"3X c #488BC6",
"4X c #5591C7",
"5X c #659BC6",
"6X c #59A3C0",
"7X c #73A4CD",
"8X c #6BABD0",
"9X c #919D94",
"0X c #89AD93",
"qX c #87B7AA",
"wX c #88BCB4",
"eX c #96BAB2",
"rX c #D6A693",
"tX c #D0B6B1",
"yX c #87CBAE",
"uX c #85C1B5",
"iX c #97D1B8",
"pX c #8F9DC0",
"aX c #87BCC1",
"sX c #ABB9CF",
"dX c #94D5C8",
"fX c #A5CFD2",
"gX c #CFCBCE",
"hX c #ECD0CA",
"jX c #F5E0D9",
"kX c #D9E2E5",
/* pixels */
"U.U.U.U.U.U.U.U.U.U.U.U.U.U.U.U.U.U.U.U.U.U.U.U.U.U.U.U.U.U.U.U.U.U.U.U.U.U.U.U.U.U.U.U.U.U.U.U.U.U.",
"U.U.U.U.U.U.U.U.U.U.U.U.U.U.U.U.U.U.U.U.U.U.U.U.U.U.U.U.U.U.U.U.U.U.U.U.U.U.U.U.U.U.U.U.U.U.U.U.U.U.",
"U.U.U.U.U.U.U.U.U.U.U.U.U.U.U.U.U.U.U.U.U.U.U.U.U.U.U.U.U.U.U.U.U.U.U.U.U.U.U.U.U.U.U.U.U.U.U.U.U.U.",
"U.U.U.U.U.U.U.U.U.U.U.U.U.U.U.U.U.U.U.U.U.U.U.U.U.U.U.U.U.U.U.U.U.U.U.U.U.U.U.U.U.U.U.U.U.U.U.U.U.U.",
"U.U.U.U.U.U.U.U.U.U.U.U.U.U.U.U.U.U.U.U.U.U.U.U.U.U.U.U.U.U.U.U.U.U.U.U.U.U.U.U.U.U.U.U.U.U.U.U.U.U.",
"U.U.U.U.U.U.U.U.U.U.U.U.U.U.U.U.U.U.U.U.U.U.U.U.U.U.U.U.U.U.U.U.U.U.U.U.U.U.U.U.U.U.U.U.U.U.U.U.U.U.",
"U.U.U.U.U.U.U.U.U.U.U.U.U.U.U.U.U.U.U.U.U.U.U.U.`.(.U.U.U.U.U.U.U.U.U.U.U.U.U.U.U.U.U.U.U.U.U.U.U.U.",
"U.U.U.U.U.U.U.U.U.U.U.U.U.E.U.U.E.E.U.Z.A.!.!.E.H.S.).(.U.U.U.U.U.U.U.U.U.U.U.U.U.U.U.U.U.U.U.U.U.U.",
"U.U.U.U.U.U.U.U.U.U.U.U.E.f.E.U.W.J.Z.m. XJ.+X+X{.I.H.'.E.U.U.U.U.U.U.U.U.U.U.U.U.U.U.U.U.U.U.U.U.U.",
"U.U.U.U.U.U.U.U.U.U.U.U.E.~.U.!.m.|./ [.|. X{.|.[. X+XK.W.U.U.U.U.U.U.U.U.U.U.U.U.U.U.U.U.U.U.U.U.U.",
"U.U.U.U.U.U.U.U.U.U.U.U.E.).U.N.[.~ H / |. X( ].[.R m.|.W.!.E.U.U.U.U.U.U.U.U.U.U.U.U.U.U.U.U.U.U.U.",
"U.U.U.U.U.U.U.U.U.U.U.U.U.2XW.K.[ ( ~ (  Xk.K.k.Q j.k.K.G.S.E.U.U.U.U.U.U.U.U.U.U.U.U.U.U.U.U.U.U.U.",
"U.U.U.U.U.U.U.U.U.U.U.U.Y.4XA.S.}.E E H }.}.K.E H |.m.! K.W.U.U.U.U.U.U.U.U.U.U.U.U.U.U.U.U.U.U.U.U.",
"U.U.U.U.U.U.U.U.U.U.U.U.U.B. Xk.Z.{.] 8 {.) W.k.u.N./  Xm.W.U.U.U.U.U.U.U.U.U.U.U.U.U.U.U.U.U.U.U.U.",
"U.U.U.U.U.U.U.U.U.U.U.U.a.M.E ~ _ #.j N j P x.n.Z.[.n.[.N.A.U.U.E.E.U.U.U.U.U.U.U.U.U.U.U.U.U.U.U.U.",
"U.U.U.U.U.U.U.U.U.U.U.(.A.B./ S 9 X .   < ..F [.].[.}.{.S.E.U.U.~.(.U.U.U.U.U.U.U.U.U.U.U.U.U.U.U.U.",
"U.U.U.U.U.U.U.U.U.T.'.P.M.n.Q 5 t t 9 y B b d N.j.N.~ L.S.W.U.U.(.^./.U.U.U.U.U.U.U.U.U.U.U.U.U.U.U.",
"U.U.U.U.U.U.U.U.U./.(.F.l.R ].6 < 4 r B n D j +XG N.k.A.!.(.&X> 3X(.Y.U.U.U.U.U.U.U.U.U.U.U.U.U.U.U.",
"U.U.U.U.U.U.U.U.U.U.U.F.C.a.K.6 q 4 N -.%.B ..[ )  XH.A.E.M.B a ,.g.U.U.U.U.U.U.U.U.U.U.U.U.U.U.U.U.",
"U.U.U.U.U.U.U.U.U.U.U.P.S.a.[.& e b +...%.;.B ^ K.{.( J.S.d 4 a 9 = f.U.U.U.U.U.U.U.U.U.U.U.U.U.U.U.",
"U.U.U.U.U.U.U.U.U./.U.Z.S.z.A.- e x V -.;.;.C ] H.) ( ~ ) i 4 v b  .%XU.U.U.U.U.U.U.U.U.U.U.U.U.U.U.",
"U.U.U.U.U.U.U.U.U.(.f.s.Q.P.m.].y x P C =.;.V ] }.R Q [ f l x b m = a.U.U.U.U.U.U.U.U.U.U.U.U.U.U.U.",
"U.U.U.U.U.U.U.Y.U.U.Y.p.g.`.I.M.0 * h &.7.=...XXj.H ( ) 5 y n O.g c.Y.Y.U.U.U.U.U.U.U.U.U.U.U.U.U.U.",
"U.U.U.U.U.U.1X3XE.U.E.i.t.Z.'..XJ * z O.@.+.C U R / oXL 5 A V +.:././.R.U.U.U.U.U.U.U.U.U.U.U.U.U.U.",
"U.U.U.U.U.U.^.:X@XY.f.H.x.[ K.v.K 0 v v &.;.Z S ].m.{.i l :.=.X.V.~.f./.U.U.U.U.U.U.U.U.U.U.U.U.U.U.",
"U.U.U.U.U.U.Y.^.a.f.R.].) ( W M.K s h p O.7.Z _ k.N.J e c %.<.XXU.p.R.Y.1X1XU.U.U.U.U.U.U.U.U.U.U.U.",
"U.U.U.U.U.U.Y.Y.~.-Xb.].- ) ~ M.T * * X.+.*.O.U }.k.q 2 D =.} g.Y.~.Y.R.@X^.Y.U.U.U.U.U.U.U.U.U.U.U.",
"U.U.U.U.U.Y.Y.Y.^.F.c.b.b.c.8 N.M.; u p Z V o.J m.d y $.7.I b.Q.Y.g.f.-Xg.Y.Y.Y.U.U.U.U.U.U.U.U.U.U.",
"U.U.U.U.U.U.U.U.U.F.].[.v.z.x.T h.% 9 9 v A D _ T 0 s 5.5.c.a._.g.3X>  .I ).U.U.U.U.U.U.U.U.U.U.U.U.",
"U.U.U.U.U.U.U.E.).B.oX XH.B.y.E ; t.i p M A 5.U 0 5 F 5.x.!.f.(.@X3.N *.t = U.U.U.U.U.U.U.U.U.U.U.U.",
"U.U.U.U.U.U.U.W.I.k.j.j.T n.V.F.i.U.d p M A U j O O D > Y.R.f.^.c.D $.V  .h C.U.U.U.U.U.U.U.U.U.U.U.",
"U.U.U.U.U.U.U.E.D.K.[.W ) d.B.W b.g.: i M M 9 a N D P /./.f.^.z.%.*.Z x B $.<.U.U.U.U.U.U.U.U.U.U.U.",
"U.U.U.U.U.U.U.U.'.+XoXJ.}.].}.n./ B.a.s l c o y b n >.E._.T.b.+.@.O.c z l n O.pXU.U.U.U.U.U.U.U.U.U.",
"U.U.U.U.U.U.U.U.E.`.L.OX Xk.[.].G.J.U.c.1 2 X 2 l b ` /.2X` O.@.C z l r w 4 k 3XU.U.U.U.U.U.U.U.U.U.",
"U.U.U.U.U.U.U.U.U.U.S.J.v.}.K.J.C.;X-X4X6 , X 3 r 4 3.&Xf Z C v c l 4 e 4 J s.U.U.U.U.U.U.U.U.U.U.U.",
"U.U.U.U.U.U.U.U.U.W.W.E.!.Z.F.qX$X$ $X$X9X& . 3 2 e N n c M l 4 e 1 1 u : E.E.U.U.U.U.U.U.U.U.U.U.U.",
"U.U.U.U.U.U.U.U.U.U.U.U.~.,XwXeX} : } eXeX<X= 3 e p < 1 7 2 1 5 1 5 d d.E.U.U.U.U.U.U.U.U.U.U.U.U.U.",
"U.U.U.U.U.U.U.U.U.U.U.U.6XdXdXwXdXaX=XwXfXuX,Xs e t X , 1 o o 6 d c.W.U.U.U.U.U.U.U.U.U.U.U.U.U.U.U.",
"U.U.U.U.U.U.U.U.U.U.U.U.:XyXdXqXuXdXuXuXdXiX=X; % # # @ @ u.e.@ s.E.U.U.U.U.U.U.U.U.U.U.U.U.U.U.U.U.",
"U.U.U.U.U.U.U.U.U.U.U.U.f.} =X=X=X<X<X=X0X0X2.sXsX7X7X5X8X8X4XR.+ E.U.U.U.U.U.U.U.U.U.U.U.U.U.U.U.U.",
"U.U.U.U.U.U.U.U.U.U.U.U.U.a.{ { *X*X*X* U ' ' rXhXjXhXtXgX8X#XQ.+ U.U.U.U.U.U.U.U.U.U.U.U.U.U.U.U.U.",
"U.U.U.U.U.U.U.U.U.U.U.U.U.U.E.~.f.g.:XY 8.9.U Q h.pXgXhXkX#Xi.+ + U.U.U.U.U.U.U.U.U.U.U.U.U.U.U.U.U.",
"U.U.U.U.U.U.U.U.U.U.U.U.U.U.U.U.U.U.'.' 9.rXrXU J t.t.a.f.r.+ r.R.U.U.U.U.U.U.U.U.U.U.U.U.U.U.U.U.U.",
"U.U.U.U.U.U.U.U.U.U.U.U.U.U.U.U.T.T.T.` U ' 9.U :.,.<.2.$ r.s.U.U.U.U.U.U.U.U.U.U.U.U.U.U.U.U.U.U.U.",
"U.U.U.U.U.U.U.U.U.U.U.U.U.U.U.U.U.U.U.D.4.J Y <.| 6.q.5.:._.Y.U.U.U.U.U.U.U.U.U.U.U.U.U.U.U.U.U.U.U.",
"U.U.U.U.U.U.U.U.U.U.U.U.U.U.U.U.U.U.U.U.g.XXg | <.w.w.6.:.).Y.U.U.U.U.U.U.U.U.U.U.U.U.U.U.U.U.U.U.U.",
"U.U.U.U.U.U.U.U.U.U.U.U.U.U.U.U.U.U.U.U.U._.}  .1.0.,.1.2.T.U.U.U.U.U.U.U.U.U.U.U.U.U.U.U.U.U.U.U.U.",
"U.U.U.U.U.U.U.U.U.U.U.U.U.U.U.U.U.U.U.U.U.U.%X,.:.,.:.} >XU.U.U.U.U.U.U.U.U.U.U.U.U.U.U.U.U.U.U.U.U.",
"U.U.U.U.U.U.U.U.U.U.U.U.U.U.U.U.U.U.U.U.U.U.E.a.} &Xd.^.E.U.U.U.U.U.U.U.U.U.U.U.U.U.U.U.U.U.U.U.U.U.",
"U.U.U.U.U.U.U.U.U.U.U.U.U.U.U.U.U.U.U.U.U.U.U.U.U.U.U.U.U.U.U.U.U.U.U.U.U.U.U.U.U.U.U.U.U.U.U.U.U.U."
};
